<svg width="1400" height="2298" viewBox="0 0 1400 2298" fill="none" xmlns="http://www.w3.org/2000/svg">
<path d="M1144.75 1494.35C1110.4 1434.72 1138.22 1382.42 1207.16 1382.42H1220.44C1289.15 1382.42 1317.44 1337.32 1282.85 1277.81L1115.55 991.691C1081.2 932.178 1097.34 884.339 1151.97 884.339C1206.59 884.339 1223.08 836.042 1188.5 776.529L1038.83 519.021L912.863 302.6L763.195 44.8633C728.842 -14.6496 671.585 -14.6496 637.232 44.8633L487.449 302.714C453.096 362.227 395.839 459.623 361.485 519.136L211.703 776.986C177.349 836.499 193.61 885.254 248.232 885.254C302.855 885.254 319.345 933.895 284.762 993.522L117.345 1278.04C82.9908 1337.55 110.818 1382.65 179.754 1382.65H193.152C261.859 1382.65 290.03 1434.95 255.447 1494.58L14.9703 1911.97C-19.3834 1971.48 8.44314 2023.55 77.2652 2023.55H1322.59C1391.3 2023.55 1419.47 1971.48 1384.88 1911.97L1144.75 1494.35Z" fill="#8CB347"/>
<g style="mix-blend-mode:multiply">
<path d="M705.253 0.342966C680.976 -1.83155 656.127 12.8177 637.691 44.6343L487.908 302.486C453.554 361.999 396.298 459.394 361.944 518.907L212.162 776.758C177.808 836.271 194.069 885.025 248.691 885.025C303.314 885.025 319.804 933.666 285.221 993.293L117.804 1279.41C83.4498 1338.93 111.276 1385.62 180.213 1385.62H193.611C262.318 1385.62 290.488 1436.32 255.906 1495.95L15.4293 1912.77C-18.9245 1972.4 8.90212 2023.9 77.7242 2023.9H704.795L705.253 0.342966Z" fill="#8CB347"/>
</g>
<path d="M544.934 2298L659.446 764.398H705.251L819.764 2298H544.934Z" fill="#603E2A"/>
<path d="M660.02 1513.12L873.7 1366.97L887.212 1380.47L740.98 1594.03L660.02 1513.12Z" fill="#603E2A"/>
<path d="M660.019 1845.82L513.672 1632.26L527.184 1618.75L740.979 1764.9L660.019 1845.82Z" fill="#603E2A"/>
<path d="M660.019 1330.8L513.672 1117.24L527.184 1103.74L740.979 1249.89L660.019 1330.8Z" fill="#603E2A"/>
</svg>
