<svg width="1412" height="1752" viewBox="0 0 1412 1752" fill="none" xmlns="http://www.w3.org/2000/svg">
<path d="M1410.02 651.38C1400.87 533.37 1361.21 419.761 1294.92 321.685L1179.48 190.341C1141.6 157.29 1100.27 128.415 1056.2 104.214C976.612 55.0349 887.874 22.5014 795.352 8.58015C702.829 -5.34115 608.444 -0.36112 517.901 23.219C427.358 46.7991 342.539 88.4896 268.569 145.771C194.6 203.051 133.017 274.733 87.5437 356.482C42.0701 438.231 13.6502 528.35 4.00185 621.391C-5.64647 714.432 3.67724 808.463 31.4093 897.799C59.1413 987.135 104.706 1069.92 165.348 1141.15C225.991 1212.39 300.452 1270.59 384.231 1312.23C433.595 1342.03 666.458 1406.03 568.506 1375.8C571.862 1376.83 575.336 1377.44 578.844 1377.6C640.636 1384.5 702.752 1388.09 764.928 1388.37C766.889 1388.4 768.85 1388.25 770.786 1387.94C832.642 1380.36 893.378 1362.62 954.027 1349.61C1096.33 1299.73 1218.17 1204.25 1300.61 1078.02C1383.05 951.787 1421.48 801.867 1409.93 651.552L1410.02 651.38Z" fill="#8CB347"/>
<g style="mix-blend-mode:multiply">
<path d="M578.929 1377.43C591.594 1378.9 604.774 1380.1 617.008 1381.22C410.248 1235.49 273.269 995.286 273.269 727.775C273.269 409.104 467.451 129.621 742.098 1.98069C647.645 -5.02715 552.763 7.55209 463.402 38.9293C334.917 83.9945 222.572 165.929 140.417 274.487C58.2621 383.045 9.94351 513.408 1.50367 649.273C-6.93617 785.139 24.8773 920.477 92.9657 1038.36C161.054 1156.25 262.395 1251.45 384.316 1312.06C433.68 1341.86 666.544 1405.85 568.591 1375.62C571.948 1376.66 575.421 1377.26 578.929 1377.43Z" fill="#8CB347"/>
</g>
<path d="M602.793 1752L688.943 890.728H723.403L809.553 1752H602.793Z" fill="#603E2A"/>
<path d="M689.375 1161.08L850.131 1051.01L860.297 1061.17L750.283 1221.97L689.375 1161.08Z" fill="#603E2A"/>
<path d="M689.373 1411.45L579.359 1250.65L589.439 1240.49L750.281 1350.56L689.373 1411.45Z" fill="#603E2A"/>
</svg>
