<svg width="794" height="1521" viewBox="0 0 794 1521" fill="none" xmlns="http://www.w3.org/2000/svg">
<path d="M726.784 761.649L724.939 759.121C746.245 701.975 751.999 640.2 741.614 580.103C731.229 520.007 705.078 463.742 665.829 417.055C694.178 360.235 702.909 295.629 690.657 233.325C678.406 171.022 645.863 114.528 598.109 72.6653L536.608 30.9915C490.022 7.95321 438.099 -2.1456 386.271 1.75156L313.222 17.123C275.654 30.2196 241.215 50.9694 212.083 78.0595C182.951 105.149 159.76 137.99 143.979 174.503C128.197 211.016 120.168 250.406 120.399 290.181C120.631 329.956 129.118 369.251 145.323 405.577C143.751 407.285 142.043 408.925 140.54 410.633C110.13 445.396 86.9359 485.857 72.307 529.663C57.6781 573.468 51.9059 619.744 55.3262 665.799C57.7929 697.685 64.6928 729.072 75.8266 759.053C65.4438 774.359 56.0843 790.335 47.8093 806.875C44.3926 813.707 40.9758 821.017 38.1741 828.122C10.8402 884.621 -4.05678 967.9 2.7767 1027.68C8.67622 1105.34 37.6592 1179.46 86.0041 1240.53C134.349 1301.59 199.849 1346.82 274.093 1370.4C348.337 1393.98 427.937 1394.83 502.67 1372.85C577.403 1350.87 643.859 1307.06 693.505 1247.05C693.697 1246.92 693.86 1246.76 693.983 1246.57C739.562 1202.3 775.37 1117.79 786.987 1057.12L793.137 951.709C787.879 883.675 765.013 818.178 726.784 761.649Z" fill="#8CB347"/>
<g style="mix-blend-mode:multiply">
<path d="M147.1 1044.01C147.214 980.657 164.603 918.538 197.394 864.331C178.133 820.341 168.176 772.846 168.147 724.826C168.443 672.305 180.317 620.495 202.923 573.085C225.53 525.675 258.313 483.83 298.94 450.53C279.976 406.869 270.161 359.787 270.102 312.187C270.657 249.624 287.574 188.295 319.174 134.292C350.773 80.2888 395.956 35.4907 450.233 4.34763C428.969 1.2508 407.433 0.449164 385.998 1.95653L312.948 17.328C275.381 30.4246 240.941 51.1744 211.809 78.2644C182.677 105.354 159.487 138.195 143.705 174.708C127.923 211.221 119.894 250.611 120.126 290.386C120.357 330.161 128.844 369.456 145.05 405.782C143.478 407.49 141.77 409.13 140.266 410.838C109.856 445.601 86.6624 486.062 72.0335 529.867C57.4046 573.673 51.6325 619.949 55.0527 666.004C57.5194 697.89 64.4193 729.277 75.5532 759.258C65.1703 774.564 55.8108 790.54 47.5359 807.08C44.1192 813.912 40.7024 821.222 37.9007 828.327C10.5668 884.826 -4.33021 968.105 2.50326 1027.88C10.3332 1130.03 57.9932 1225.01 135.212 1292.36C212.43 1359.7 313.024 1394.02 415.314 1387.92C262.79 1348.16 147.1 1207.56 147.1 1044.01Z" fill="#8CB347"/>
</g>
<path d="M315.203 1521L383.538 837.823H410.872L479.138 1521H315.203Z" fill="#603E2A"/>
<path d="M383.811 1052.48L511.392 965.167L519.387 973.229L432.123 1100.78L383.811 1052.48Z" fill="#603E2A"/>
<path d="M383.81 1251.08L296.547 1123.53L304.61 1115.47L432.123 1202.78L383.81 1251.08Z" fill="#603E2A"/>
</svg>
