<svg width="1856" height="2198" viewBox="0 0 1856 2198" fill="none" xmlns="http://www.w3.org/2000/svg">
<path d="M1853.95 1098.01C1845.47 992.217 1796.26 893.836 1716.68 823.558C1690.65 800.529 1661.6 781.161 1630.32 765.993C1637.07 731.253 1639.22 695.776 1636.7 660.476C1627.73 549.251 1575.98 445.826 1492.31 371.923C1413.9 302.866 1325.03 274.868 1225.92 268.286C1202.59 203.536 1163.32 145.693 1111.75 100.085C1024.76 23.7153 924.079 -0.000183105 811.373 -0.000183105C594.953 -0.000183105 429.344 217.199 435.513 420.92C389.52 452.75 350.343 493.426 320.273 540.569C290.203 587.712 269.845 640.374 260.39 695.474C194.718 721.992 136.932 764.867 92.5336 820.016C48.1357 875.164 18.6041 940.752 6.75046 1010.53C-5.10318 1080.31 1.11593 1151.96 24.8155 1218.66C48.5151 1285.36 88.9063 1344.89 142.143 1391.58L231.534 1451.54C298.73 1484.62 373.582 1499.05 448.268 1493.33L553.551 1471.18C571.665 1464.68 589.337 1457 606.454 1448.2C611.89 1453.42 616.909 1458.65 622.972 1463.45L730.137 1535.33C810.723 1575.12 900.516 1592.58 990.155 1585.89L1116.56 1559.25C1165.35 1541.99 1211.19 1517.32 1252.47 1486.12C1321.06 1522.48 1396.75 1535.12 1478.93 1535.12C1701.21 1535.43 1869.95 1306.33 1853.95 1098.01Z" fill="#8CB347"/>
<g style="mix-blend-mode:multiply">
<path d="M392.02 1099.68C392.02 639.999 717.068 244.988 1146.46 134.874C1135.61 122.584 1124.01 110.966 1111.75 100.085C1024.76 23.7153 924.079 -0.000183105 811.373 -0.000183105C594.953 -0.000183105 429.344 217.199 435.513 420.92C389.52 452.75 350.343 493.426 320.273 540.569C290.203 587.712 269.845 640.374 260.39 695.474C194.718 721.992 136.932 764.867 92.5336 820.016C48.1357 875.164 18.6041 940.752 6.75046 1010.53C-5.10318 1080.31 1.11593 1151.96 24.8155 1218.66C48.5151 1285.36 88.9063 1344.89 142.143 1391.58L231.534 1451.54C298.73 1484.62 373.582 1499.05 448.268 1493.33L473.151 1488.11C419.749 1365.56 392.134 1233.34 392.02 1099.68Z" fill="#8CB347"/>
</g>
<path d="M864.381 2198L968.932 1153.27H1010.75L1115.3 2198H864.381Z" fill="#603E2A"/>
<path d="M969.453 1481.21L1164.65 1347.8L1176.88 1360.13L1043.37 1555.08L969.453 1481.21Z" fill="#603E2A"/>
<path d="M969.455 1784.92L835.943 1589.97L848.28 1577.64L1043.37 1711.05L969.455 1784.92Z" fill="#603E2A"/>
</svg>
