<svg width="1432" height="1552" viewBox="0 0 1432 1552" fill="none" xmlns="http://www.w3.org/2000/svg">
<path d="M1430.3 685C1426.01 631.099 1405.94 579.657 1372.6 537.091C1398 482.197 1404.97 420.563 1392.48 361.381C1379.99 302.199 1348.7 248.641 1303.27 208.695L1242.62 168.144C1207.9 151.141 1170.06 141.439 1131.45 139.637C1091.76 67.199 1011 25.6946 923.484 25.6946C876.874 26.3534 832.238 44.616 798.533 76.817L740.304 37.7387C683.746 9.79817 620.722 -2.44107 557.817 2.29967L469.086 20.929C412.297 40.8366 361.573 74.9991 321.78 120.141L315.974 126.986C285.079 117.664 252.925 113.191 220.658 113.729C90.6821 113.729 -7.49352 247.6 1.77813 369.254C6.63234 429.305 33.9174 485.327 78.2043 526.174C47.0933 600.875 40.2176 683.458 58.5468 762.276C76.876 841.093 119.485 912.169 180.366 965.479L263.897 1021.54C326.617 1052.58 396.534 1066.17 466.314 1060.88L474.979 1059.15C521.683 1092.42 574.541 1103.25 632.857 1103.25C676.904 1102.81 719.563 1087.79 754.168 1060.53L820.976 1064.43C866.814 1099.7 919.151 1111.05 976.948 1111.05C1060.57 1111.05 1130.49 1052.91 1164.63 979.43H1178.06C1327.62 979.256 1441.05 825.11 1430.3 685Z" fill="#8CB347"/>
<g style="mix-blend-mode:multiply">
<path d="M683.115 1018.94C437.2 1018.94 232.011 813.759 232.011 567.852C232.316 506.926 244.975 446.696 269.222 390.802C293.468 334.908 328.799 284.512 373.078 242.661C433.171 156.652 520.904 93.8129 621.68 64.5997C634.418 45.405 648.644 27.2399 664.225 10.2714C629.288 1.97718 593.29 -0.944626 557.471 1.60657L468.741 20.2359C411.951 40.1435 361.228 74.306 321.434 119.448L315.629 126.293C284.734 116.971 252.579 112.498 220.313 113.036C90.3363 113.036 -7.83922 246.907 1.43243 368.561C6.28663 428.612 33.5717 484.634 77.8586 525.481C46.7476 600.182 39.8719 682.765 58.2011 761.583C76.5303 840.4 119.14 911.476 180.02 964.786L263.551 1020.85C326.271 1051.89 396.188 1065.47 465.968 1060.19L474.633 1058.45C521.338 1091.73 574.195 1102.56 632.511 1102.56C676.558 1102.11 719.217 1087.09 753.823 1059.84L808.066 1062.96C778.467 1050.51 750.265 1034.97 723.928 1016.6C710.67 1018.25 696.979 1018.94 683.115 1018.94Z" fill="#8CB347"/>
</g>
<g style="mix-blend-mode:multiply">
<path d="M960.744 1097.53C917.307 1095.63 874.388 1087.33 833.367 1072.92C871.73 1097.07 916.107 1109.95 961.437 1110.1C961.437 1106.11 960.831 1101.43 960.744 1097.53Z" fill="#8CB347"/>
</g>
<path d="M689.266 1552L775.917 685.52H810.577L897.228 1552H689.266Z" fill="#603E2A"/>
<path d="M776.352 957.768L938.042 847.118L948.267 857.343L837.614 1019.03L776.352 957.768Z" fill="#603E2A"/>
<path d="M776.352 1209.65L665.699 1047.97L675.924 1037.74L837.615 1148.39L776.352 1209.65Z" fill="#603E2A"/>
</svg>
