<svg width="448" height="1711" viewBox="0 0 448 1711" fill="none" xmlns="http://www.w3.org/2000/svg">
<rect x="103.847" y="359.645" width="344.153" height="1349.66" fill="#F3DD28"/>
<path d="M121.262 199.925L414.265 0V328.802H435.193V360.746H103.638L11.1104 420.228V380.573L90.4194 328.802H121.262V199.925Z" fill="#F3DD28"/>
<path d="M2.62305 423.982L103.845 359.645V1709.3H2.62305V423.982Z" fill="#AC9D1D"/>
<line x1="103.845" y1="796.639" x2="447.998" y2="796.639" stroke="black"/>
<line x1="103.845" y1="1231.27" x2="447.998" y2="1231.27" stroke="black"/>
<line x1="103.845" y1="1668.77" x2="447.998" y2="1668.77" stroke="black"/>
<line x1="103.845" y1="647.945" x2="447.998" y2="647.945" stroke="black"/>
<line x1="103.845" y1="1085.44" x2="447.998" y2="1085.44" stroke="black"/>
<line x1="103.845" y1="1525.79" x2="447.998" y2="1525.79" stroke="black"/>
<line x1="103.845" y1="504.977" x2="447.998" y2="504.977" stroke="black"/>
<line x1="103.845" y1="942.469" x2="447.998" y2="942.469" stroke="black"/>
<line x1="103.845" y1="1377.1" x2="447.998" y2="1377.1" stroke="black"/>
<line x1="103.845" y1="722.293" x2="447.998" y2="722.293" stroke="black"/>
<line x1="103.845" y1="1156.93" x2="447.998" y2="1156.93" stroke="black"/>
<line x1="103.845" y1="1594.42" x2="447.998" y2="1594.42" stroke="black"/>
<line x1="103.845" y1="573.6" x2="447.998" y2="573.6" stroke="black"/>
<line x1="103.845" y1="1013.96" x2="447.998" y2="1013.96" stroke="black"/>
<line x1="103.845" y1="1451.45" x2="447.998" y2="1451.45" stroke="black"/>
<line x1="103.845" y1="430.631" x2="447.998" y2="430.631" stroke="black"/>
<line x1="103.845" y1="868.125" x2="447.998" y2="868.125" stroke="black"/>
<line x1="103.845" y1="1302.76" x2="447.998" y2="1302.76" stroke="black"/>
<line x1="380.174" y1="359.643" x2="380.174" y2="1703.58" stroke="black"/>
<line x1="182.791" y1="359.643" x2="182.791" y2="1703.58" stroke="black"/>
<line y1="-0.5" x2="122.227" y2="-0.5" transform="matrix(-0.848849 0.528635 -0.451005 -0.892521 103.845 428.271)" stroke="black"/>
<line y1="-0.5" x2="122.227" y2="-0.5" transform="matrix(-0.848849 0.528635 -0.451005 -0.892521 103.845 720.434)" stroke="black"/>
<line y1="-0.5" x2="122.227" y2="-0.5" transform="matrix(-0.848849 0.528635 -0.451005 -0.892521 103.845 1012.6)" stroke="black"/>
<line y1="-0.5" x2="122.227" y2="-0.5" transform="matrix(-0.848849 0.528635 -0.451005 -0.892521 103.845 1300.4)" stroke="black"/>
<line y1="-0.5" x2="122.227" y2="-0.5" transform="matrix(-0.848849 0.528635 -0.451005 -0.892521 103.845 571.242)" stroke="black"/>
<line y1="-0.5" x2="122.227" y2="-0.5" transform="matrix(-0.848849 0.528635 -0.451005 -0.892521 103.845 866.516)" stroke="black"/>
<line y1="-0.5" x2="122.227" y2="-0.5" transform="matrix(-0.848849 0.528635 -0.451005 -0.892521 103.845 1154.57)" stroke="black"/>
<line y1="-0.5" x2="122.227" y2="-0.5" transform="matrix(-0.848849 0.528635 -0.451005 -0.892521 103.845 1450.85)" stroke="black"/>
<line y1="-0.5" x2="122.227" y2="-0.5" transform="matrix(-0.848849 0.528635 -0.451005 -0.892521 103.845 1594.92)" stroke="black"/>
<line y1="-0.5" x2="74.4923" y2="-0.5" transform="matrix(-0.849262 0.527972 -0.45038 -0.892837 103.845 1669.97)" stroke="black"/>
<line y1="-0.5" x2="122.227" y2="-0.5" transform="matrix(-0.848849 0.528635 -0.451005 -0.892521 103.845 501.311)" stroke="black"/>
<line y1="-0.5" x2="122.227" y2="-0.5" transform="matrix(-0.848849 0.528635 -0.451005 -0.892521 103.845 793.477)" stroke="black"/>
<line y1="-0.5" x2="122.227" y2="-0.5" transform="matrix(-0.848849 0.528635 -0.451005 -0.892521 103.845 1083.08)" stroke="black"/>
<line y1="-0.5" x2="122.227" y2="-0.5" transform="matrix(-0.848849 0.528635 -0.451005 -0.892521 103.845 1374.74)" stroke="black"/>
<line y1="-0.5" x2="122.227" y2="-0.5" transform="matrix(-0.848849 0.528635 -0.451005 -0.892521 103.845 647.395)" stroke="black"/>
<line y1="-0.5" x2="122.227" y2="-0.5" transform="matrix(-0.848849 0.528635 -0.451005 -0.892521 103.845 939.555)" stroke="black"/>
<line y1="-0.5" x2="122.227" y2="-0.5" transform="matrix(-0.848849 0.528635 -0.451005 -0.892521 103.845 1228.91)" stroke="black"/>
<line y1="-0.5" x2="122.227" y2="-0.5" transform="matrix(-0.848849 0.528635 -0.451005 -0.892521 103.845 1523.89)" stroke="black"/>
<line x1="414.264" y1="309.473" x2="145.494" y2="309.473" stroke="black"/>
<line x1="414.264" y1="267.615" x2="145.494" y2="267.615" stroke="black"/>
<line x1="414.264" y1="225.758" x2="145.494" y2="225.758" stroke="black"/>
<line x1="414.264" y1="183.9" x2="145.494" y2="183.9" stroke="black"/>
<line x1="414.264" y1="142.043" x2="204.976" y2="142.043" stroke="black"/>
<line x1="414.264" y1="100.186" x2="266.661" y2="100.186" stroke="black"/>
<line x1="414.264" y1="58.3281" x2="328.346" y2="58.3281" stroke="black"/>
<line x1="414.264" y1="16.4707" x2="390.03" y2="16.4707" stroke="black"/>
<line x1="414.26" y1="289.646" x2="145.49" y2="287.443" stroke="black"/>
<line x1="414.26" y1="247.789" x2="145.49" y2="245.586" stroke="black"/>
<line x1="414.26" y1="205.932" x2="145.49" y2="203.729" stroke="black"/>
<line x1="414.264" y1="164.072" x2="174.134" y2="164.072" stroke="black"/>
<line x1="414.264" y1="120.014" x2="238.021" y2="120.014" stroke="black"/>
<line y1="-0.5" x2="116.781" y2="-0.5" transform="matrix(-0.999822 -0.0188648 0.00356089 -0.999994 414.264 79.8594)" stroke="black"/>
<line x1="414.264" y1="38.502" x2="356.985" y2="38.502" stroke="black"/>
</svg>
