<svg width="519" height="1466" viewBox="0 0 519 1466" fill="none" xmlns="http://www.w3.org/2000/svg">
<path d="M516.23 1018.33V159.848C516.22 131.12 524.379 94.4953 495 72.5C465.621 50.5047 439.761 48.7026 402.5 47C365.239 45.2974 275.286 44.8343 177.788 31.8687C80.2893 18.9031 0.72168 0.535156 0.72168 0.535156V1018.33H516.23Z" fill="#55975D"/>
<path d="M0.722656 1.63672C0.722656 1.63672 26.0575 21.464 163.747 36.8852C250.656 46.619 369.164 55.0363 444.754 59.921C486.114 62.5937 518.434 96.8457 518.434 138.292V1465.55H5.12871L0.722656 1.63672Z" fill="#71C57B"/>
<line x1="5.12988" y1="156.654" x2="500.811" y2="156.654" stroke="white" stroke-width="5"/>
<line x1="5.12988" y1="245.402" x2="518.436" y2="245.402" stroke="white" stroke-width="5"/>
<line x1="5.12988" y1="413.082" x2="518.436" y2="413.082" stroke="white" stroke-width="5"/>
<line x1="5.12988" y1="562.127" x2="518.436" y2="562.127" stroke="white" stroke-width="5"/>
<line x1="5.12988" y1="713.836" x2="518.436" y2="713.836" stroke="white" stroke-width="5"/>
<line x1="5.12988" y1="854.896" x2="518.436" y2="854.896" stroke="white" stroke-width="5"/>
<line x1="5.12988" y1="990.639" x2="518.436" y2="990.639" stroke="white" stroke-width="5"/>
<line x1="5.12988" y1="1126.38" x2="518.436" y2="1126.38" stroke="white" stroke-width="5"/>
<line x1="5.12988" y1="277.34" x2="518.436" y2="277.34" stroke="white" stroke-width="5"/>
<line x1="5.12988" y1="445.02" x2="518.436" y2="445.02" stroke="white" stroke-width="5"/>
<line x1="5.12988" y1="594.066" x2="518.436" y2="594.066" stroke="white" stroke-width="5"/>
<line x1="5.12988" y1="745.771" x2="518.436" y2="745.771" stroke="white" stroke-width="5"/>
<line x1="5.12988" y1="886.838" x2="518.436" y2="886.838" stroke="white" stroke-width="5"/>
<line x1="5.12988" y1="1022.58" x2="518.436" y2="1022.58" stroke="white" stroke-width="5"/>
<line x1="5.12988" y1="1158.32" x2="518.436" y2="1158.32" stroke="white" stroke-width="5"/>
<line x1="5.12988" y1="1266.98" x2="518.436" y2="1266.98" stroke="white" stroke-width="5"/>
<line x1="406.704" y1="154.748" x2="406.704" y2="1267.28" stroke="white" stroke-width="3"/>
<line x1="301.028" y1="154.748" x2="301.028" y2="1267.28" stroke="white" stroke-width="3"/>
<line x1="195.345" y1="154.748" x2="195.345" y2="1267.28" stroke="white" stroke-width="3"/>
<line x1="89.6641" y1="154.748" x2="89.6641" y2="1267.28" stroke="white" stroke-width="3"/>
</svg>
