<svg width="346" height="1374" viewBox="0 0 346 1374" fill="none" xmlns="http://www.w3.org/2000/svg">
<path d="M235.688 0.453125H219.961V584.039H235.688V0.453125Z" fill="#55975D"/>
<path d="M300.389 1373.76V549.001L219.529 468.155V2.67969L159.494 62.704V124.021L0 283.487V1373.76H300.389Z" fill="#71C57B"/>
<path d="M235.688 606.367H219.961V1373.76H235.688V606.367Z" fill="#55975D"/>
<path d="M345.92 1373.76V606.37L300.391 549.002V1373.76H345.92Z" fill="#55975D"/>
<path d="M28.6548 326.502H39.6699V308.878H28.6548V326.502Z" fill="white"/>
<path d="M28.6548 383.781H39.6699V366.157H28.6548V383.781Z" fill="white"/>
<path d="M28.6548 441.059H39.6699V423.434H28.6548V441.059Z" fill="white"/>
<path d="M28.6548 498.338H39.6699V480.714H28.6548V498.338Z" fill="white"/>
<path d="M28.6548 555.617H39.6699V537.993H28.6548V555.617Z" fill="white"/>
<path d="M28.6548 612.896H39.6699V595.272H28.6548V612.896Z" fill="white"/>
<path d="M28.6548 670.174H39.6699V652.55H28.6548V670.174Z" fill="white"/>
<path d="M28.6548 727.453H39.6699V709.829H28.6548V727.453Z" fill="white"/>
<path d="M28.6548 784.73H39.6699V767.106H28.6548V784.73Z" fill="white"/>
<path d="M28.6548 842.01H39.6699V824.386H28.6548V842.01Z" fill="white"/>
<path d="M28.6548 899.289H39.6699V881.665H28.6548V899.289Z" fill="white"/>
<path d="M28.6548 956.568H39.6699V938.944H28.6548V956.568Z" fill="white"/>
<path d="M28.6548 1013.85H39.6699V996.223H28.6548V1013.85Z" fill="white"/>
<path d="M28.6548 1071.12H39.6699V1053.5H28.6548V1071.12Z" fill="white"/>
<path d="M28.6548 1128.4H39.6699V1110.78H28.6548V1128.4Z" fill="white"/>
<path d="M28.6548 1185.68H39.6699V1168.06H28.6548V1185.68Z" fill="white"/>
<path d="M28.6548 1242.96H39.6699V1225.34H28.6548V1242.96Z" fill="white"/>
<path d="M66.106 326.502H77.1211V308.878H66.106V326.502Z" fill="white"/>
<path d="M66.106 326.502H77.1211V308.878H66.106V326.502Z" fill="white"/>
<path d="M66.106 383.781H77.1211V366.157H66.106V383.781Z" fill="white"/>
<path d="M66.106 441.059H77.1211V423.434H66.106V441.059Z" fill="white"/>
<path d="M66.106 498.338H77.1211V480.714H66.106V498.338Z" fill="white"/>
<path d="M66.106 555.617H77.1211V537.993H66.106V555.617Z" fill="white"/>
<path d="M66.106 612.896H77.1211V595.272H66.106V612.896Z" fill="white"/>
<path d="M66.106 670.174H77.1211V652.55H66.106V670.174Z" fill="white"/>
<path d="M66.106 727.453H77.1211V709.829H66.106V727.453Z" fill="white"/>
<path d="M66.106 784.73H77.1211V767.106H66.106V784.73Z" fill="white"/>
<path d="M66.106 842.01H77.1211V824.386H66.106V842.01Z" fill="white"/>
<path d="M66.106 899.289H77.1211V881.665H66.106V899.289Z" fill="white"/>
<path d="M66.106 956.568H77.1211V938.944H66.106V956.568Z" fill="white"/>
<path d="M66.106 1013.85H77.1211V996.223H66.106V1013.85Z" fill="white"/>
<path d="M66.106 1071.12H77.1211V1053.5H66.106V1071.12Z" fill="white"/>
<path d="M66.106 1128.4H77.1211V1110.78H66.106V1128.4Z" fill="white"/>
<path d="M66.106 1185.68H77.1211V1168.06H66.106V1185.68Z" fill="white"/>
<path d="M66.106 1242.96H77.1211V1225.34H66.106V1242.96Z" fill="white"/>
<path d="M103.557 326.502H114.572V308.878H103.557V326.502Z" fill="white"/>
<path d="M103.557 383.781H114.572V366.157H103.557V383.781Z" fill="white"/>
<path d="M103.557 441.059H114.572V423.434H103.557V441.059Z" fill="white"/>
<path d="M103.557 498.338H114.572V480.714H103.557V498.338Z" fill="white"/>
<path d="M103.557 555.617H114.572V537.993H103.557V555.617Z" fill="white"/>
<path d="M103.557 612.896H114.572V595.272H103.557V612.896Z" fill="white"/>
<path d="M103.557 670.174H114.572V652.55H103.557V670.174Z" fill="white"/>
<path d="M103.557 727.453H114.572V709.829H103.557V727.453Z" fill="white"/>
<path d="M103.557 784.73H114.572V767.106H103.557V784.73Z" fill="white"/>
<path d="M103.557 842.01H114.572V824.386H103.557V842.01Z" fill="white"/>
<path d="M103.557 899.289H114.572V881.665H103.557V899.289Z" fill="white"/>
<path d="M103.557 956.568H114.572V938.944H103.557V956.568Z" fill="white"/>
<path d="M103.557 1013.85H114.572V996.223H103.557V1013.85Z" fill="white"/>
<path d="M103.557 1071.12H114.572V1053.5H103.557V1071.12Z" fill="white"/>
<path d="M103.557 1128.4H114.572V1110.78H103.557V1128.4Z" fill="white"/>
<path d="M103.557 1185.68H114.572V1168.06H103.557V1185.68Z" fill="white"/>
<path d="M103.557 1242.96H114.572V1225.34H103.557V1242.96Z" fill="white"/>
<path d="M141.009 326.502H152.024V308.878H141.009V326.502Z" fill="white"/>
<path d="M141.009 383.781H152.024V366.157H141.009V383.781Z" fill="white"/>
<path d="M141.009 441.059H152.024V423.434H141.009V441.059Z" fill="white"/>
<path d="M141.009 498.338H152.024V480.714H141.009V498.338Z" fill="white"/>
<path d="M141.009 555.617H152.024V537.993H141.009V555.617Z" fill="white"/>
<path d="M141.009 612.896H152.024V595.272H141.009V612.896Z" fill="white"/>
<path d="M141.009 670.174H152.024V652.55H141.009V670.174Z" fill="white"/>
<path d="M141.009 727.453H152.024V709.829H141.009V727.453Z" fill="white"/>
<path d="M141.009 784.73H152.024V767.106H141.009V784.73Z" fill="white"/>
<path d="M141.009 842.01H152.024V824.386H141.009V842.01Z" fill="white"/>
<path d="M141.009 899.289H152.024V881.665H141.009V899.289Z" fill="white"/>
<path d="M141.009 956.568H152.024V938.944H141.009V956.568Z" fill="white"/>
<path d="M141.009 1013.85H152.024V996.223H141.009V1013.85Z" fill="white"/>
<path d="M141.009 1071.12H152.024V1053.5H141.009V1071.12Z" fill="white"/>
<path d="M141.009 1128.4H152.024V1110.78H141.009V1128.4Z" fill="white"/>
<path d="M141.009 1185.68H152.024V1168.06H141.009V1185.68Z" fill="white"/>
<path d="M141.009 1242.96H152.024V1225.34H141.009V1242.96Z" fill="white"/>
<path d="M178.46 326.502H189.475V308.878H178.46V326.502Z" fill="white"/>
<path d="M178.46 383.781H189.475V366.157H178.46V383.781Z" fill="white"/>
<path d="M178.46 441.059H189.475V423.434H178.46V441.059Z" fill="white"/>
<path d="M178.46 498.338H189.475V480.714H178.46V498.338Z" fill="white"/>
<path d="M178.46 555.617H189.475V537.993H178.46V555.617Z" fill="white"/>
<path d="M178.46 612.896H189.475V595.272H178.46V612.896Z" fill="white"/>
<path d="M178.46 670.174H189.475V652.55H178.46V670.174Z" fill="white"/>
<path d="M178.46 727.453H189.475V709.829H178.46V727.453Z" fill="white"/>
<path d="M178.46 784.73H189.475V767.106H178.46V784.73Z" fill="white"/>
<path d="M178.46 842.01H189.475V824.386H178.46V842.01Z" fill="white"/>
<path d="M178.46 899.289H189.475V881.665H178.46V899.289Z" fill="white"/>
<path d="M178.46 956.568H189.475V938.944H178.46V956.568Z" fill="white"/>
<path d="M178.46 1013.85H189.475V996.223H178.46V1013.85Z" fill="white"/>
<path d="M178.46 1071.12H189.475V1053.5H178.46V1071.12Z" fill="white"/>
<path d="M178.46 1128.4H189.475V1110.78H178.46V1128.4Z" fill="white"/>
<path d="M178.46 1185.68H189.475V1168.06H178.46V1185.68Z" fill="white"/>
<path d="M178.46 1242.96H189.475V1225.34H178.46V1242.96Z" fill="white"/>
</svg>
