<svg width="344" height="1305" viewBox="0 0 344 1305" fill="none" xmlns="http://www.w3.org/2000/svg">
<path d="M2.57002 620.508C21.9567 299.747 125.94 73.4226 175.508 0.355469C217.366 69.7509 329.172 324.521 342.938 620.508C351.751 809.968 294.593 1135.65 270.727 1304.55H109.906C85.3057 1210.19 -16.8166 941.269 2.57002 620.508Z" fill="#B9A500"/>
<path d="M66.2566 740.987C64.4944 489.517 143.353 264.991 178.597 192.02C201.726 266.113 277.718 485.027 277.718 740.987C277.718 996.948 263.771 1185.92 242.11 1304.55H134.541C99.2968 1213.62 68.4593 1055.32 66.2566 740.987Z" fill="#F3DD28"/>
<path d="M143.334 282.342L207.222 282.342" stroke="black" stroke-width="3"/>
<line x1="108.085" y1="397.602" x2="235.861" y2="397.602" stroke="black" stroke-width="3"/>
<line x1="85.9199" y1="512.16" x2="255.553" y2="512.16" stroke="black" stroke-width="3"/>
<line x1="70.4995" y1="626.717" x2="270.975" y2="626.717" stroke="black" stroke-width="3"/>
<line x1="63.8896" y1="741.275" x2="277.583" y2="741.275" stroke="black" stroke-width="3"/>
<line x1="66.0933" y1="855.834" x2="275.381" y2="855.834" stroke="black" stroke-width="3"/>
<line x1="72.7012" y1="970.391" x2="273.177" y2="970.391" stroke="black" stroke-width="3"/>
<line x1="83.7183" y1="1084.95" x2="266.57" y2="1084.95" stroke="black" stroke-width="3"/>
<line x1="103.544" y1="1199.5" x2="255.553" y2="1199.5" stroke="black" stroke-width="3"/>
<line x1="132.32" y1="313.887" x2="216.035" y2="313.887" stroke="black" stroke-width="3"/>
<line x1="101.477" y1="428.445" x2="244.674" y2="428.445" stroke="black" stroke-width="3"/>
<line x1="81.5146" y1="543.002" x2="262.163" y2="543.002" stroke="black" stroke-width="3"/>
<line x1="68.2959" y1="657.559" x2="273.178" y2="657.559" stroke="black" stroke-width="3"/>
<line x1="66.0933" y1="772.117" x2="277.584" y2="772.117" stroke="black" stroke-width="3"/>
<line x1="68.2959" y1="886.674" x2="275.381" y2="886.674" stroke="black" stroke-width="3"/>
<line x1="74.9038" y1="1001.23" x2="270.973" y2="1001.23" stroke="black" stroke-width="3"/>
<line x1="88.1226" y1="1115.79" x2="264.365" y2="1115.79" stroke="black" stroke-width="3"/>
<line x1="110.154" y1="1230.35" x2="253.351" y2="1230.35" stroke="black" stroke-width="3"/>
</svg>
