<svg width="3961" height="1987" viewBox="0 0 3961 1987" fill="none" xmlns="http://www.w3.org/2000/svg">
<path d="M3178.83 390.055L3957.47 315.818V554.556L3724.64 561.305L3828.4 503.097L3005.05 590.831L2028.16 695.437L1543.1 723.276L271.795 787.389L1406.43 561.305L3178.83 390.055Z" fill="#3E382A"/>
<path d="M3949.03 1970.95L3960 399.334C3264.88 628.117 1036.94 755.332 15.3408 790.763V1970.95H3949.03Z" fill="#060602" stroke="black"/>
<path d="M10.2793 1051.43L170.563 983.103C214.43 972.699 320.554 967.412 394.116 1029.5H441.357C486.911 983.947 603.497 900.768 705.403 932.488C807.31 964.207 827.725 1010.38 825.194 1029.5L705.403 1975.17H10.2793V1192.32V1051.43Z" fill="#79951E"/>
<path d="M981.259 1975.17L895.212 1118.08C861.75 1077.02 821.651 982.429 928.956 932.488C1036.26 882.546 1137.32 892.557 1174.44 903.805L1602.15 1102.05C1617.37 1102.71 1646.39 1105.22 1689.88 1110.43L1283.27 938.393C1299.58 906.898 1359.19 843.066 1467.17 839.692C1575.15 836.317 1633.08 859.657 1648.54 871.748C1670.2 848.69 1741 797.512 1851.01 777.266C1961.01 757.02 2026.76 779.516 2045.88 793.294C2060.5 774.173 2126.53 733.23 2273.65 722.432C2299.36 720.545 2352.23 720.623 2424.65 722.187C2477.24 703.147 2594.55 665.068 2643.15 665.068C2651.34 665.068 2682.27 665.324 2730.04 665.771C2818.05 649.508 3028.67 615.464 3167.02 609.39C3200.37 607.926 3251.57 607.021 3312.96 606.526C3372.01 585.266 3535.16 540.89 3715.36 533.467H3956.63V609.39V678.565V793.294V938.393V1221V1701.85V1984.45L981.259 1975.17Z" fill="#79951E"/>
<path d="M394.116 1029.5C320.554 967.412 214.43 972.699 170.563 983.103L10.2793 1051.43V1192.32M394.116 1029.5L10.2793 1192.32M394.116 1029.5H441.357C486.911 983.947 603.497 900.768 705.403 932.488C807.31 964.207 827.725 1010.38 825.194 1029.5L705.403 1975.17H10.2793V1192.32M3956.63 1701.85C3472.96 1551.69 2428.87 1237.03 2121.8 1179.66C1917.98 1141.58 1775.73 1120.73 1689.88 1110.43M3956.63 1701.85V1984.45L981.259 1975.17L895.212 1118.08C861.75 1077.02 821.651 982.429 928.956 932.488C1036.26 882.546 1137.32 892.557 1174.44 903.805L1602.15 1102.05C1617.37 1102.71 1646.39 1105.22 1689.88 1110.43M3956.63 1701.85V1221M1689.88 1110.43L1283.27 938.393C1299.58 906.898 1359.19 843.066 1467.17 839.692C1575.15 836.317 1633.08 859.657 1648.54 871.748M1648.54 871.748L3956.63 1221M1648.54 871.748C1670.2 848.69 1741 797.512 1851.01 777.266C1961.01 757.02 2026.76 779.516 2045.88 793.294M3956.63 1221V938.393M2045.88 793.294L3956.63 938.393M2045.88 793.294C2060.5 774.173 2126.53 733.23 2273.65 722.432C2299.36 720.545 2352.23 720.623 2424.65 722.187M3956.63 938.393V793.294M3956.63 793.294C3544.27 770.089 2766.58 729.573 2424.65 722.187M3956.63 793.294V678.565M2424.65 722.187C2477.24 703.147 2594.55 665.068 2643.14 665.068C2651.34 665.068 2682.27 665.324 2730.04 665.771M3956.63 678.565C3609.49 674.825 2965.39 667.976 2730.04 665.771M3956.63 678.565V609.39M2730.04 665.771C2818.05 649.508 3028.67 615.464 3167.02 609.39C3200.37 607.926 3251.57 607.021 3312.96 606.526M3956.63 609.39C3800.61 607.47 3506.27 604.966 3312.96 606.526M3956.63 609.39V533.467C3921.76 533.467 3824.69 533.467 3715.36 533.467C3535.16 540.89 3372.01 585.266 3312.96 606.526" stroke="black" stroke-width="5"/>
<path d="M70.1749 1014.02L6.06152 1019.92V804.805L785.545 760.938L1202.28 736.473L1538.88 718.758C1609.18 715.664 1755.51 707.285 1778.46 698.511C1807.14 687.545 2084.68 678.265 2095.65 669.829C2106.62 661.393 2313.3 661.393 2373.19 649.583C2433.09 637.772 2659.17 618.37 2698.82 612.464C2738.47 606.559 2856.58 602.341 2895.38 591.375C2934.19 580.408 3065.79 577.877 3078.44 566.91C3091.09 555.944 3221.85 548.351 3239.57 539.072C3257.28 529.792 3350.08 523.887 3409.97 513.764C3457.89 505.666 3536.23 496.33 3569.41 492.674C3578.69 489.862 3605.35 482.888 3637.75 477.489C3678.24 470.74 3796.34 463.992 3826.71 466.523C3857.08 469.053 3879.86 496.048 3890.82 513.764C3899.6 527.936 3851.74 542.727 3826.71 548.351C3525.83 586.032 2922.71 661.393 2917.31 661.393C2911.92 661.393 2714.85 672.641 2616.99 678.265C2548.66 692.888 2392.26 721.457 2313.3 718.758C2234.34 716.058 2077.37 753.626 2008.76 772.748C1958.14 770.78 1847.3 768.024 1808.83 772.748C1770.36 777.472 1683.69 820.27 1645.17 841.079C1591.46 837.142 1466.16 831.631 1394.62 841.079C1323.08 850.527 1281.02 906.88 1268.93 933.875C1220.28 912.785 1105.77 873.136 1036.94 883.259C950.89 895.913 866.53 972.68 815.914 972.68C765.299 972.68 610.077 924.595 544.276 951.59C491.636 973.186 444.732 1016.27 427.86 1035.11C414.081 1028.08 357.167 1005.75 239.738 972.68C122.309 939.611 77.7673 986.459 70.1749 1014.02Z" fill="#799004" stroke="black"/>
<path d="M2142.89 260.985C2135.46 235.339 833.906 607.984 184.056 797.512H6.90039V606.859V130.228L637.074 89.7346L1690.72 26.4648L1921.86 46.7112H2142.89C2141.2 143.162 2150.31 286.63 2142.89 260.985Z" fill="#5D4E2E" stroke="black"/>
<path d="M178.155 796.471L118.26 760.197H32.2129C52.178 743.043 102.906 705.869 146.098 694.396C164.99 689.378 236.966 675.785 324.941 659.843L579.707 577.137L982.103 505.431C993.632 492.214 1046.05 460.889 1163.48 441.318C1196.63 435.792 1245.84 430.496 1302.67 425.606C1323.2 407.504 1398.33 369.611 1534.66 362.863C1635.89 362.863 1696.63 352.177 1714.35 346.834C1738.53 335.586 1802.59 312.078 1865.35 308.029C1866.76 307.938 1868.24 307.855 1869.78 307.78C1877.38 300.821 1896.81 285.819 1945.49 263.318C1970.24 251.508 2031.2 222.825 2077.09 202.579C2088.34 196.955 2110.33 181.826 2108.3 166.304C2108.23 165.747 2108.27 165.207 2108.41 164.682C2108.88 154.352 2106.15 135.555 2091.43 131.717C2088.23 130.881 2087.28 129.449 2088.27 127.654C2080.02 117.592 2065.25 103.034 2053.47 103.034C2022.26 105.284 1963.88 105.902 1980.08 90.3804C1955.33 75.1956 1913.77 44.3199 1945.49 42.2953C1985.14 39.7645 2180.01 41.4517 2299.8 35.5465C2419.59 29.6413 2785.71 42.2953 2858.26 42.2953C2930.81 42.2953 3153.52 52.4185 3401.54 37.2338C3649.56 22.0491 3949.88 -15.0692 3955.78 11.0823C3959.94 29.4887 3957.43 52.292 3955.05 64.785C3954.83 66.2229 3954.51 67.7242 3954.09 69.2907C3960.84 82.7882 3956.91 100.222 3954.09 107.252C3955.44 117.376 3955.78 143.527 3955.78 155.337L3954.09 193.299C3955.44 217.595 3955.78 230.417 3955.78 233.792L3954.09 302.967C3956.63 330.806 3948.19 373.83 3866.36 338.398C3917.65 366.743 3872.55 390.701 3843.58 399.137L3215.95 441.318C3213.14 455.94 3195.7 480.798 3148.46 463.251C3162.63 490.246 3088 496.995 3048.92 496.995C2904.78 503.282 2616.27 517.315 2615.31 523.146C2615.31 543.393 2590.56 549.579 2578.19 550.142L2019.75 589.851C2002.94 608.281 1732.12 638.298 1594.55 651.373L1475.45 663.549C1475.5 663.708 1475.56 663.867 1475.61 664.027C1475.51 663.769 1474.89 663.672 1473.8 663.718L1470.78 664.027C1452.09 666.629 1383.87 684.489 1347.38 694.396L559.461 760.197L178.155 796.471Z" fill="#74890D"/>
<path d="M118.26 760.197L178.155 796.471L559.461 760.197L1347.38 694.396C1383.87 684.489 1452.09 666.629 1470.78 664.027M118.26 760.197C194.465 745.293 371.676 711.268 470.883 694.396C570.09 677.524 1131.98 631.689 1400.53 610.88C1420.77 613.692 1464.13 628.258 1475.61 664.027C1475.45 663.585 1473.73 663.615 1470.78 664.027M118.26 760.197C126.696 745.293 154.872 711.268 200.089 694.396C256.61 673.306 874.123 610.88 880.871 610.88C886.27 610.88 1499.51 563.639 1805.45 540.018C1871.25 534.956 2006.4 537.487 2020.57 588.103C2020.57 588.673 2020.29 589.256 2019.75 589.851M118.26 760.197H32.2129C52.178 743.043 102.906 705.869 146.098 694.396C164.99 689.378 236.966 675.785 324.941 659.843M1470.78 664.027L1594.55 651.373C1732.12 638.298 2002.94 608.281 2019.75 589.851M2615.31 523.146C2587.64 482.654 2498.61 479.279 2457.55 482.654L2222.19 496.995L1607.21 505.431L664.911 599.913C577.739 614.943 438.104 639.337 324.941 659.843M2615.31 523.146C2615.31 543.393 2590.56 549.579 2578.19 550.142L2019.75 589.851M2615.31 523.146C2616.27 517.315 2904.78 503.282 3048.92 496.995C3088 496.995 3162.63 490.246 3148.46 463.251M324.941 659.843L579.707 577.137L982.103 505.431M982.103 505.431L2061.91 441.318C2206.44 450.035 2551.36 462.239 2774.75 441.318C3053.98 415.166 3113.03 403.356 3148.46 463.251M982.103 505.431C993.632 492.214 1046.05 460.889 1163.48 441.318C1196.63 435.792 1245.84 430.496 1302.67 425.606M3148.46 463.251C3195.7 480.798 3213.14 455.94 3215.95 441.318M3215.95 441.318C3215.39 432.038 3205.32 410.61 3169.55 399.137C3124.84 384.796 3018.55 381.422 2832.95 399.137C2684.48 413.31 2491.02 405.043 2412.84 399.137H2124.33H1744.71C1640.78 403.376 1447.13 413.175 1302.67 425.606M3215.95 441.318L3843.58 399.137C3872.55 390.701 3917.65 366.743 3866.36 338.398M1302.67 425.606C1323.2 407.503 1398.33 369.611 1534.66 362.863C1635.89 362.863 1696.63 352.177 1714.35 346.834M1714.35 346.834C1889.81 352.177 2287.32 362.863 2473.58 362.863C2706.41 362.863 3177.99 366.237 3300.31 346.834C3422.63 327.432 3802.25 302.967 3866.36 338.398M1714.35 346.834C1738.53 335.586 1802.59 312.078 1865.35 308.029M3866.36 338.398C3948.19 373.83 3956.63 330.806 3954.09 302.967M1865.35 308.029C1943.8 302.967 2225.56 324.057 2412.84 320.683C2562.67 317.983 2907.19 325.182 3060.73 329.118C3171.8 329.4 3428.2 324.563 3565.2 302.967C3736.45 275.972 3940.28 276.872 3954.09 302.967M1865.35 308.029C1865.35 320.683 1856.07 304.654 1945.49 263.318M3954.09 302.967L3955.78 233.792M1945.49 263.318C2034.91 221.982 2343.67 247.29 2364.76 248.977C2385.85 250.664 3069.16 288.626 3456.37 259.943C3766.14 236.998 3920.91 236.885 3955.78 233.792M1945.49 263.318C1970.24 251.508 2031.2 222.825 2077.09 202.579M3955.78 233.792C3955.78 230.417 3955.44 217.595 3954.09 193.299M2077.09 202.579C2134.46 177.271 2483.71 205.953 2666.77 223.669C2849.83 241.384 3429.38 238.01 3506.14 223.669C3582.91 209.327 3952.41 162.929 3954.09 193.299M2077.09 202.579C2088.34 196.955 2110.33 181.826 2108.3 166.304M3954.09 193.299L3955.78 155.337M2108.3 166.304C2106.28 150.782 2189.57 148.026 2231.47 148.588C2407.5 161.242 2783.69 186.55 2880.2 186.55C3000.83 186.55 3810.68 168.835 3866.36 146.058C3910.9 127.836 3944.53 144.652 3955.78 155.337M2108.3 166.304C2109.15 156.462 2106.96 135.766 2091.43 131.717M3955.78 155.337C3955.78 143.527 3955.44 117.376 3954.09 107.252M2091.43 131.717C2072.03 126.655 2135.3 99.6601 2211.22 103.034C2287.15 106.409 2947.68 155.337 3036.26 155.337C3124.84 155.337 3786.22 122.437 3835.99 119.906C3885.76 117.376 3952.41 94.5984 3954.09 107.252M2091.43 131.717C2084.4 122.156 2066.97 103.034 2053.47 103.034M3954.09 107.252C3956.91 100.222 3960.84 82.7882 3954.09 69.2907M2053.47 103.034C2039.97 103.034 2053.47 94.5984 2061.91 90.3804C2097.34 82.7881 2190.13 70.4715 2277.87 81.9445C2387.54 96.2856 2692.07 103.034 2930.81 103.034C3169.55 103.034 3653.77 96.2858 3725.48 86.1626C3797.19 76.0394 3945.66 52.4187 3954.09 69.2907M2053.47 103.034C2022.26 105.284 1963.88 105.902 1980.08 90.3804M3954.09 69.2907C3965.91 24.5803 3899.26 33.0158 3786.22 49.8877C3673.18 66.7596 3433.6 71.8215 3331.52 71.8215C3229.45 71.8215 2743.53 76.883 2602.65 71.8215C2461.77 66.7599 2239.91 50.7315 2134.46 52.4187C2029.01 54.1059 2000.32 70.9779 1980.08 90.3804M3954.09 69.2907C3956.63 58.605 3960.51 32.0035 3955.78 11.0823C3949.88 -15.0692 3649.56 22.0491 3401.54 37.2338C3153.52 52.4185 2930.81 42.2953 2858.26 42.2953C2785.71 42.2953 2419.59 29.6413 2299.8 35.5465C2180.01 41.4517 1985.14 39.7645 1945.49 42.2953C1913.77 44.3199 1955.33 75.1956 1980.08 90.3804" stroke="black" stroke-width="3"/>
<path d="M83.6726 687.943C101.894 726.411 40.0868 744.464 6.90527 748.682V650.825V570.683V488.01C22.8753 485.403 61.3591 482.191 121.634 482.053C163.533 468.572 259.141 439.756 306.382 432.333C330.565 420.522 388.548 396.395 427.017 394.371L455.699 378.342C480.163 365.688 533.31 340.718 550.182 342.068C566.772 333.07 608.727 312.036 643.821 299.888C675.034 285.266 744.04 256.359 770.36 257.709C777.672 246.742 805.117 222.952 856.407 215.529C883.121 209.342 945.491 194.607 981.26 185.159C999.538 176.723 1046.72 158.332 1089.24 152.258C1110.89 145.228 1165.33 129.65 1209.87 123.576C1214.09 114.859 1240.41 97.9307 1311.95 99.9554C1324.6 92.6441 1363.75 78.8652 1419.09 82.2396C1434.83 74.6473 1483.2 60.3062 1550.69 63.6806C1573.75 55.0248 1628.8 41.2195 1664.57 55.2449C1698.32 55.2449 1801.24 56.0884 1829.07 63.6806C1851.35 69.7545 1856.91 83.0835 1856.91 88.9888C1880.08 97.3557 1897.42 114.06 1904.1 122.419C1904.47 122.801 1904.77 123.187 1905 123.576C1918.5 146.522 1910.62 152.258 1905 152.258C1925.24 173.179 1915.27 196.406 1907.75 205.405C1910.08 231.623 1871.24 243.201 1844.81 245.898C1839.63 264.479 1804.51 275.948 1777.62 280.485L1685.66 299.888C1696.46 324.858 1604.68 338.412 1557.44 342.068C1494.67 371.087 1431.18 364.283 1407.28 357.253C1327.64 386.947 1269.49 394.371 1250.37 394.371C1188.95 412.592 1103.3 417.148 1068.15 417.148C998.638 447.517 948.078 473.072 931.487 482.053C903.817 520.562 812.54 530.19 770.36 530.19C736.617 554.486 650.007 555.172 610.921 552.479C602.197 580.546 438.663 613.031 353.624 626.36L83.6726 687.943Z" fill="#5E7406"/>
<path d="M6.90527 650.825C24.902 647.169 65.4509 649.475 83.6726 687.943M6.90527 650.825V748.682C40.0867 744.464 101.894 726.411 83.6726 687.943M6.90527 650.825V570.683M83.6726 687.943L353.624 626.36M6.90527 570.683C41.7739 563.934 134.626 552.461 227.084 560.56C319.542 568.658 349.968 607.801 353.624 626.36M6.90527 570.683V488.01C22.8753 485.403 61.3591 482.191 121.634 482.053M353.624 626.36C438.663 613.031 602.197 580.546 610.921 552.479M121.634 482.053C165.369 481.952 220.576 483.47 286.979 488.01C484.381 501.508 599.11 511.631 610.921 547.905C611.412 549.414 611.399 550.94 610.921 552.479M121.634 482.053C163.533 468.572 259.141 439.756 306.382 432.333M306.382 432.333C365.434 423.053 489.443 450.892 550.182 455.11C610.921 459.328 768.673 455.11 770.36 530.19M306.382 432.333C330.565 420.522 388.549 396.395 427.017 394.371M770.36 530.19C736.617 554.486 650.007 555.172 610.921 552.479M770.36 530.19C812.54 530.19 903.817 520.562 931.487 482.053M427.017 394.371C475.102 391.84 969.449 403.546 931.487 482.053M427.017 394.371L455.699 378.342M931.487 482.053C948.078 473.072 998.638 447.517 1068.15 417.148M455.699 378.342C637.635 358.658 1014.83 338.862 1068.15 417.148M455.699 378.342C480.163 365.688 533.31 340.718 550.182 342.068M1068.15 417.148C1103.3 417.148 1188.95 412.592 1250.37 394.371M550.182 342.068C571.272 343.755 781.327 313.386 931.487 313.386C1081.65 313.386 1229.28 356.409 1250.37 394.371M550.182 342.068C566.772 333.07 608.727 312.036 643.821 299.888M1250.37 394.371C1269.49 394.371 1327.64 386.947 1407.28 357.253M643.821 299.888C687.688 284.703 917.99 272.893 993.07 280.485C1068.15 288.078 1349.07 282.173 1407.28 357.253M643.821 299.888C675.034 285.266 744.04 256.359 770.36 257.709M1407.28 357.253C1431.18 364.283 1494.67 371.087 1557.44 342.068M770.36 257.709C803.261 259.396 1154.2 234.087 1321.23 245.898C1488.26 257.709 1534.66 326.883 1557.44 342.068M770.36 257.709C777.672 246.742 805.117 222.952 856.407 215.529M1557.44 342.068C1604.68 338.412 1696.46 324.858 1685.66 299.888M856.407 215.529C920.521 206.249 1215.78 181.785 1321.23 198.657C1426.68 215.529 1672.17 268.675 1685.66 299.888M856.407 215.529C883.121 209.342 945.491 194.607 981.26 185.159M1685.66 299.888L1777.62 280.485M981.26 185.159C1025.97 173.348 1424.99 169.975 1580.21 198.657C1704.39 221.602 1763.56 262.77 1777.62 280.485M981.26 185.159C999.538 176.723 1046.72 158.332 1089.24 152.258M1777.62 280.485C1804.51 275.948 1839.63 264.479 1844.81 245.898M1089.24 152.258C1142.39 144.666 1693.26 139.605 1802.92 198.657C1838.22 217.662 1848.3 233.391 1844.81 245.898M1089.24 152.258C1110.89 145.228 1165.33 129.65 1209.87 123.576M1209.87 123.576C1265.55 115.984 1822.33 108.392 1887.28 171.661C1900.9 184.929 1906.93 196.091 1907.75 205.405M1209.87 123.576C1214.09 114.859 1240.41 97.9307 1311.95 99.9554M1844.81 245.898C1871.24 243.201 1910.08 231.623 1907.75 205.405M1311.95 99.9554C1383.49 101.98 1599.33 106.423 1698.32 108.391C1758.77 114.296 1884.75 131.337 1905 152.258M1311.95 99.9554C1324.6 92.6441 1363.75 78.8652 1419.09 82.2396M1905 152.258C1925.24 173.179 1915.27 196.406 1907.75 205.405M1905 152.258C1910.62 152.258 1918.5 146.522 1905 123.576M1419.09 82.2396C1488.26 86.4576 1888.13 94.8943 1905 123.576M1419.09 82.2396C1434.83 74.6473 1483.2 60.3062 1550.69 63.6806M1905 123.576C1899.09 115.703 1881.21 97.762 1856.91 88.9888M1550.69 63.6806C1635.05 67.8986 1826.54 78.0222 1856.91 88.9888M1550.69 63.6806C1573.75 55.0248 1628.8 41.2195 1664.57 55.2449C1698.32 55.2449 1801.24 56.0884 1829.07 63.6806C1851.35 69.7545 1856.91 83.0835 1856.91 88.9888" stroke="black"/>
<path d="M1091.77 143.724C966.918 167.345 7.74878 433.078 1 444.888V120.104L1546.47 34.0566C1436.52 62.7389 1191.65 124.828 1091.77 143.724Z" fill="#455603" stroke="black"/>
</svg>
