<svg width="297" height="441" viewBox="0 0 297 441" fill="none" xmlns="http://www.w3.org/2000/svg">
<path d="M0 66.4094H296.767V441H0V66.4094Z" fill="#159DD2"/>
<path d="M32.1671 0H265.638V59.1459H32.1671V0Z" fill="#159DD2"/>
<path d="M22.8282 129.706H72.6353V168.099H22.8282V129.706Z" fill="white"/>
<path d="M22.8282 189.889H72.6353V228.282H22.8282V189.889Z" fill="white"/>
<path d="M22.8282 251.111H72.6353V288.466H22.8282V251.111Z" fill="white"/>
<path d="M22.8282 311.294H72.6353V349.687H22.8282V311.294Z" fill="white"/>
<path d="M90.2753 129.706H140.082V168.099H90.2753V129.706Z" fill="white"/>
<path d="M90.2753 189.889H140.082V228.282H90.2753V189.889Z" fill="white"/>
<path d="M90.2753 251.111H140.082V288.466H90.2753V251.111Z" fill="white"/>
<path d="M90.2753 311.294H140.082V349.687H90.2753V311.294Z" fill="white"/>
<path d="M157.722 129.706H206.492V168.099H157.722V129.706Z" fill="white"/>
<path d="M157.722 189.889H206.492V228.282H157.722V189.889Z" fill="white"/>
<path d="M157.722 251.111H206.492V288.466H157.722V251.111Z" fill="white"/>
<path d="M157.722 311.294H206.492V349.687H157.722V311.294Z" fill="white"/>
<path d="M106.878 367.327H189.889V436.849H106.878V367.327Z" fill="white"/>
<path d="M225.169 129.706H273.939V168.099H225.169V129.706Z" fill="white"/>
<path d="M225.169 189.889H273.939V228.282H225.169V189.889Z" fill="white"/>
<path d="M225.169 251.111H273.939V288.466H225.169V251.111Z" fill="white"/>
<path d="M225.169 311.294H273.939V349.687H225.169V311.294Z" fill="white"/>
<path d="M114.467 13.3566V39.1506H110.975V27.4146H97.0613V39.1506H93.5693V13.3566H97.0613V24.8586H110.975V13.3566H114.467Z" fill="white"/>
<path d="M144.893 26.2626C144.893 28.1946 144.587 29.9706 143.975 31.5906C143.363 33.1986 142.499 34.5846 141.383 35.7486C140.267 36.9126 138.923 37.8186 137.351 38.4666C135.791 39.1026 134.063 39.4206 132.167 39.4206C130.271 39.4206 128.543 39.1026 126.983 38.4666C125.423 37.8186 124.085 36.9126 122.969 35.7486C121.853 34.5846 120.989 33.1986 120.377 31.5906C119.765 29.9706 119.459 28.1946 119.459 26.2626C119.459 24.3306 119.765 22.5606 120.377 20.9526C120.989 19.3326 121.853 17.9406 122.969 16.7766C124.085 15.6006 125.423 14.6886 126.983 14.0406C128.543 13.3926 130.271 13.0686 132.167 13.0686C134.063 13.0686 135.791 13.3926 137.351 14.0406C138.923 14.6886 140.267 15.6006 141.383 16.7766C142.499 17.9406 143.363 19.3326 143.975 20.9526C144.587 22.5606 144.893 24.3306 144.893 26.2626ZM141.311 26.2626C141.311 24.6786 141.095 23.2566 140.663 21.9966C140.231 20.7366 139.619 19.6746 138.827 18.8106C138.035 17.9346 137.075 17.2626 135.947 16.7946C134.819 16.3266 133.559 16.0926 132.167 16.0926C130.787 16.0926 129.533 16.3266 128.405 16.7946C127.277 17.2626 126.311 17.9346 125.507 18.8106C124.715 19.6746 124.103 20.7366 123.671 21.9966C123.239 23.2566 123.023 24.6786 123.023 26.2626C123.023 27.8466 123.239 29.2686 123.671 30.5286C124.103 31.7766 124.715 32.8386 125.507 33.7146C126.311 34.5786 127.277 35.2446 128.405 35.7126C129.533 36.1686 130.787 36.3966 132.167 36.3966C133.559 36.3966 134.819 36.1686 135.947 35.7126C137.075 35.2446 138.035 34.5786 138.827 33.7146C139.619 32.8386 140.231 31.7766 140.663 30.5286C141.095 29.2686 141.311 27.8466 141.311 26.2626Z" fill="white"/>
<path d="M166.171 16.2906H157.819V39.1506H154.345V16.2906H145.975V13.3566H166.171V16.2906Z" fill="white"/>
<path d="M185.911 36.3066L185.893 39.1506H169.999V13.3566H185.893V16.2006H173.491V24.7686H183.535V27.5046H173.491V36.3066H185.911Z" fill="white"/>
<path d="M205.41 36.2166V39.1506H190.776V13.3566H194.25V36.2166H205.41Z" fill="white"/>
</svg>
