<svg width="346" height="446" viewBox="0 0 346 446" fill="none" xmlns="http://www.w3.org/2000/svg">
<path d="M0 173.429C8.3538e-06 77.8729 77.4547 0.40966 173 0.409668C268.545 0.409676 346 77.8729 346 173.429C346 219.239 328.199 260.89 299.138 291.842C267.579 325.455 173 446 173 446C173 446 78.4207 325.455 46.8618 291.842C17.8007 260.89 -4.00479e-06 219.239 0 173.429Z" fill="#159DD2"/>
<path d="M285.424 170.329C285.424 232.42 234.86 282.754 172.486 282.754C110.113 282.754 59.5487 232.42 59.5487 170.329C59.5487 108.239 110.113 57.9052 172.486 57.9052C234.86 57.9052 285.424 108.239 285.424 170.329Z" fill="white"/>
<path d="M248.463 169.816C248.463 211.777 214.447 245.792 172.487 245.792C130.526 245.792 96.5106 211.777 96.5106 169.816C96.5106 127.856 130.526 93.8399 172.487 93.8399C214.447 93.8399 248.463 127.856 248.463 169.816Z" fill="#159DD2"/>
</svg>
