<svg width="417" height="443" viewBox="0 0 417 443" fill="none" xmlns="http://www.w3.org/2000/svg">
<path d="M223.111 362.684C220.32 363.912 217.082 364.694 213.397 365.029L216.245 323.327C218.98 324.22 221.548 325.197 223.949 326.258C226.349 327.262 228.443 328.518 230.229 330.026C232.016 331.477 233.411 333.208 234.416 335.218C235.477 337.227 236.007 339.628 236.007 342.419C236.007 345.546 235.505 348.421 234.5 351.044C233.551 353.612 232.099 355.873 230.145 357.827C228.247 359.781 225.903 361.4 223.111 362.684Z" fill="#159DD2"/>
<path d="M201.171 270.403C203.851 269.287 207.005 268.561 210.634 268.226L208.038 305.993C205.414 305.099 202.986 304.094 200.753 302.978C198.52 301.861 196.566 300.549 194.891 299.042C193.216 297.535 191.904 295.804 190.955 293.85C190.006 291.841 189.532 289.496 189.532 286.816C189.532 284.527 189.95 282.35 190.788 280.284C191.625 278.163 192.909 276.265 194.64 274.59C196.37 272.915 198.548 271.52 201.171 270.403Z" fill="#159DD2"/>
<path fill-rule="evenodd" clip-rule="evenodd" d="M416.445 442.25L208.514 82.1041L0.583984 442.25H416.445ZM229.14 313.027C225.233 311.575 221.269 310.207 217.249 308.923L220.013 268.393C222.748 268.84 225.177 269.51 227.298 270.403C229.475 271.296 231.346 272.218 232.909 273.167C234.528 274.116 235.895 274.953 237.012 275.679C238.184 276.349 239.161 276.684 239.943 276.684C241.394 276.684 242.678 275.846 243.795 274.171L247.396 268.645C244.102 265.351 240.306 262.56 236.007 260.271C231.764 257.982 226.74 256.474 220.934 255.749L222.023 239.252H216.496C215.268 239.252 214.263 239.671 213.481 240.508C212.755 241.345 212.365 242.295 212.309 243.355L211.471 255.414C205.721 255.637 200.613 256.726 196.147 258.68C191.681 260.578 187.913 263.034 184.842 266.049C181.772 269.063 179.427 272.525 177.808 276.432C176.245 280.284 175.463 284.248 175.463 288.323C175.463 293.739 176.357 298.233 178.143 301.806C179.985 305.378 182.386 308.365 185.345 310.766C188.359 313.166 191.737 315.092 195.477 316.544C199.273 317.995 203.125 319.307 207.033 320.479L204.019 364.945C200.222 364.499 196.957 363.633 194.221 362.349C191.541 361.065 189.197 359.753 187.187 358.414C185.233 357.074 183.586 355.873 182.246 354.813C180.906 353.752 179.706 353.222 178.645 353.222C177.864 353.222 177.138 353.417 176.468 353.808C175.798 354.199 175.24 354.701 174.793 355.315L170.271 362.182C174.291 366.369 179.064 369.83 184.591 372.566C190.174 375.245 196.342 376.92 203.097 377.59L201.841 396.431H207.368C208.54 396.431 209.517 396.013 210.299 395.175C211.081 394.394 211.499 393.473 211.555 392.412L212.56 377.757C218.533 377.367 223.837 376.138 228.471 374.073C233.16 371.951 237.096 369.216 240.278 365.866C243.516 362.517 245.972 358.637 247.647 354.227C249.322 349.816 250.159 345.099 250.159 340.075C250.159 334.939 249.182 330.668 247.228 327.262C245.33 323.801 242.818 320.926 239.692 318.637C236.565 316.348 233.048 314.478 229.14 313.027Z" fill="#159DD2"/>
<path d="M209.169 157.993L64.1273 0L354.21 2.53598e-05L209.169 157.993Z" fill="#159DD2"/>
</svg>
