<svg width="785" height="445" viewBox="0 0 785 445" fill="none" xmlns="http://www.w3.org/2000/svg">
<path d="M88.9297 376.495H114.311V444.179H88.9297V376.495Z" fill="#159DD2"/>
<path d="M147.096 376.495H171.42V444.179H147.096V376.495Z" fill="#159DD2"/>
<path d="M132.29 153.348L264.177 410.337H0.40332L132.29 153.348Z" fill="#159DD2"/>
<path d="M256.026 124.264C256.026 192.894 200.628 248.529 132.29 248.529C63.9532 248.529 8.55488 192.894 8.55488 124.264C8.55488 55.6351 63.9532 0 132.29 0C200.628 0 256.026 55.6351 256.026 124.264Z" fill="#159DD2"/>
<path d="M346.977 376.495H372.359V444.179H346.977V376.495Z" fill="#159DD2"/>
<path d="M405.143 376.495H429.467V444.179H405.143V376.495Z" fill="#159DD2"/>
<path d="M390.338 153.348L522.225 410.337H258.451L390.338 153.348Z" fill="#159DD2"/>
<path d="M514.073 124.264C514.073 192.894 458.675 248.529 390.338 248.529C322.001 248.529 266.602 192.894 266.602 124.264C266.602 55.6351 322.001 0 390.338 0C458.675 0 514.073 55.6351 514.073 124.264Z" fill="#159DD2"/>
<path d="M563.777 414.002H575.359V444.886H563.777V414.002Z" fill="#159DD2"/>
<path d="M590.318 414.002H601.416V444.886H590.318V414.002Z" fill="#159DD2"/>
<path d="M583.562 312.182L643.74 429.444H523.383L583.562 312.182Z" fill="#159DD2"/>
<path d="M640.022 298.912C640.022 330.227 614.744 355.613 583.562 355.613C552.381 355.613 527.103 330.227 527.103 298.912C527.103 267.597 552.381 242.211 583.562 242.211C614.744 242.211 640.022 267.597 640.022 298.912Z" fill="#159DD2"/>
<path d="M704.434 414.002H716.015V444.886H704.434V414.002Z" fill="#159DD2"/>
<path d="M730.974 414.002H742.073V444.886H730.974V414.002Z" fill="#159DD2"/>
<path d="M724.218 312.182L784.397 429.444H664.039L724.218 312.182Z" fill="#159DD2"/>
<path d="M780.678 298.912C780.678 330.227 755.401 355.613 724.219 355.613C693.037 355.613 667.76 330.227 667.76 298.912C667.76 267.597 693.037 242.211 724.219 242.211C755.401 242.211 780.678 267.597 780.678 298.912Z" fill="#159DD2"/>
</svg>
