<svg width="405" height="441" viewBox="0 0 405 441" fill="none" xmlns="http://www.w3.org/2000/svg">
<rect y="94.3433" width="404.798" height="346.657" fill="#159DD2"/>
<path d="M0 39.4926H404.798V133.582C404.798 144.628 395.844 153.582 384.798 153.582H20C8.95428 153.582 0 144.628 0 133.582V39.4926Z" fill="#159DD2"/>
<rect x="34.0078" y="253.41" width="40.5896" height="41.6866" fill="white"/>
<rect x="34.0078" y="306.067" width="40.5896" height="40.5896" fill="white"/>
<rect x="34.0078" y="357.627" width="40.5896" height="41.6866" fill="white"/>
<rect x="93.2461" y="201.851" width="40.5896" height="40.5896" fill="white"/>
<rect x="93.2461" y="253.41" width="40.5896" height="41.6866" fill="white"/>
<rect x="93.2461" y="306.067" width="40.5896" height="40.5896" fill="white"/>
<rect x="93.2461" y="357.627" width="40.5896" height="41.6866" fill="white"/>
<rect x="152.485" y="201.851" width="40.5896" height="40.5896" fill="white"/>
<rect x="152.485" y="253.41" width="40.5896" height="41.6866" fill="white"/>
<rect x="152.485" y="306.067" width="40.5896" height="40.5896" fill="white"/>
<rect x="152.485" y="357.627" width="40.5896" height="41.6866" fill="white"/>
<rect x="210.627" y="201.851" width="41.6866" height="40.5896" fill="white"/>
<rect x="210.627" y="253.41" width="41.6866" height="41.6866" fill="white"/>
<rect x="210.627" y="306.067" width="41.6866" height="40.5896" fill="white"/>
<rect x="210.627" y="357.627" width="41.6866" height="41.6866" fill="white"/>
<rect x="269.865" y="201.851" width="41.6866" height="40.5896" fill="white"/>
<rect x="270.963" y="254.507" width="40.5896" height="41.6866" fill="white"/>
<rect x="269.865" y="306.067" width="41.6866" height="40.5896" fill="white"/>
<rect x="269.865" y="357.627" width="41.6866" height="41.6866" fill="white"/>
<rect x="329.104" y="201.851" width="41.6866" height="40.5896" fill="white"/>
<rect x="329.104" y="253.41" width="41.6866" height="41.6866" fill="white"/>
<rect x="329.104" y="306.067" width="41.6866" height="40.5896" fill="white"/>
<circle cx="106.411" cy="75.694" r="27.4254" fill="white"/>
<circle cx="311.552" cy="75.694" r="27.4254" fill="white"/>
<rect x="296.194" width="29.6194" height="86.6642" fill="#159DD2"/>
<rect x="92.1494" width="29.6194" height="86.6642" fill="#159DD2"/>
</svg>
