<svg width="80" height="47" viewBox="0 0 80 47" fill="none" xmlns="http://www.w3.org/2000/svg">
<path d="M31.0203 16.7101L28.976 21.1542H0L1.5999 16.7101H31.0203ZM27.1983 25.5984L25.154 30.0426H0L1.5999 25.5984H27.1983ZM36.2644 4.71082L34.1312 9.33275C33.1831 8.47354 32.1832 7.73285 31.1314 7.11067C30.0796 6.48848 28.976 6.00703 27.8205 5.66631C26.665 5.32559 25.4503 5.15523 24.1763 5.15523C21.6579 5.15523 19.3914 5.85149 17.3767 7.24399C15.362 8.6365 13.7695 10.6882 12.5992 13.3992C11.4289 16.1101 10.8438 19.4358 10.8438 23.3763C10.8438 27.3168 11.4289 30.6425 12.5992 33.3535C13.7695 36.0644 15.362 38.1161 17.3767 39.5086C19.3914 40.9011 21.6579 41.5974 24.1763 41.5974C25.4799 41.5974 26.7094 41.427 27.8649 41.0863C29.0352 40.7456 30.124 40.279 31.1314 39.6864C32.1535 39.0938 33.0942 38.4272 33.9534 37.6865L36.1755 42.3085C34.6201 43.775 32.7979 44.8861 30.7092 45.6416C28.6204 46.3823 26.4428 46.7526 24.1763 46.7526C20.532 46.7526 17.3026 45.8045 14.488 43.9084C11.6882 42.0122 9.48829 39.3161 7.88839 35.82C6.30331 32.3239 5.51077 28.176 5.51077 23.3763C5.51077 18.5766 6.30331 14.4287 7.88839 10.9326C9.48829 7.43657 11.6882 4.74045 14.488 2.84427C17.3026 0.948089 20.532 0 24.1763 0C26.5317 0 28.7315 0.407382 30.7758 1.22215C32.835 2.03691 34.6645 3.1998 36.2644 4.71082Z" fill="white"/>
<path d="M74.0203 16.7101L71.976 21.1542H43L44.5999 16.7101H74.0203ZM70.1983 25.5984L68.154 30.0426H43L44.5999 25.5984H70.1983ZM79.2644 4.71082L77.1312 9.33275C76.1831 8.47354 75.1832 7.73285 74.1314 7.11067C73.0796 6.48848 71.976 6.00703 70.8205 5.66631C69.665 5.32559 68.4503 5.15523 67.1763 5.15523C64.6579 5.15523 62.3914 5.85149 60.3767 7.24399C58.362 8.6365 56.7695 10.6882 55.5992 13.3992C54.4289 16.1101 53.8438 19.4358 53.8438 23.3763C53.8438 27.3168 54.4289 30.6425 55.5992 33.3535C56.7695 36.0644 58.362 38.1161 60.3767 39.5086C62.3914 40.9011 64.6579 41.5974 67.1763 41.5974C68.4799 41.5974 69.7094 41.427 70.8649 41.0863C72.0352 40.7456 73.124 40.279 74.1314 39.6864C75.1535 39.0938 76.0942 38.4272 76.9534 37.6865L79.1755 42.3085C77.6201 43.775 75.7979 44.8861 73.7092 45.6416C71.6204 46.3823 69.4428 46.7526 67.1763 46.7526C63.532 46.7526 60.3026 45.8045 57.488 43.9084C54.6882 42.0122 52.4883 39.3161 50.8884 35.82C49.3033 32.3239 48.5108 28.176 48.5108 23.3763C48.5108 18.5766 49.3033 14.4287 50.8884 10.9326C52.4883 7.43657 54.6882 4.74045 57.488 2.84427C60.3026 0.948089 63.532 0 67.1763 0C69.5317 0 71.7315 0.407382 73.7758 1.22215C75.835 2.03691 77.6645 3.1998 79.2644 4.71082Z" fill="white"/>
</svg>
