<svg width="37" height="47" viewBox="0 0 37 47" fill="none" xmlns="http://www.w3.org/2000/svg">
<path d="M31.0203 16.7101L28.976 21.1542H0L1.5999 16.7101H31.0203ZM27.1983 25.5984L25.154 30.0426H0L1.5999 25.5984H27.1983ZM36.2644 4.71082L34.1312 9.33275C33.1831 8.47354 32.1832 7.73285 31.1314 7.11067C30.0796 6.48848 28.976 6.00703 27.8205 5.66631C26.665 5.32559 25.4503 5.15523 24.1763 5.15523C21.6579 5.15523 19.3914 5.85149 17.3767 7.24399C15.362 8.6365 13.7695 10.6882 12.5992 13.3992C11.4289 16.1101 10.8438 19.4358 10.8438 23.3763C10.8438 27.3168 11.4289 30.6425 12.5992 33.3535C13.7695 36.0644 15.362 38.1161 17.3767 39.5086C19.3914 40.9011 21.6579 41.5974 24.1763 41.5974C25.4799 41.5974 26.7094 41.427 27.8649 41.0863C29.0352 40.7456 30.124 40.279 31.1314 39.6864C32.1535 39.0938 33.0942 38.4272 33.9534 37.6865L36.1755 42.3085C34.6201 43.775 32.7979 44.8861 30.7092 45.6416C28.6204 46.3823 26.4428 46.7526 24.1763 46.7526C20.532 46.7526 17.3026 45.8045 14.488 43.9084C11.6882 42.0122 9.48829 39.3161 7.88839 35.82C6.30331 32.3239 5.51077 28.176 5.51077 23.3763C5.51077 18.5766 6.30331 14.4287 7.88839 10.9326C9.48829 7.43657 11.6882 4.74045 14.488 2.84427C17.3026 0.948089 20.532 0 24.1763 0C26.5317 0 28.7315 0.407382 30.7758 1.22215C32.835 2.03691 34.6645 3.1998 36.2644 4.71082Z" fill="white"/>
</svg>
