<svg width="5088" height="901" viewBox="0 0 5088 901" fill="none" xmlns="http://www.w3.org/2000/svg">
<path d="M471.043 277.196C406.633 295.705 130.177 652.611 0 828.751L5088 899.083C4966.77 799.137 4890.88 677.906 4855.72 604.798C4820.55 531.689 4738.19 388.248 4723.38 367.888C4708.58 347.529 4664.15 314.213 4610.48 281.823C4567.54 255.911 4492.64 259.922 4460.56 265.166L4331 232.776H4296.76C4277.63 223.521 4235.5 205.013 4219.95 205.013C4208.84 198.535 4158.87 198.535 4131.11 205.013C4120.74 186.504 4065.71 167.687 4039.49 160.592L4004.32 136.531C3936.46 122.341 3787.4 91.7406 3734.1 82.8565C3680.79 73.9724 3426.24 52.6259 3305.63 43.0632C3177.92 22.7038 2848.84 -13.3878 2554.18 5.12071C2185.86 28.2564 2072.03 100.44 2037.79 100.44C2003.55 100.44 1957.28 73.6022 1842.53 69.9005C1750.72 66.9391 1392.77 127.277 1225.27 157.816C1000.7 189.898 535.452 258.688 471.043 277.196Z" fill="#DA2B1B"/>
<path d="M558.033 292.435C541.992 299.53 513.798 325.565 529.345 372.947C544.892 420.329 523.483 490.785 510.836 520.09L520.09 629.291M843.99 215.625C837.203 216.55 825.666 225.804 833.81 255.418C843.99 292.435 861.573 310.944 826.406 335.93C791.24 360.917 668.158 423.846 635.768 505.283C612.818 534.897 525.026 628.674 483.998 671.86C445.13 711.037 364.803 795.868 354.438 821.78M826.406 385.903C764.403 434.951 634.843 545.817 612.633 596.901M558.033 639.47C530.27 668.467 474.189 734.234 471.968 765.329C469.747 796.423 471.042 831.342 471.968 844.915M908.77 348.886C859.105 410.273 757.555 537.859 748.671 557.107M684.816 612.633C638.545 660.447 546.002 769.215 546.002 821.78M1079.97 312.795C1037.1 360.3 948.378 468.266 936.532 520.09C924.687 571.914 832.884 642.864 788.464 671.86C758.233 704.25 695.181 772.917 684.816 788.464C671.86 807.898 639.47 838.437 643.172 855.095M1110.51 292.435C1079.05 323.591 1013.34 392.381 1002.24 418.293C990.143 446.513 954.164 518.288 936.532 579.756M908.77 844.915C911.546 787.23 919.69 658.719 930.054 606.155C931.722 597.696 933.927 588.839 936.532 579.756M1130.87 302.615C1109.28 322.357 1061.47 370.911 1042.96 407.188C1024.45 443.465 964.295 537.349 936.532 579.756M1172.52 199.892C1139.82 223.337 1068.13 271.15 1042.96 274.852M1042.96 232.282L1010.57 285.957M1214.16 242.462C1224.03 287.5 1247.66 387.754 1263.21 428.473C1282.64 479.372 1306.7 534.459 1331.69 557.107C1323.36 542.301 1331.69 520.09 1347.42 470.117M1576 215.625C1555.33 231.974 1505.11 278.924 1469.58 335.93M1653.74 232.282C1635.23 248.015 1587.85 284.106 1546.39 302.615C1494.57 325.751 1362.23 429.398 1352.97 493.253M1495.49 357.215C1485.31 364.619 1410.35 413.666 1381.66 476.595C1352.97 539.524 1352.97 564.072 1352.97 571.914M1331.69 579.756C1331.69 596.901 1273.39 588.572 1263.21 658.904C1255.06 715.17 1237.6 790.932 1229.89 821.78M1340.94 603.379C1317.99 647.799 1270.3 767.488 1249.33 821.78M1927.67 153.621C1918.41 162.875 1590.81 395.158 1583.41 428.473C1577.48 455.125 1488.4 540.434 1444.59 579.756M2028.54 136.963C1995.22 163.801 1863.81 224.879 1837.9 255.418C1811.99 285.957 1669.47 394.232 1653.74 418.293C1638.01 442.354 1548.24 492.328 1534.36 520.09C1520.48 547.853 1488.09 605.23 1483.46 645.948M2274.7 71.2581C2258.97 92.5429 2110.9 145.292 2090.54 188.787C2070.18 232.282 1935.99 394.232 1927.67 394.232C1898.98 407.188 1771.27 564.072 1744.43 571.914C1717.59 579.756 1496.42 799.569 1489.94 838.437M2097.02 231.357C2111.21 314.645 2143.1 487.515 2157.17 512.687C2171.24 537.859 2209.3 643.481 2226.58 693.145M2226.58 693.145L2198.82 800.495M2226.58 693.145C2217.32 690.06 2209.55 678.894 2252.49 658.904C2282.69 644.846 2340.13 581.277 2409.66 493.253M2827.18 71.2581C2822.55 79.5869 2727.23 58.3021 2586.57 255.418C2550.24 306.322 2513.98 356.178 2479.24 402.561M2316.34 136.963C2329.61 160.408 2357.62 212.108 2363.54 231.357C2370.94 255.418 2417.22 363.693 2419.99 373.873C2422.21 382.017 2414.03 456.853 2409.66 493.253M2409.66 493.253C2431.79 465.231 2455.15 434.731 2479.24 402.561M2335.78 99.9463C2328.38 105.499 2223.8 160.099 2190.49 240.611M2683.74 25.9121C2657.21 35.4749 2595.45 63.6695 2560.66 99.9463C2525.86 136.223 2456.7 181.075 2426.47 198.967C2437.27 233.516 2459.79 302.615 2463.49 302.615M2504.21 231.357L2463.49 318.347L2479.24 402.561M2706.88 231.357C2672.94 320.815 2603.6 502.322 2597.67 512.687C2591.75 523.052 2489.71 657.054 2439.43 722.759C2422.46 755.766 2387.79 828.628 2384.83 856.02M2953.04 71.2581C2919.11 85.1395 2847.35 119.01 2831.81 143.441C2816.26 167.873 2794.48 190.638 2785.54 198.967C2796.95 217.784 2819.78 257.269 2819.78 264.672C2819.78 273.927 2831.81 376.649 2819.78 402.561M3065.02 99.9463C3039.1 136.963 2986.35 166.577 2978.95 198.967C2971.55 231.357 2927.13 324.825 2940.08 402.561M2842.91 445.131C2851.24 473.819 2778.13 578.392 2767.95 597.826M2736.49 418.293C2731.86 435.876 2724.46 497.88 2683.74 547.853C2651.16 587.832 2612.79 638.545 2597.67 658.904M3189.02 112.902C3154.78 145.601 3082.04 221.733 3065.02 264.672C3047.99 307.612 3041.26 394.849 3040.03 433.1M3250.1 136.963C3226.35 160.408 3175.33 213.959 3161.26 240.611C3147.19 267.264 3142.44 281.947 3141.83 285.957M3823.87 112.902C3791.48 131.719 3724.85 192.674 3717.44 285.957M3859.03 136.963C3840.52 182.309 3745.2 255.418 3744.28 264.672M3872.91 161.025C3871.37 192.181 3867.36 257.639 3863.66 270.225M3839.6 231.357C3826.64 248.94 3768.34 372.022 3796.1 402.561C3818.31 426.992 3823.87 486.158 3823.87 512.687M3989.52 184.16L3925.66 285.957C3932.14 273.001 3941.03 256.899 3924.74 296.137C3908.45 335.375 3850.7 411.815 3823.87 445.131M4049.67 248.015C4044.12 264.672 4042.27 355.364 3989.52 445.131C3947.32 516.944 3946.02 576.85 3950.65 597.826M4148.69 248.015C4115.38 341.791 4051.52 538.969 4062.63 577.467C4073.73 615.965 4067.25 636.694 4062.63 642.247M4221.8 296.137C4233.83 328.527 4318.04 488.626 4331 586.721C4335.01 617.058 4344.77 653.678 4356.42 690.369M4419.84 868.051C4417.92 854.627 4382.45 772.322 4356.42 690.369M3549.01 161.025C3575.85 203.594 3618.42 219.326 3634.15 270.225C3649.89 321.123 3743.35 397.934 3747.98 409.039C3752.61 420.144 3811.84 473.819 3811.84 525.643M4356.42 690.369C4358.13 655.82 4359.32 565.992 4350.43 483.073C4327.3 388.68 4367.09 296.137 4382.82 270.225C4414.29 286.883 4495.36 347.961 4567.91 459.012C4658.6 597.826 4744.67 605.23 4781.68 690.369C4811.3 758.48 4922.97 858.18 4975.1 899.516M4661.38 311.869C4678.04 432.175 4742.82 510.836 4753.92 548.779C4765.03 586.721 4918.65 779.21 4922.35 786.613M3598.99 296.137C3573.08 346.11 3387.99 697.772 3396.32 737.566C3404.65 777.359 3215.86 403.486 3216.79 373.873" stroke="#650000" stroke-width="2"/>
<path d="M527.494 321.124C526.754 308.538 539.525 304.158 546.003 303.541C542.609 306.626 534.897 314.461 531.195 321.124C526.568 329.453 540.45 351.663 540.45 354.439C540.45 356.66 546.002 401.019 548.778 422.921L569.138 458.087C561.426 449.758 543.041 441.8 531.195 476.596C520.747 507.285 529.689 558.947 537.448 588.915C588.14 535.557 635.803 486.505 660.755 458.087C718.403 392.432 749.035 366.956 758.044 357.684C758.952 356.575 759.839 355.493 760.701 354.439C760.327 355.188 759.448 356.239 758.044 357.684C725.175 397.824 663.637 472.993 660.755 476.596C657.794 480.297 637.311 493.562 627.44 499.731C598.443 536.748 526.013 623.739 468.266 675.563C410.519 727.386 372.022 790.932 359.991 816.228H349.812C358.295 784.289 428.673 704.72 502.173 626.277C501.927 626.11 501.729 625.882 501.582 625.589C497.881 618.186 484.925 568.213 494.179 549.704C503.433 531.196 537.674 399.785 540.45 391.456C543.227 383.128 528.42 336.856 527.494 321.124Z" fill="#470601"/>
<path d="M635.769 537.674C657.239 505.839 771.806 407.806 826.407 362.768C799.878 389.914 742.933 446.427 727.386 455.311C707.952 466.416 669.084 518.24 635.769 558.033C609.116 589.868 613.558 599.061 619.111 599.677H595.05C599.677 592.274 614.299 569.509 635.769 537.674Z" fill="#470601"/>
<path d="M501.582 693.146C536.379 642.062 560.501 622.505 568.212 619.112C551.555 647.183 513.427 711.839 494.179 745.895C474.931 779.951 478.755 813.143 483.073 825.482H463.639V784.763C461.788 775.509 466.786 744.229 501.582 693.146Z" fill="#470601"/>
<path d="M1000.39 272.076C1011.49 246.905 1037.71 229.507 1049.43 223.954C1023.52 240.242 1028.15 258.503 1033.7 265.598L1000.39 272.076Z" fill="#470601"/>
<path d="M1452 326.676C1537.88 223.029 1568.6 200.201 1573.23 201.744L1421.46 369.246C1423.31 368.938 1433.12 364.064 1457.55 347.036C1481.98 330.008 1551.02 252.951 1582.48 216.55C1556.26 248.94 1501.78 316.312 1493.64 326.676C1495.36 324.517 1501.65 319.458 1513.07 316.497C1524.49 313.535 1613.46 239.995 1656.52 203.594C1660.83 204.52 1668.18 208.037 1662.99 214.7C1656.52 223.028 1529.73 319.273 1521.4 321.124C1514.74 322.604 1497.03 339.015 1489.01 347.036L1452 375.078C1437.58 391.346 1420.89 409.909 1403.87 428.473C1371.3 464.01 1364.39 508.677 1365.01 526.569L1380.74 521.016L1377.04 581.169L1390.92 570.064C1391.23 559.576 1391.66 536.193 1390.92 526.569C1390.18 516.944 1406.65 501.582 1414.98 495.104C1411.28 486.775 1411.46 461.233 1441.82 425.697C1479.76 381.277 1563.05 303.541 1565.82 302.615C1532.2 338.09 1461.99 412.371 1450.14 425.697C1435.34 442.355 1431.64 469.192 1426.08 475.67C1421.64 480.853 1425.47 490.785 1427.93 495.104C1422.07 502.508 1409.43 519.535 1405.72 528.419C1402.02 537.304 1400.48 552.225 1400.17 558.574L1476.06 481.223L1521.4 409.039L1565.82 356.29L1501.04 459.012L1550.09 418.294C1527.57 443.897 1478.46 499.546 1462.18 517.314C1441.82 539.525 1421.46 573.765 1396.47 667.234C1371.48 760.702 1365.01 788.465 1377.04 769.031C1386.66 753.483 1451.38 687.901 1482.53 657.054L1489.01 617.26L1514 565.437C1513.69 569.138 1511.59 581.724 1505.67 602.454C1499.75 623.183 1503.2 637.003 1505.67 641.322L1533.43 602.454C1537.13 597.271 1548.55 564.511 1553.79 548.779C1552.25 555.874 1550.09 574.321 1553.79 591.349C1558.42 612.633 1528.81 631.142 1518.63 641.322C1508.45 651.501 1495.49 690.369 1462.18 744.044C1435.52 786.984 1427.01 824.248 1426.08 837.512L1352.97 820.855L1208.61 814.377C1218.79 797.102 1240.63 759.776 1246.55 748.671C1253.95 734.79 1265.06 618.186 1270.61 602.454C1275.05 589.868 1284.8 593.508 1289.12 596.901L1265.06 762.553C1270.61 754.841 1283.2 732.384 1289.12 704.251C1295.04 676.118 1324.29 624.664 1338.17 602.454L1328.91 558.574L1315.96 570.064C1311.33 558.342 1304.85 526.939 1315.96 495.104C1329.84 455.311 1344.65 456.236 1452 326.676Z" fill="#470601"/>
<path d="M1603.77 660.756C1611.17 646.874 1715.74 581.169 1717.59 581.169L1689.83 612.633L1603.77 694.071C1581.86 721.217 1536.39 779.025 1529.73 793.092C1523.07 807.158 1526.96 832.268 1529.73 843.065L1472.35 839.363C1474.82 835.044 1479.94 825.852 1480.68 823.631C1481.61 820.855 1596.36 674.637 1603.77 660.756Z" fill="#470601"/>
<path d="M1981.34 260.971C2000.59 232.838 2076.97 182.001 2112.75 160.099L2170.13 128.635L2069.26 226.73L1827.72 513.613L1726.85 591.349V545.077L1916.56 370.171C1930.13 345.493 1962.09 289.104 1981.34 260.971Z" fill="#470601"/>
<path d="M2630.06 160.099C2658.94 120.121 2764.87 74.9601 2814.22 57.377C2801.27 65.0888 2765.36 85.5099 2725.38 105.499C2675.41 130.486 2644.87 177.683 2592.12 250.791C2527.71 307.057 2487.55 416.134 2475.52 463.64C2462.25 487.392 2431.47 535.453 2414.44 537.674C2397.41 539.895 2369.71 562.66 2357.99 573.765C2341.95 590.732 2305.79 625.96 2289.51 631.142C2269.15 637.62 2271.92 677.413 2268.22 691.295C2265.26 702.4 2225.04 758.851 2205.29 785.688L2193.26 755.149C2199.12 740.959 2211.4 705.546 2213.62 677.413C2215.84 649.28 2283.65 596.593 2317.27 573.765L2414.44 454.385C2438.19 421.687 2486.99 351.108 2492.18 330.378C2498.65 304.466 2593.97 210.072 2630.06 160.099Z" fill="#470601"/>
<path d="M2954.89 206.371C2987.28 122.157 3053.91 105.499 3068.72 95.3195C3069.64 98.7127 3065.2 108.275 3040.03 119.381C3008.56 133.262 2978.03 201.744 2959.52 235.059C2941.01 268.374 2954.89 358.141 2954.89 364.619C2954.89 371.097 2958.59 397.009 2943.78 412.741C2928.98 428.473 2892.89 415.517 2895.66 408.114C2898.44 400.711 2927.13 359.992 2930.83 338.707C2934.53 317.422 2922.5 290.585 2954.89 206.371Z" fill="#470601"/>
<path d="M3713.74 205.445C3737.43 146.958 3798.88 107.659 3826.64 95.3195C3810.6 109.201 3772.23 150.66 3747.06 205.445C3721.88 260.231 3725.46 297.988 3730.4 310.019L3673.02 301.69C3676.72 293.978 3690.05 263.932 3713.74 205.445Z" fill="#470601"/>
<path d="M3960.83 414.592C3986 387.94 4019.44 359.683 4033.01 348.887C4029 359.375 4018.39 382.572 4008.03 391.456C3995.07 402.561 4021.91 414.592 4020.98 429.399C4020.06 444.206 3991.37 457.162 3976.56 484.924C3961.75 512.687 3980.26 554.331 3967.31 568.213C3954.35 582.094 3940.47 631.142 3940.47 623.739C3940.47 616.335 3938.62 575.616 3940.47 548.779C3941.95 527.309 3958.98 483.074 3967.31 463.64C3954.66 458.395 3935.66 441.244 3960.83 414.592Z" fill="#470601"/>
<path d="M4402.26 717.207V484.924C4405.34 573.148 4409.66 750.707 4402.26 755.149C4393 760.702 4391.15 748.671 4394.85 731.088C4398.56 713.505 4402.26 727.386 4402.26 717.207Z" fill="#470601"/>
</svg>
