<svg width="3984" height="1776" viewBox="0 0 3984 1776" fill="none" xmlns="http://www.w3.org/2000/svg">
<path d="M192.764 1487.29L0 1652.7V1773.33H3984V1549.47C3973.22 1541.39 3945.2 1525.1 3919.33 1524.6C3893.46 1524.1 3873.32 1527.3 3866.48 1528.95C3855.28 1515.48 3829.54 1488.54 3816.11 1488.54C3799.32 1488.54 3797.45 1466.15 3795.59 1461.8C3793.72 1457.44 3787.51 1426.35 3786.26 1415.16C3785.02 1403.97 3764.5 1400.86 3762.63 1392.15C3761.14 1385.19 3766.57 1373.91 3769.47 1369.15C3766.36 1364.38 3759.03 1354.97 3754.55 1355.47C3748.95 1356.09 3735.27 1351.74 3735.89 1345.52C3736.39 1340.54 3740.66 1314.84 3742.73 1302.61C3744.81 1300.33 3744.35 1293.78 3725.94 1285.82C3702.94 1275.87 3711.02 1262.82 3712.26 1250.38C3713.26 1240.43 3702.73 1227.99 3697.34 1223.02C3698.79 1215.76 3701.32 1200.01 3699.83 1195.04C3698.34 1190.06 3668.94 1190.48 3654.44 1191.31C3656.92 1181.15 3661.65 1160.46 3660.65 1158.97C3659.41 1157.11 3669.36 1130.99 3665.01 1124.15C3661.52 1118.68 3666.46 1109.02 3669.36 1104.87V1082.49L3633.29 1069.43L3614.64 1082.49C3610.7 1079.38 3597.23 1070.18 3574.84 1058.24C3552.46 1046.3 3535.25 1048.7 3529.45 1051.4V1027.15C3530.07 1009.32 3528.21 967.824 3515.77 944.443C3503.33 921.063 3491.93 924.752 3487.79 929.52C3485.72 915.84 3481.69 881.64 3482.19 854.279C3482.81 820.079 3438.66 773.443 3430.58 760.385C3424.11 749.938 3406.33 751.472 3398.25 753.545L3367.15 697.581C3358.03 692.606 3339.3 680.046 3337.31 669.599C3335.32 659.152 3319.9 652.395 3312.43 650.323H3292.54C3287.15 656.333 3274.13 666.614 3265.18 659.65C3256.22 652.685 3254.4 627.315 3254.61 615.501L3227.87 574.461L3199.26 568.864L3193.67 590.006L3148.9 615.501L3098.53 517.875L3069.92 450.097L3063.71 425.846H3043.19L3036.97 415.275L3024.53 422.115L3009.61 418.384L2984.74 436.416C2980.38 439.733 2968.94 442.262 2958 425.846C2947.05 409.43 2941.42 370.089 2939.96 352.471L2933.75 347.496L2926.28 328.22L2903.28 334.438V312.052H2898.3V334.438H2884C2882.55 328.634 2879.15 314.291 2877.16 303.347C2874.67 289.667 2862.86 287.18 2855.4 293.398C2849.43 298.372 2837.99 295.471 2833.01 293.398C2833.43 289.045 2833.01 278.101 2828.04 269.147C2823.06 260.193 2803.99 261.685 2795.08 263.551C2789.28 265.623 2776.8 268.525 2773.32 263.551C2769.83 258.576 2758.6 253.187 2753.42 251.114C2751.76 243.652 2746.7 226.241 2739.74 216.292C2732.77 206.343 2721.5 205.929 2716.73 206.965L2692.48 191.419C2694.76 185.409 2696.46 172.64 2685.02 169.656C2670.72 165.925 2648.95 188.31 2637.76 184.579C2626.57 180.848 2613.51 187.689 2612.89 184.579C2612.27 181.47 2620.35 182.092 2623.46 169.656C2625.95 159.707 2591.75 149.343 2574.33 145.405C2573.92 138.772 2572.1 126.626 2568.12 131.103C2564.14 135.58 2548.22 137.528 2540.76 137.943C2527.28 120.532 2494.87 82.7253 2472.98 70.7864C2445.62 55.8627 2408.31 52.7536 2400.85 57.1063C2394.88 60.5885 2358.98 53.1682 2341.77 49.0227C2311.3 40.9391 2226.36 29.6219 2130.35 49.0227C2034.35 68.4235 2000.81 151.208 1996.04 190.176L1916.45 210.696C1876.45 203.856 1784 190.176 1734.26 190.176C1684.51 190.176 1662.95 290.911 1658.39 341.278C1622.95 328.634 1527.94 336.428 1431.43 468.751C1310.8 634.155 1341.89 802.668 1321.37 802.668C1304.95 802.668 1268.51 823.396 1252.35 833.759L1135.44 802.668C1115.96 840.392 1071.52 929.644 1049.63 984.862C1027.74 1040.08 930.243 1055.96 884.228 1056.99C862.464 1058.24 810.729 1075.15 777.897 1132.85C745.065 1190.56 605.86 1241.88 540.362 1260.33C489.787 1267.17 363.889 1292.54 264.895 1339.3C165.902 1386.06 175.56 1457.44 192.764 1487.29Z" fill="#D8CFBE"/>
<path d="M1736.74 208.689C1707.52 214.908 1663.74 247.367 1722.44 327.457C1795.82 427.57 1886.6 505.298 1886.6 524.574C1886.6 539.995 1938.83 530.999 1964.95 524.574C1964.12 543.643 1972.91 591.731 2014.7 631.527C2056.48 671.323 2090.56 655.985 2102.37 643.342L2157.09 750.295C2146.73 782.836 2126.5 850.781 2128.49 862.222C2130.48 873.664 2175.33 803.564 2197.51 767.084L2216.17 862.222L2270.89 819.317L2308.82 862.222L2270.89 935.597L2333.07 885.851V954.873L2377.84 904.506L2401.47 1028.25L2308.82 1196.76L2128.49 1465.39L2157.09 1503.32L2532.05 1082.97C2555.89 1073.43 2600.7 1060.09 2589.26 1082.97C2574.96 1111.57 2532.05 1151.37 2589.26 1158.83C2627.71 1163.85 2658.61 1162.19 2674.52 1160.06C2677.13 1159.58 2679.6 1159.17 2681.91 1158.83C2680.02 1159.23 2677.54 1159.65 2674.52 1160.06C2629.34 1168.29 2540.06 1197.2 2491.63 1258.32C2440.39 1322.99 2435.46 1356.57 2439.4 1365.27L2359.19 1384.55L2377.84 1503.32L2401.47 1538.76L2560.65 1491.5L2244.77 1660.02L2270.89 1773.81H745.562C764.01 1766.14 800.531 1744.58 799.039 1719.71C797.547 1694.84 814.584 1657.53 823.29 1641.98L812.097 1567.37L785.981 1533.17C773.544 1527.36 743.821 1526.08 724.421 1567.37C705.02 1608.65 680.686 1650.48 670.944 1666.24L625.551 1633.9L649.802 1549.33L823.29 1413.15L785.981 1380.82L500.565 1579.8C523.365 1563.84 577.049 1518.24 609.384 1463.52C641.719 1408.8 692.915 1306.41 714.471 1262.05L865.574 1171.27L772.923 1142.04C777.897 1123.18 794.935 1082.84 823.29 1072.4C851.645 1061.95 877.803 1055.61 887.337 1053.74H944.545L982.476 1028.87L1028.49 1012.7L1051.5 969.797V932.488L1063.31 918.808V897.666L1076.37 879.011C1082.17 868.855 1094.4 847.672 1096.89 844.189C1099.38 840.707 1112.02 824.084 1118.03 816.208L1136.07 803.149H1175.86L1231.2 819.938L1257.32 832.997L1308.93 796.309V775.789L1316.39 762.109L1318.26 739.724L1331.94 718.582L1338.16 693.087V660.131L1364.9 609.141L1377.95 592.352L1381.06 563.749L1396.61 556.287L1398.47 529.549L1408.42 515.868L1422.1 481.047L1443.87 462.392L1475.58 444.981L1478.69 413.268C1486.77 400.21 1504.31 373.845 1509.78 372.85C1515.25 371.855 1550.2 352.123 1566.99 342.381L1595.59 334.297L1640.98 315.642L1649.07 295.122L1656.53 272.737L1684.51 225.479L1710.63 213.042L1736.74 208.689Z" fill="#3D3B3D"/>
<path d="M2806.27 1217.9L2731.65 1186.19L2422.61 1425.59L2471.73 1466.01H2602.32L2496.61 1603.43L2290.16 1680.53L2316.28 1775.05H3704.18L3658.79 1727.79L3566.76 1680.53L3523.85 1699.19L3550.59 1664.37L3489.65 1603.43L3444.26 1629.55V1574.82L3370.89 1546.22L3354.72 1574.82V1527.57L3285.07 1498.96H3244.03V1466.01V1425.59L3205.48 1446.11L3156.36 1498.96L3115.32 1446.11L3132.11 1405.07L3051.89 1357.81L2994.68 1341.64L2933.75 1357.81L2944.32 1313.04L2856.64 1239.04L2785.13 1260.18L2806.27 1217.9Z" fill="#3D3B3D"/>
<path d="M375.579 1518.24L580.157 1316.15H594.459L637.365 1271.38V1252.1L530.412 1316.15L496.833 1349.73L480.666 1316.15H466.364L425.946 1349.73L401.695 1326.1L361.898 1401.96L302.204 1480.31L323.346 1439.89L302.204 1416.26L266.76 1497.1L247.484 1599.08L107.574 1646.34L46.014 1674.94L3.1084 1772.56H375.579L425.946 1758.26L411.644 1698.57H361.898L449.575 1646.34L361.898 1622.71L449.575 1480.31L375.579 1518.24Z" fill="#3D3B3D"/>
<path d="M3157.6 793.198L3173.15 663.238L3208.59 589.863L3222.89 645.827L3253.98 706.765L3286.94 717.336L3302.48 663.238L3350.36 767.704L3405.09 749.049L3450.48 809.366V903.26L3473.49 940.57L3502.09 982.853L3531.31 1097.89L3559.92 1143.28L3655.68 1119.65L3622.1 1294.39L3494.01 1224.12C3487.17 1210.02 3473.49 1180.34 3473.49 1174.37C3473.49 1168.4 3427.89 1098.1 3405.09 1063.69L3350.36 1119.65L3302.48 1041.93L3253.98 1007.73L3245.9 925.024L3133.97 995.29L3157.6 793.198Z" fill="#3D3B3D"/>
<path d="M2040.81 149.615V91.1639L2153.04 22.1419L2209.33 1H2272.75L2311.31 22.1419L2340.53 14.68L2391.52 33.9565L2459.92 45.1492L2520.24 83.0802L2538.89 109.818H2560.03L2600.45 124.742L2612.27 168.891L2676.94 134.691L2688.13 168.891L2713 190.033L2732.28 180.706L2759.02 219.259L2797.57 227.342L2824.93 269.626L2839.23 257.812L2861.62 283.928H2895.19L2928.77 304.448L2949.91 382.797L2979.76 415.754L3052.51 400.83L3074.9 426.947V497.212L3107.86 694.329L3074.9 982.854L2925.04 1107.22V982.854L2979.76 756.511L2899.55 910.101L2852.29 855.38V563.125L2764.61 694.329L2786.38 453.063L2665.74 635.878L2560.03 544.471L2578.07 347.354L2475.47 453.063V219.259L2391.52 295.743L2410.17 109.818L2293.27 190.033L2227.36 219.259L2165.18 109.818L2040.81 149.615Z" fill="#3E4245"/>
<path d="M2165.18 14.68L2153.04 22.1419M2153.04 22.1419L2040.81 91.1639V149.615L2165.18 109.818L2227.36 219.259L2293.27 190.033L2410.17 109.818L2391.52 295.743L2475.47 219.259V453.063L2578.07 347.354L2560.03 544.471L2665.74 635.878L2786.38 453.063L2764.61 694.329L2852.29 563.125V855.38L2899.55 910.101L2979.76 756.511L2925.04 982.854V1107.22L3074.9 982.854L3107.86 694.329L3074.9 497.212V426.947L3052.51 400.83L2979.76 415.754L2949.91 382.797L2928.77 304.448L2895.19 283.928H2861.62L2839.23 257.812L2824.93 269.626L2797.57 227.342L2759.02 219.259L2732.28 180.706L2713 190.033L2688.13 168.891L2676.94 134.691L2612.27 168.891L2600.45 124.742L2560.03 109.818H2538.89L2520.24 83.0802L2459.92 45.1492L2391.52 33.9565L2340.53 14.68L2311.31 22.1419L2272.75 1H2209.33L2153.04 22.1419Z" stroke="black"/>
</svg>
