<svg width="4423" height="1851" viewBox="0 0 4423 1851" fill="none" xmlns="http://www.w3.org/2000/svg">
<path d="M95.1433 202.256L10 272.239V1430L520.86 1391.21L1760 1061.07L1545.62 719.521L1500.01 665.513L1439.95 638.128L1385.22 559.017L1316.04 489.795L1276.51 447.197L1227.85 423.615L1170.84 365.803L1128.27 399.274L1089.5 350.59L1031.72 323.205L986.108 253.983L895.643 220.513L814.301 184H723.076L656.937 202.256H620.447H551.268L502.615 238.769L393.905 296.581H294.318L273.032 253.983L194.731 238.769L95.1433 202.256Z" fill="#67737B" stroke="black"/>
<path d="M3105.1 440.628L3302 474.066L2918.07 885.197L1 1405V863.918L200.945 966.511L436.623 1002.99L669.259 1053.9C746.804 1046.05 912.842 1035.06 956.633 1053.9C1000.42 1072.75 1140.11 1027.81 1204.47 1002.99L1421.9 863.918C1472.33 804.389 1576.69 674.54 1590.68 631.375C1608.17 577.419 1769.34 501.424 1878.05 474.066C1965.03 452.18 2027.32 464.947 2047.59 474.066L2183.67 537.902C2186.72 516.623 2196.9 467.379 2213.32 440.628C2229.75 413.878 2310.89 361.087 2349.41 338.036L2425.43 316.757C2441.4 303.838 2477.59 278 2494.62 278H2648.95C2668.41 278 2713.31 318.024 2733.33 338.036C2755.63 329.93 2807.38 314.325 2835.97 316.757C2864.55 319.189 2902.62 362.354 2918.07 383.632L3105.1 440.628Z" fill="#7E8F9B" stroke="black"/>
<path d="M2368.58 860.116C2908.51 669.742 3957.17 208.049 4414 1V1850H1V1379.39C565.219 1285.62 1828.64 1050.49 2368.58 860.116Z" fill="#336414" stroke="black"/>
<path d="M3444.29 1090.47C3466.79 1084.39 3595.09 1050.96 3656.43 1035C3598.39 1053.49 3472.72 1095.79 3434.4 1117.06C3386.5 1143.65 3195.65 1170.25 3162.19 1182.4C3135.42 1192.13 3009.61 1206.72 2950.05 1212.8C2878.32 1221.41 2748.55 1231.34 2803.29 1202.16C2871.73 1165.69 2991.11 1130.74 3102.12 1104.9C3213.13 1079.07 3416.15 1098.06 3444.29 1090.47Z" fill="#F7D565"/>
<path d="M4054.1 1216.6C4078.44 1201.4 4303.51 1163.16 4413 1145.93V1235.59C4283.23 1235.59 4029.77 1231.79 4054.1 1216.6Z" fill="#F7D565"/>
<path d="M4023.69 1235.59C4045.59 1230.12 4292.35 1246.48 4413 1255.35V1295.62L3886.06 1288.02C3922.81 1272.82 4001.79 1241.06 4023.69 1235.59Z" fill="#F7D565"/>
<path d="M3806.98 1343.48C3857.47 1328.9 4232.03 1314.11 4413 1308.53V1357.16L3961.34 1361.72C3888.85 1361.72 3756.5 1358.07 3806.98 1343.48Z" fill="#F7D565"/>
<path d="M1662.74 1335.89C1294.11 1273.89 666.651 1328.8 399 1364C551.835 1339.69 864.956 1292.12 894.762 1296.38C932.02 1301.7 2025.43 1281.18 2007.95 1296.38C1993.95 1308.53 1771.98 1327.78 1662.74 1335.89Z" fill="#F7D565"/>
<path d="M3444.29 1090.47C3466.79 1084.39 3595.09 1050.96 3656.43 1035C3598.39 1053.49 3472.72 1095.79 3434.4 1117.06C3386.5 1143.65 3195.65 1170.25 3162.19 1182.4C3135.42 1192.13 3009.61 1206.72 2950.05 1212.8C2878.32 1221.41 2748.55 1231.34 2803.29 1202.16C2871.73 1165.69 2991.11 1130.74 3102.12 1104.9C3213.13 1079.07 3416.15 1098.06 3444.29 1090.47Z" stroke="black"/>
<path d="M4054.1 1216.6C4078.44 1201.4 4303.51 1163.16 4413 1145.93V1235.59C4283.23 1235.59 4029.77 1231.79 4054.1 1216.6Z" stroke="black"/>
<path d="M4023.69 1235.59C4045.59 1230.12 4292.35 1246.48 4413 1255.35V1295.62L3886.06 1288.02C3922.81 1272.82 4001.79 1241.06 4023.69 1235.59Z" stroke="black"/>
<path d="M3806.98 1343.48C3857.47 1328.9 4232.03 1314.11 4413 1308.53V1357.16L3961.34 1361.72C3888.85 1361.72 3756.5 1358.07 3806.98 1343.48Z" stroke="black"/>
<path d="M1662.74 1335.89C1294.11 1273.89 666.651 1328.8 399 1364C551.835 1339.69 864.956 1292.12 894.762 1296.38C932.02 1301.7 2025.43 1281.18 2007.95 1296.38C1993.95 1308.53 1771.98 1327.78 1662.74 1335.89Z" stroke="black"/>
<path d="M2203 1363C2268.87 1352.11 2841.46 1179.07 2968.39 1141.83C3095.32 1104.58 3137.41 1107.16 3459.39 992.098C3795.43 872.014 4182.12 812.767 4411 720.002V1C4249.61 32.4152 3830.16 147.841 3443.43 358.221C2960.03 621.196 2733.53 720.002 2475.86 804.367C2218.2 888.732 2226.56 1006.54 2282.81 982.978C2327.8 964.129 2930.89 752.684 3226.81 649.318L3118.88 841.609C3253.67 801.074 3526.89 710.578 3541.48 672.879C3559.72 625.757 3694.26 569.513 3717.82 503.389C3736.67 450.49 4050.73 289.057 4232.38 226.733L4055.29 479.828C3922.28 507.95 3677.99 657.679 3640.29 672.879C3593.17 691.881 3189.57 959.416 3095.32 925.974C3001.07 892.532 2823.22 977.657 2691.72 1104.58C2586.53 1206.13 2322.08 1319.17 2203 1363Z" fill="#354041" stroke="black"/>
<path d="M479.105 668.43C394.975 659.048 201.172 601.799 99 447.848V631.919C99 698.855 248.001 838.81 322.502 900.421L546.763 924L479.105 668.43Z" fill="#454D53"/>
<path d="M878.975 447.848C898.74 375.588 878.975 307.893 903.302 244C924.587 253.128 971.112 280.206 986.925 315.499C1006.69 359.615 1075.11 500.331 1082.71 527.714C1090.31 555.096 1002.89 631.919 926.868 631.919C850.847 631.919 859.209 520.107 878.975 447.848Z" fill="#454D53"/>
<path d="M1379.19 736.125C1303.17 676.036 1199.02 483.597 1199.02 447.848L1212.71 390.801L1228.67 410.577L1253.76 431.875L1286.45 453.933L1297.09 482.837L1329.02 495.767L1379.19 538.362L1386.79 570.309L1403.52 592.367H1411.12L1429.37 612.143L1446.85 647.132L1483.34 654.738L1511.47 686.685L1551 736.125L1429.37 860.107C1444.06 842.867 1440.01 784.197 1379.19 736.125Z" fill="#454D53"/>
<path d="M479.105 668.43C394.975 659.048 201.172 601.799 99 447.848V631.919C99 698.855 248.001 838.81 322.502 900.421L546.763 924L479.105 668.43Z" stroke="black"/>
<path d="M878.975 447.848C898.74 375.588 878.975 307.893 903.302 244C924.587 253.128 971.112 280.206 986.925 315.499C1006.69 359.615 1075.11 500.331 1082.71 527.714C1090.31 555.096 1002.89 631.919 926.868 631.919C850.847 631.919 859.209 520.107 878.975 447.848Z" stroke="black"/>
<path d="M1379.19 736.125C1303.17 676.036 1199.02 483.597 1199.02 447.848L1212.71 390.801L1228.67 410.577L1253.76 431.875L1286.45 453.933L1297.09 482.837L1329.02 495.767L1379.19 538.362L1386.79 570.309L1403.52 592.367H1411.12L1429.37 612.143L1446.85 647.132L1483.34 654.738L1511.47 686.685L1551 736.125L1429.37 860.107C1444.06 842.867 1440.01 784.197 1379.19 736.125Z" stroke="black"/>
<path d="M1608.45 1486.11C1523.96 1470.89 1084.05 1451.1 831.362 1432.06C635.657 1417.32 208.729 1518.41 1 1575.76V1850H4423V1486.11C4345.11 1517.83 4181.73 1581.27 4151.29 1581.27C4113.23 1581.27 3936.66 1512.76 3863.59 1508.95C3790.52 1505.15 3637.54 1581.27 3419.87 1581.27C3202.19 1581.27 3197.63 1524.18 3059.87 1486.11C2922.11 1448.05 2121.43 1394 1995.09 1394C1868.74 1394 1692.93 1501.34 1608.45 1486.11Z" fill="#1D3B13"/>
</svg>
