<svg width="2904" height="1578" viewBox="0 0 2904 1578" fill="none" xmlns="http://www.w3.org/2000/svg">
<path d="M95.5 282C89.5 287.2 32 321.167 4 337.5V1577H2903V466C2864.17 458.5 2779.5 442 2751.5 436C2716.5 428.5 2534.5 365.5 2511.5 365C2493.1 364.6 2420.5 350.167 2386.5 343C2339.17 332.833 2241.1 311.9 2227.5 309.5C2210.5 306.5 2166 292 2157.5 287.5C2149 283 2081 259 2069 258C2057 257 1993.5 255 1968 255.5C1942.5 256 1878.5 241.5 1854 227C1834.4 215.4 1826.5 207.833 1825 205.5C1819 208.333 1806.5 214.1 1804.5 214.5C1802.5 214.9 1715.33 187 1672 173C1642.33 159.667 1575.8 130.1 1547 118.5C1511 104 1494.5 81.5 1478 73C1464.8 66.2 1416.17 57.1666 1393.5 53.4999C1390 53.4999 1379.6 51.2999 1366 42.5C1349 31.5001 1318 21 1310.5 17C1304.5 13.8 1260.67 5 1239.5 1C1223.17 2.66667 1188 7.8 1178 15C1165.5 24 1139.5 31.5 1134 36C1129.6 39.6 1101.83 54.5 1088.5 61.5L1046 58.4999C1038.33 55.8333 1021.7 51.0999 1016.5 53.4999C1010 56.4999 880 98 874.5 98C884.5 92.5 857 76 850.5 81.5C844 87 764.5 114.5 751.5 114.5C738.5 114.5 599 114.5 533.5 138.5C468 162.5 441 198 412.5 206C367.3 208.8 247 252.833 192.5 274.5C195.833 268 200.5 255 192.5 255C182.5 255 103 275.5 95.5 282Z" fill="#F0D46F" stroke="#E8C37C"/>
<path d="M126 279.001C94.8 280.201 32 319.501 4.5 339.001V469C7.16667 463.834 17 454.9 35 460.5C57.5 467.5 91.5 447.5 139 434.5C186.5 421.5 217 419 253.5 407.5C290 396 296 405 328 395.5C360 386 429.5 314.001 450.5 314.001C467.3 314.001 525.833 290.667 553 279.001C588.833 251.334 675.9 188.2 737.5 157C814.5 118 872 106.5 878 93.5004C884 80.5004 842.5 87.5004 770.5 106.5C698.5 125.5 685.5 113.5 678.5 114.5C671.5 115.5 533 175 476.5 208C420 241 206 316.501 197 314.001C188 311.501 165 277.501 126 279.001Z" fill="#A78696"/>
<path d="M1553.5 216C1568.3 199.2 1598.67 195.334 1612 195.5L1505.5 281L1161.5 492.5C1192.83 472.667 1260.6 428.6 1281 411C1306.5 389 1535 237 1553.5 216Z" fill="#986A88"/>
<path d="M1607.5 199.5C1642.3 170.3 1667.67 171.5 1677 174.5L1519 302L1252.5 492L1486.5 313C1512.33 287.334 1572.7 228.7 1607.5 199.5Z" fill="#C2899C"/>
<path d="M1596 253.5C1628 218.7 1659 196.667 1670.5 190L1650.5 217.5L1501 343.5L1366 429.5C1429.33 385.333 1564 288.3 1596 253.5Z" stroke="#B76A78"/>
<path d="M1663 201.5C1673 181.1 1697.33 181.833 1705.5 184.5C1710.83 187.334 1718.3 194.3 1727.5 201.5C1736.7 208.7 1757.33 241.5 1766.5 257C1759.5 248 1740.3 227.8 1719.5 219C1693.5 208 1681 220 1667 225C1655.8 229 1614.33 262 1595 278L1468.5 396L1142.5 678L1364.5 469C1459.83 388.334 1653 221.9 1663 201.5Z" fill="#C8999C"/>
<path d="M1653 238.5C1677.8 223.7 1693.33 221.333 1698 222C1709.6 220.151 1726.83 232.23 1734 238.5L1792.5 282.5C1801 289.5 1817.4 304.5 1815 308.5C1812.6 312.5 1803.67 305.5 1799.5 301.5C1781.5 290 1740.9 264 1722.5 252C1704.1 240 1687.17 247 1681 252L1626 288.5L1458 406.5L1491.5 377L1570.5 308.5C1587.67 291.333 1628.2 253.3 1653 238.5Z" fill="#D5DDCD"/>
<path d="M1681 289.5C1699 277.9 1713.83 278 1719 279.5C1737.4 281.9 1763.33 297.833 1774 305.5L1876.5 371.5L1976.5 468.5L1818.5 352C1795 339.667 1744.1 314.8 1728.5 314C1712.9 313.2 1687 326.667 1676 333.5L1336 541L1491.5 428C1547.17 386.667 1663 301.1 1681 289.5Z" fill="#E9EDB5"/>
<path d="M1605 386.501C1695 319.501 1718 326.834 1728.5 329.001C1765.3 322.2 1850.5 385.167 1888.5 417.501L2154.5 654.5C2069 593.834 1887 463.701 1843 428.501C1788 384.501 1756.5 381.001 1722 373.001C1694.4 366.601 1644.5 404.001 1623 423.501L847 1015.5L633 1147.5C678 1097 1414.88 528.038 1605 386.501Z" fill="#F19683"/>
<path d="M905 111.853C995 44.8535 1018 52.1868 1028.5 54.3534C1065.3 47.5534 1080.5 58.6666 1118.5 91L1022 98.3534C994.4 91.9534 944.5 129.353 923 148.853L147 740.853L5.5 803.5C27.2366 779.107 185.989 625.497 373.5 482.5C574.181 329.459 806.713 185.023 905 111.853Z" fill="#F19683"/>
<path d="M1568.5 532.009C1639.3 472.009 1678 461.343 1688.5 463.509C1725.3 456.709 1810.5 519.676 1848.5 552.009L2114.5 789.009C2029 728.343 1847 598.209 1803 563.009C1748 519.009 1716.5 515.509 1682 507.509C1654.4 501.109 1604.5 538.509 1583 558.009L1100 888.5C1166 839.833 1497.7 592.009 1568.5 532.009Z" fill="#F19683"/>
<path d="M1523.5 638.009C1594.3 578.009 1633 567.343 1643.5 569.509C1680.3 562.709 1765.5 625.676 1803.5 658.009L2351.5 1079.5L2557.89 1211.69C2559.19 1212.45 2560.39 1213.21 2561.5 1214L2557.89 1211.69C2517.54 1188.18 2387.7 1178.51 2240.5 1079.5C2028.01 936.58 1783.66 689.534 1758 669.009C1703 625.009 1671.5 621.509 1637 613.509C1609.4 607.109 1559.5 644.509 1538 664.009L1237 859.009C1303 810.343 1452.7 698.009 1523.5 638.009Z" fill="#E27379"/>
<path d="M1603.5 452C1648.3 408.8 1699.17 389.667 1719 385.5C1727 380.5 1755.9 382.1 1807.5 428.5C1859.1 474.9 1985.33 556.167 2042 591L2350.5 814L2823 1137.5C2640.17 1040 2275.1 845.7 2277.5 848.5C2280.5 852 2656 1143.5 2644.5 1137.5C2633 1131.5 2321 934.5 2196 832C2071 729.5 1901.5 565 1867.5 538C1833.5 511 1764 471.5 1696.5 464C1642.5 458 1551 525.167 1512 559.5L1266.88 732.027C1256.49 739.618 1246.95 746.345 1238.5 752L1266.88 732.027C1371.58 655.52 1562.74 491.301 1603.5 452Z" fill="#C84A51"/>
<path d="M1585.5 562.5C1623.9 536.5 1663.83 521 1679 516.5C1715.67 516.5 1817.4 549.4 1931 681C2044.6 812.6 2201.67 871.167 2266 884L2773.5 1226.5L2139 890C1992 784.833 1690.3 572.1 1659.5 562.5C1628.7 552.9 1515 633.5 1462 675C1398.33 725.667 1261.1 836.2 1221.5 873C1181.9 909.8 1089.33 950.667 1048 966.5L636.5 1213.5L989 977.5L1271 803C1359.83 733.667 1547.1 588.5 1585.5 562.5Z" fill="#B4E0E8"/>
<path d="M1501 774.37C1555.4 719.17 1614 706.703 1636.5 707.37C1664.1 703.203 1727 735.3 1755 751.87L1996 961.87L2404 1309.87L2778.5 1542L2555 1474.87L2609.5 1542L2312.5 1381.37C2165.33 1228.87 1857.4 913.37 1803 871.37C1735 818.87 1672 792.87 1625.5 787.37C1588.3 782.97 1484 876.536 1436.5 923.87L876 1372.37L1159 1120.87L843 1347.87L1027 1207.87C1162.33 1086.37 1446.6 829.57 1501 774.37Z" fill="#C5C288"/>
<path d="M1501 682.37C1555.4 627.17 1614 614.703 1636.5 615.37C1664.1 611.203 1727 643.3 1755 659.87L1996 869.87L2404 1217.87L2804.5 1536.37L2555 1382.87L2738.5 1530.37L2312.5 1289.37C2165.33 1136.87 1857.4 821.37 1803 779.37C1735 726.87 1672 700.87 1625.5 695.37C1588.3 690.97 1484 784.536 1436.5 831.87L876 1280.37L1159 1028.87L843 1255.87L1027 1115.87C1162.33 994.37 1446.6 737.57 1501 682.37Z" fill="#A9667D"/>
<path d="M1556.5 821.001C1594.1 798.601 1609 797.001 1623.5 796.001C1638 795.001 1672 794.001 1720.5 827.501C1769 861.001 1973 1069 1973 1069L2338.5 1462.5L2236 1406.5L2049.5 1172C1918 1069 1683.5 835.301 1623.5 846.5C1563.5 857.7 1507.83 903.167 1483.5 931.5C1418.67 1000.5 1364.24 1077.69 1289 1142.5C1238.5 1186 1093 1277.5 1002 1348.5L968 1337.5C1012 1288.67 1115.5 1184.3 1177.5 1157.5C1239.5 1130.7 1323.33 1044 1357.5 1004C1408.17 952.334 1518.9 843.401 1556.5 821.001Z" fill="#877E80"/>
<path d="M1497.5 910.5C1534.7 875.3 1596.67 847.5 1623 838C1659.8 847.2 1714 881.167 1736.5 897L1918.5 1055C1975.83 1119.17 2099.5 1261.8 2135.5 1319C2180.5 1390.5 2297.5 1443.5 2319 1453C2336.2 1460.6 2365.83 1460.5 2378.5 1459.5C2387.5 1467.33 2414.6 1486.1 2451 1498.5C2487.4 1510.9 2556.5 1555.67 2586.5 1576.5H2397C2367.17 1556.33 2297.3 1511.8 2256.5 1495C2215.7 1478.2 2126.17 1428 2086.5 1405C2020 1377.83 1868.1 1295 1792.5 1181C1698 1038.5 1658 1067.5 1640.5 1066.5C1626.5 1065.7 1612 1074.17 1606.5 1078.5L1262 1405L1160.5 1374L1046 1362.5L1008.5 1348L1299.5 1130C1350 1071.5 1460.3 945.7 1497.5 910.5Z" fill="#A9667D"/>
<path d="M1587.5 1118C1613.1 1102.4 1636.17 1101.17 1644.5 1102.5C1668.5 1100.67 1707 1122 1719.5 1134C1732 1146 1765.5 1191 1794 1240.5C1816.8 1280.1 1858.83 1313.33 1877 1325C1842.67 1317.5 1769.3 1299.8 1750.5 1289C1727 1275.5 1666.5 1171 1649 1154C1631.5 1137 1578.5 1161 1563.5 1171C1551.5 1179 1384.5 1310 1302.5 1374.5C1341.17 1337.5 1424.8 1258.9 1450 1240.5C1481.5 1217.5 1555.5 1137.5 1587.5 1118Z" fill="#8E749B"/>
<path d="M1567 887.902C1592.6 872.302 1615.67 871.068 1624 872.402C1648 870.568 1686.5 891.902 1699 903.902C1711.5 915.902 1777.5 937.5 1867 1035.5C1956.5 1133.5 2006.83 1205.33 2025 1217C1990.67 1209.5 1948.28 1129 1810 1022.5C1671.72 916 1646 940.902 1628.5 923.902C1611 906.902 1558 930.902 1543 940.902C1531 948.902 1364 1079.9 1282 1144.4C1320.67 1107.4 1404.3 1028.8 1429.5 1010.4C1461 987.402 1535 907.402 1567 887.902Z" fill="#8E749B"/>
<path d="M1567 955.902C1592.6 940.302 1615.67 939.068 1624 940.402C1648 938.568 1686.5 959.902 1699 971.902C1711.5 983.902 1744.5 974 1892 1116C2039.5 1258 2210.33 1423.33 2228.5 1435C2194.17 1427.5 1867 1149.5 1757 1054.5C1647 959.5 1646 1008.9 1628.5 991.902C1611 974.902 1558 998.902 1543 1008.9C1531 1016.9 1364 1147.9 1282 1212.4C1320.67 1175.4 1404.3 1096.8 1429.5 1078.4C1461 1055.4 1535 975.402 1567 955.902Z" fill="#8E749B"/>
<path d="M276.738 1008C217.086 980.8 68.0578 899.333 1 862V1577H2903V1390C2619.26 1380.5 2012.33 1351.3 1854.6 1310.5C1657.43 1259.5 1555.34 1283.5 1534.82 1283.5C1514.3 1283.5 1320.64 1416 1262.59 1402.5C1204.54 1389 1140.48 1358 1068.92 1361.5C997.358 1365 973.838 1341 847.729 1310.5C721.621 1280 558.981 1181.5 544.969 1171C530.957 1160.5 351.302 1042 276.738 1008Z" fill="#A27437" stroke="black"/>
<path d="M1270 53.0962C1320.8 25.0962 1383.17 48.4295 1408 63.5962C1408 63.5962 1449.5 115.596 1445.5 114.596C1441.5 113.596 1426.7 91.1962 1401.5 71.5962C1370.35 47.3679 1350.45 58.8345 1334.05 68.2792L1333.5 68.5962C1317 78.0962 1202 196.596 1090 302.596C1000.4 387.396 851 493.263 787.5 535.596L949 359.096L712 549.596L998 312.096C1067.5 237.43 1219.2 81.0962 1270 53.0962Z" fill="#615C56"/>
<path d="M2182 294L2059.5 255L2323.5 471.5C2387.83 539.5 2533.2 686.2 2600 729C2666.8 771.8 2828.83 842.167 2901.5 872V576.5C2831 523.167 2688.3 415.7 2681.5 412.5C2673 408.5 2504.5 357.5 2446 348C2399.2 340.4 2383.17 338.167 2381 338L2182 294Z" fill="#EEA39D"/>
<path d="M2211 502C2184.6 481.2 2170 443.333 2166 427C2188.33 437 2234.8 457.8 2242 461C2249.2 464.2 2272.67 508 2283.5 529.5L2259 539C2254 535.333 2237.4 522.8 2211 502Z" fill="#A0ABAE"/>
<path d="M2320.5 552.5C2296.9 528.1 2262.33 470.333 2248 444.5L2280.5 470L2306.5 488.5C2326.17 506.667 2368.6 547.1 2381 563.5C2393.4 579.9 2396.17 596 2396 602C2380.67 595.667 2344.1 576.9 2320.5 552.5Z" fill="#A0ABAE"/>
<path d="M2184.95 405.604C2175.09 398.65 2154.15 386.305 2153 384H2166C2171.17 390.122 2179.58 399.88 2184.95 405.604C2187.92 407.699 2189.88 409.305 2190 410C2190.15 410.88 2188.06 408.918 2184.95 405.604Z" fill="#A0ABAE"/>
</svg>
