<svg width="4863" height="901" viewBox="0 0 4863 901" fill="none" xmlns="http://www.w3.org/2000/svg">
<path d="M304.53 672.881L0 752.902L0.000396729 901H4862.93V752.902C4850.51 734.748 4755.84 727.821 4710.06 726.627C4657.92 735.385 4539.29 743.109 4481.97 703.934C4410.31 654.967 4295.66 672.881 4219.23 672.881C4142.8 672.881 4093.84 596.444 3918.29 520.006C3742.73 443.568 3624.5 451.929 3591.07 463.872C3557.63 475.816 3396.41 398.184 3191 330.107C2985.59 262.029 2672.7 32.7162 2601.04 10.0237C2543.72 -8.13021 2386.88 2.45959 2315.62 10.0237C2109.82 111.543 1672.41 317.685 1569.23 330.107C1466.04 342.528 1411.59 348.022 1397.26 349.216C1177.52 448.346 731.35 642.784 704.599 627.497C677.848 612.21 649.664 600.425 638.916 596.444C601.098 621.923 513.999 667.626 468.14 646.606C422.282 625.586 339.959 655.364 304.53 672.881Z" fill="#4B4D96"/>
<path d="M1645.95 309.439C1704.24 289.36 2110.59 107.064 2302.9 13.0473C2302.9 13.0473 2327.98 9.46196 2410.4 2.29121C2492.82 -4.87955 2607.49 7.072 2607.49 7.072C2640.53 26.9908 2743.89 90.2523 2902.52 183.95C3061.14 277.648 3365.97 394.292 3512.89 449.268L3275.19 394.292L3373.14 449.268L3195.16 377.561L3331.33 466L3143.8 377.561L2963.44 301.073L3107.97 394.292L2996.88 359.634L3133.05 457.634L2846.38 301.073L2944.32 409.829L2822.49 327.365L2902.52 434.927L2742.46 369.195L2793.82 449.268L2619.43 359.634L2519.1 327.365L2451.01 222.194L2519.1 369.195L2437.87 287.926L2354.26 359.634L2397.26 301.073L2347.09 309.439L2243.18 384.731L2115.37 425.366L2213.32 359.634L2243.18 301.073L2213.32 339.317L2165.54 350.073L2048.48 417L2067.59 359.634L1860.95 425.366L1912.31 394.292L1783.31 449.268L1992.34 301.073L1849 394.292L1721.2 417L1905.14 320.195L1696.11 417L1542.03 433.732L1708.06 328.561L1645.95 350.073L1542.03 369.195L1399.89 350.073C1456.03 348.479 1587.66 329.517 1645.95 309.439Z" fill="#D9D9D9"/>
</svg>
