<svg width="2191" height="844" viewBox="0 0 2191 844" fill="none" xmlns="http://www.w3.org/2000/svg">
<path d="M1780.52 73.5139L1651.42 648.538H729.73C729.73 648.538 1040.92 -237.569 1780.52 73.5139Z" fill="#2F4152"/>
<path d="M729.73 648.54H1351.98C1416.53 227.883 1780.52 73.2749 1780.52 73.2749C1040.92 -237.567 729.73 648.54 729.73 648.54Z" fill="#D0E0D7"/>
<path d="M1351.98 651.79H729.672L726.842 647.756C796.088 400.552 1222.58 -205.478 1781.55 70.5645V76.5851C1623 146.002 1390.16 363.465 1354.81 649.502L1351.98 651.79ZM734.007 645.769H1349.39C1395.76 350.762 1594.46 162.739 1773 73.8157C1232.64 -186.092 817.283 374.061 733.827 645.769H734.007Z" fill="#A5BFAF"/>
<path d="M1352.04 651.791H1255.16L1252.15 648.479C1267.74 475.388 1410.57 138.056 1685.69 36.9707C1717.3 44.2556 1749.21 57.7416 1782.03 70.746V76.5859C1623.49 146.003 1390.64 363.406 1355.29 649.503L1352.04 651.791ZM1258.53 645.77H1349.45C1395.82 350.763 1594.52 162.74 1773.06 73.8165C1743.91 61.7754 1714.95 51.4802 1686.89 43.1116C1411.71 152.385 1281.77 455.882 1258.53 645.77Z" fill="#A5BFAF"/>
<path d="M1587.36 92.3919L1585.38 98.0762L1684.24 132.577L1686.23 126.892L1587.36 92.3919Z" fill="#A5BFAF"/>
<path d="M1500.22 158.378L1498.24 164.062L1597.1 198.563L1599.09 192.879L1500.22 158.378Z" fill="#A5BFAF"/>
<path d="M1425.2 234.636L1423.22 240.32L1522.08 274.821L1524.06 269.137L1425.2 234.636Z" fill="#A5BFAF"/>
<path d="M1365.37 326.72L1363.38 332.404L1457.7 365.318L1459.68 359.633L1365.37 326.72Z" fill="#A5BFAF"/>
<path d="M1318.84 423.884L1316.85 429.568L1405.31 460.438L1407.3 454.754L1318.84 423.884Z" fill="#A5BFAF"/>
<path d="M1280.7 528.503L1278.72 534.188L1368.71 565.593L1370.7 559.909L1280.7 528.503Z" fill="#A5BFAF"/>
<path d="M1090.83 649.262L1084.81 648.298C1127.62 312.351 1417.92 79.8968 1608.25 17.584L1610.12 23.3034C1420.69 85.7969 1133.89 315.301 1090.83 649.262Z" fill="#A5BFAF"/>
<path d="M938.191 649.262L932.17 648.299C973.657 311.147 1281.95 68.5181 1472.65 4.51953L1474.58 10.1789C1284.78 74.4183 979.919 313.977 938.191 649.262Z" fill="#A5BFAF"/>
<path d="M1651.36 651.789H1351.98V645.769H1648.96L1777.57 72.9121L1783.47 74.2366L1654.31 649.441L1651.36 651.789Z" fill="#A5BFAF"/>
<path d="M361.705 160.212L471.354 648.54H1254.13C1254.13 648.54 989.915 -104.031 361.705 160.212Z" fill="#2F4152"/>
<path d="M1254.19 648.54H725.697C670.842 291.279 361.765 159.971 361.765 159.971C989.915 -104.031 1254.19 648.54 1254.19 648.54Z" fill="#EFF9F3"/>
<path d="M1254.19 651.789H725.697L722.746 649.2C668.554 297.72 363.631 164.304 360.56 162.979V157.44C835.767 -78.2646 1199.94 440.407 1257.02 647.755L1254.19 651.789ZM728.286 645.769H1249.86C1181.76 415.121 819.329 -60.0824 369.231 160.391C413.548 181.703 677.164 321.14 728.286 645.769Z" fill="#A5BFAF"/>
<path d="M807.889 651.789H725.637L722.686 649.2C668.494 297.66 363.571 164.304 360.5 162.98V157.441C388.319 146.423 415.475 134.683 442.511 128.723C675.719 213.914 798.315 502.359 810.899 648.478L807.889 651.789ZM728.226 645.769H804.517C799.76 608.201 747.675 264.246 441.186 134.683C416.686 142.037 392.57 150.617 368.93 160.391C413.488 181.643 677.104 321.08 728.226 645.769Z" fill="#A5BFAF"/>
<path d="M525.606 175.743L441.632 205.031L443.616 210.716L527.589 181.428L525.606 175.743Z" fill="#A5BFAF"/>
<path d="M599.512 231.927L515.538 261.215L517.521 266.899L601.495 237.611L599.512 231.927Z" fill="#A5BFAF"/>
<path d="M663.24 296.739L579.267 326.027L581.25 331.712L665.223 302.424L663.24 296.739Z" fill="#A5BFAF"/>
<path d="M714.034 374.992L633.927 402.932L635.91 408.616L716.017 380.677L714.034 374.992Z" fill="#A5BFAF"/>
<path d="M753.448 457.567L678.344 483.762L680.327 489.446L755.431 463.252L753.448 457.567Z" fill="#A5BFAF"/>
<path d="M786.04 546.154L709.571 572.824L711.554 578.509L788.023 551.838L786.04 546.154Z" fill="#A5BFAF"/>
<path d="M947.043 649.261C910.915 366.295 666.507 170.446 506.278 118.007L508.085 112.287C670.662 165.75 916.094 362.261 952.944 648.117L947.043 649.261Z" fill="#A5BFAF"/>
<path d="M1076.68 649.261C1041.76 365.21 781.635 160.812 621.346 106.868L623.272 101.148C785.85 156.176 1046.82 361.116 1082.58 648.297L1076.68 649.261Z" fill="#A5BFAF"/>
<path d="M725.637 651.791H471.354L468.403 649.443L358.754 160.874L364.595 159.609L473.762 645.77H725.637V651.791Z" fill="#A5BFAF"/>
<path d="M2081.65 251.844L1992.29 648.539H1356.56C1356.56 648.539 1571.22 37.151 2081.65 251.844Z" fill="#2F4152"/>
<path d="M1356.5 648.539H1785.88C1830.44 358.288 2081.59 251.603 2081.59 251.603C1571.22 37.1508 1356.5 648.539 1356.5 648.539Z" fill="#D0E0D7"/>
<path d="M1785.88 651.79H1356.5L1353.67 647.757C1401.48 476.833 1696.4 58.1025 2082.8 249.075V254.614C2080.27 255.637 1832.67 364.068 1788.89 649.202L1785.88 651.79ZM1360.83 645.77H1783.29C1824.6 384.718 2034.93 271.05 2074.13 251.965C1710.31 74.4183 1416.53 458.109 1360.83 645.77Z" fill="#A5BFAF"/>
<path d="M1785.94 651.79H1719.1L1716.09 648.479C1716.39 645.348 1749.75 337.577 2015.72 225.715C2037.94 230.23 2060.1 240.104 2082.8 249.075V254.614C2080.33 255.637 1832.67 364.007 1788.89 649.201L1785.94 651.79ZM1722.48 645.77H1783.35C1824.66 384.718 2034.99 271.05 2074.19 251.965C2054.86 244.078 2035.71 237.274 2017.1 231.675C1770.05 336.253 1726.81 612.416 1722.48 645.77Z" fill="#A5BFAF"/>
<path d="M1948.72 263.962L1946.73 269.646L2014.95 293.454L2016.94 287.769L1948.72 263.962Z" fill="#A5BFAF"/>
<path d="M1888.47 309.577L1886.49 315.262L1954.71 339.069L1956.7 333.385L1888.47 309.577Z" fill="#A5BFAF"/>
<path d="M1836.76 362.199L1834.77 367.883L1902.99 391.69L1904.98 386.006L1836.76 362.199Z" fill="#A5BFAF"/>
<path d="M1795.47 425.743L1793.49 431.428L1858.58 454.144L1860.56 448.459L1795.47 425.743Z" fill="#A5BFAF"/>
<path d="M1763.43 492.837L1761.45 498.521L1822.51 519.829L1824.49 514.145L1763.43 492.837Z" fill="#A5BFAF"/>
<path d="M1737.13 565.054L1735.14 570.738L1797.28 592.423L1799.26 586.738L1737.13 565.054Z" fill="#A5BFAF"/>
<path d="M1606.93 649.262L1600.9 648.299C1655.1 314.157 1959.66 213.313 1962.73 212.35L1964.6 218.069C1961.28 219.033 1660.34 318.853 1606.93 649.262Z" fill="#A5BFAF"/>
<path d="M1501.31 649.262L1495.29 648.298C1549.48 314.157 1865.66 204.342 1868.61 203.318L1870.54 208.978C1867.71 210.061 1555.02 318.793 1501.31 649.262Z" fill="#A5BFAF"/>
<path d="M1992.47 651.79H1785.94V645.769H1990.07L2078.7 251.182L2084.54 252.506L1995.43 649.442L1992.47 651.79Z" fill="#A5BFAF"/>
<path d="M927.533 348.896L994.912 648.539H1475.36C1475.36 648.539 1313.14 186.702 927.533 348.896Z" fill="#2F4152"/>
<path d="M1475.42 648.539H1150.99C1117.33 429.27 927.594 348.655 927.594 348.655C1313.2 186.702 1475.42 648.539 1475.42 648.539Z" fill="#EFF9F3"/>
<path d="M1475.42 651.79H1150.99L1148.04 649.201C1115.04 434.207 928.316 352.447 926.39 351.665V346.126C1218.79 201.09 1443.02 520.12 1478.19 647.756L1475.42 651.79ZM1153.58 645.769H1471.08C1426.89 501.276 1207.47 217.888 935.181 349.076C968.178 365.572 1122.57 451.787 1153.58 645.769Z" fill="#A5BFAF"/>
<path d="M1201.45 651.791H1150.99L1147.98 649.202C1114.98 434.087 928.256 352.448 926.39 351.666V346.127C943.791 339.444 960.651 331.497 977.631 328.486C1178.99 413.135 1204.22 646.131 1204.46 648.479L1201.45 651.791ZM1153.28 645.77H1197.83C1193.98 617.233 1160.14 412.533 976.066 334.447C962.578 338.48 948.729 343.417 934.759 349.077C968.118 365.573 1122.51 451.727 1153.52 645.77H1153.28Z" fill="#A5BFAF"/>
<path d="M1027.79 357.345L976.22 375.33L978.203 381.015L1029.77 363.03L1027.79 357.345Z" fill="#A5BFAF"/>
<path d="M1073.14 391.868L1021.58 409.854L1023.56 415.538L1075.13 397.553L1073.14 391.868Z" fill="#A5BFAF"/>
<path d="M1112.31 431.566L1060.75 449.551L1062.73 455.235L1114.3 437.25L1112.31 431.566Z" fill="#A5BFAF"/>
<path d="M1143.48 479.584L1094.3 496.736L1096.29 502.421L1145.47 485.268L1143.48 479.584Z" fill="#A5BFAF"/>
<path d="M1167.82 530.071L1121.73 546.201L1123.72 551.884L1169.81 535.754L1167.82 530.071Z" fill="#A5BFAF"/>
<path d="M1187.67 584.545L1140.79 600.953L1142.78 606.636L1189.66 590.227L1187.67 584.545Z" fill="#A5BFAF"/>
<path d="M1285.68 649.262C1245.16 399.95 1018.28 324.814 1015.99 324.151L1017.79 318.131C1020.08 318.914 1250.52 395.194 1291.65 648.118L1285.68 649.262Z" fill="#A5BFAF"/>
<path d="M1365.29 649.262C1324.76 400.071 1088.97 318.131 1086.56 317.228L1088.49 311.207C1090.89 312.05 1330.12 395.134 1371.49 647.997L1365.29 649.262Z" fill="#A5BFAF"/>
<path d="M1150.93 651.789H994.853L991.962 649.441L924.583 349.557L930.484 348.232L997.261 645.769H1150.93V651.789Z" fill="#A5BFAF"/>
<path d="M109.528 348.896L176.847 648.539H657.293C657.293 648.539 495.138 186.702 109.528 348.896Z" fill="#2F4152"/>
<path d="M657.354 648.539H332.921C299.262 429.27 109.528 348.655 109.528 348.655C495.138 186.702 657.354 648.539 657.354 648.539Z" fill="#EFF9F3"/>
<path d="M657.354 651.79H332.922L329.972 649.201C296.974 434.207 110.251 352.447 108.385 351.665V346.126C400.783 201.09 625.019 520.12 660.184 647.756L657.354 651.79ZM335.511 645.769H653.019C608.822 501.276 389.403 217.888 117.116 349.076C150.113 365.572 304.501 451.787 335.511 645.769Z" fill="#A5BFAF"/>
<path d="M383.442 651.791H332.922L329.972 649.202C296.914 434.087 110.191 352.448 108.325 351.666V346.127C125.726 339.444 142.586 331.497 159.567 328.486C360.982 413.135 386.151 646.131 386.392 648.54L383.442 651.791ZM335.271 645.77H379.769C375.915 617.233 342.135 412.533 158.001 334.447C144.513 338.48 130.664 343.417 116.694 349.077C150.113 365.573 304.501 451.727 335.511 645.77H335.271Z" fill="#A5BFAF"/>
<path d="M209.72 357.308L158.154 375.293L160.137 380.978L211.704 362.992L209.72 357.308Z" fill="#A5BFAF"/>
<path d="M255.081 391.851L203.514 409.836L205.497 415.521L257.064 397.535L255.081 391.851Z" fill="#A5BFAF"/>
<path d="M294.25 431.548L242.683 449.533L244.666 455.218L296.233 437.233L294.25 431.548Z" fill="#A5BFAF"/>
<path d="M322.346 470.123L273.386 487.309L275.373 492.968L324.333 475.782L322.346 470.123Z" fill="#A5BFAF"/>
<path d="M346.662 520.436L300.758 536.549L302.745 542.208L348.649 526.095L346.662 520.436Z" fill="#A5BFAF"/>
<path d="M369.436 584.758L322.531 601.117L324.514 606.802L371.419 590.443L369.436 584.758Z" fill="#A5BFAF"/>
<path d="M467.681 649.262C427.097 399.95 200.211 324.814 197.923 324.151L199.729 318.131C202.078 318.914 432.456 395.194 473.582 648.118L467.681 649.262Z" fill="#A5BFAF"/>
<path d="M547.163 649.262C506.639 400.071 270.842 318.131 268.494 317.228L270.42 311.207C272.829 312.05 511.998 395.134 553.124 647.997L547.163 649.262Z" fill="#A5BFAF"/>
<path d="M332.922 651.789H176.788L173.898 649.441L106.579 349.557L112.419 348.232L179.257 645.769H332.922V651.789Z" fill="#A5BFAF"/>
<path d="M2188.11 744.988H3.01074V840.896H2188.11V744.988Z" fill="#BA722F"/>
<path d="M2191 843.847H0V741.979H2191V843.847ZM5.90097 837.826H2184.98V747.999H6.02138L5.90097 837.826Z" fill="#A85E2A"/>
<path d="M113.503 744.988H107.482V840.836H113.503V744.988Z" fill="#A85E2A"/>
<path d="M185.158 744.988H179.136V840.836H185.158V744.988Z" fill="#A85E2A"/>
<path d="M256.752 744.988H250.73V840.836H256.752V744.988Z" fill="#A85E2A"/>
<path d="M400.06 744.988H394.039V840.836H400.06V744.988Z" fill="#A85E2A"/>
<path d="M328.406 744.988H322.385V840.836H328.406V744.988Z" fill="#A85E2A"/>
<path d="M471.715 744.988H465.693V840.836H471.715V744.988Z" fill="#A85E2A"/>
<path d="M614.964 744.988H608.942V840.836H614.964V744.988Z" fill="#A85E2A"/>
<path d="M41.8485 744.988H35.8271V840.836H41.8485V744.988Z" fill="#A85E2A"/>
<path d="M543.37 744.988H537.349V840.836H543.37V744.988Z" fill="#A85E2A"/>
<path d="M149.33 744.988H143.309V840.836H149.33V744.988Z" fill="#A85E2A"/>
<path d="M364.234 744.988H358.212V840.836H364.234V744.988Z" fill="#A85E2A"/>
<path d="M220.924 744.988H214.903V840.836H220.924V744.988Z" fill="#A85E2A"/>
<path d="M507.542 744.988H501.521V840.836H507.542V744.988Z" fill="#A85E2A"/>
<path d="M650.791 744.988H644.77V840.836H650.791V744.988Z" fill="#A85E2A"/>
<path d="M758.272 744.988H752.251V840.836H758.272V744.988Z" fill="#A85E2A"/>
<path d="M77.6757 744.988H71.6543V840.836H77.6757V744.988Z" fill="#A85E2A"/>
<path d="M292.579 744.988H286.557V840.836H292.579V744.988Z" fill="#A85E2A"/>
<path d="M435.888 744.988H429.867V840.836H435.888V744.988Z" fill="#A85E2A"/>
<path d="M686.618 744.988H680.597V840.836H686.618V744.988Z" fill="#A85E2A"/>
<path d="M579.137 744.988H573.115V840.836H579.137V744.988Z" fill="#A85E2A"/>
<path d="M722.445 744.988H716.424V840.836H722.445V744.988Z" fill="#A85E2A"/>
<path d="M865.755 744.988H859.733V840.836H865.755V744.988Z" fill="#A85E2A"/>
<path d="M829.927 744.988H823.905V840.836H829.927V744.988Z" fill="#A85E2A"/>
<path d="M794.1 744.988H788.078V840.836H794.1V744.988Z" fill="#A85E2A"/>
<path d="M1223.97 744.988H1217.94V840.836H1223.97V744.988Z" fill="#A85E2A"/>
<path d="M973.176 744.988H967.154V840.836H973.176V744.988Z" fill="#A85E2A"/>
<path d="M1510.52 744.988H1504.5V840.836H1510.52V744.988Z" fill="#A85E2A"/>
<path d="M1116.48 744.988H1110.46V840.836H1116.48V744.988Z" fill="#A85E2A"/>
<path d="M1044.83 744.988H1038.81V840.836H1044.83V744.988Z" fill="#A85E2A"/>
<path d="M1582.18 744.988H1576.16V840.836H1582.18V744.988Z" fill="#A85E2A"/>
<path d="M1653.77 744.988H1647.75V840.836H1653.77V744.988Z" fill="#A85E2A"/>
<path d="M937.349 744.988H931.327V840.836H937.349V744.988Z" fill="#A85E2A"/>
<path d="M1367.21 744.988H1361.19V840.836H1367.21V744.988Z" fill="#A85E2A"/>
<path d="M901.581 744.988H895.56V840.836H901.581V744.988Z" fill="#A85E2A"/>
<path d="M1438.87 744.988H1432.85V840.836H1438.87V744.988Z" fill="#A85E2A"/>
<path d="M1295.56 744.988H1289.54V840.836H1295.56V744.988Z" fill="#A85E2A"/>
<path d="M1725.43 744.988H1719.41V840.836H1725.43V744.988Z" fill="#A85E2A"/>
<path d="M1797.08 744.988H1791.06V840.836H1797.08V744.988Z" fill="#A85E2A"/>
<path d="M1868.74 744.988H1862.71V840.836H1868.74V744.988Z" fill="#A85E2A"/>
<path d="M1080.66 744.988H1074.64V840.836H1080.66V744.988Z" fill="#A85E2A"/>
<path d="M1331.39 744.988H1325.37V840.836H1331.39V744.988Z" fill="#A85E2A"/>
<path d="M1832.91 744.988H1826.89V840.836H1832.91V744.988Z" fill="#A85E2A"/>
<path d="M1761.25 744.988H1755.23V840.836H1761.25V744.988Z" fill="#A85E2A"/>
<path d="M2011.98 744.988H2005.96V840.836H2011.98V744.988Z" fill="#A85E2A"/>
<path d="M1259.73 744.988H1253.71V840.836H1259.73V744.988Z" fill="#A85E2A"/>
<path d="M1188.14 744.988H1182.12V840.836H1188.14V744.988Z" fill="#A85E2A"/>
<path d="M1618 744.988H1611.98V840.836H1618V744.988Z" fill="#A85E2A"/>
<path d="M2047.81 744.988H2041.79V840.836H2047.81V744.988Z" fill="#A85E2A"/>
<path d="M2083.64 744.988H2077.62V840.836H2083.64V744.988Z" fill="#A85E2A"/>
<path d="M1009 744.988H1002.98V840.836H1009V744.988Z" fill="#A85E2A"/>
<path d="M1546.35 744.988H1540.33V840.836H1546.35V744.988Z" fill="#A85E2A"/>
<path d="M1152.31 744.988H1146.29V840.836H1152.31V744.988Z" fill="#A85E2A"/>
<path d="M1474.7 744.988H1468.67V840.836H1474.7V744.988Z" fill="#A85E2A"/>
<path d="M1940.39 744.988H1934.37V840.836H1940.39V744.988Z" fill="#A85E2A"/>
<path d="M1976.22 744.988H1970.2V840.836H1976.22V744.988Z" fill="#A85E2A"/>
<path d="M1403.04 744.988H1397.02V840.836H1403.04V744.988Z" fill="#A85E2A"/>
<path d="M1904.56 744.988H1898.54V840.836H1904.56V744.988Z" fill="#A85E2A"/>
<path d="M1689.6 744.988H1683.58V840.836H1689.6V744.988Z" fill="#A85E2A"/>
<path d="M2119.47 744.988H2113.45V840.836H2119.47V744.988Z" fill="#A85E2A"/>
<path d="M2155.29 744.988H2149.27V840.836H2155.29V744.988Z" fill="#A85E2A"/>
<path d="M2084.06 649.08H107.06V744.988H2084.06V649.08Z" fill="#A85E2A"/>
<path d="M2084.06 747.998H107.06L104.05 744.988V649.081L107.06 646.07H2084.06L2087.07 649.081V744.868L2084.06 747.998ZM110.071 741.978H2081.05V652.091H110.071V741.978Z" fill="#8C4D22"/>
<path d="M414.994 715.307H271.685L268.674 712.297V685.686L271.685 682.676H414.994L418.005 685.686V712.297L414.994 715.307ZM274.696 709.287H411.983V688.696H274.696V709.287Z" fill="#8C4D22"/>
<path d="M715.762 715.307H572.453L569.442 712.297V685.686L572.453 682.676H715.762L718.773 685.686V712.297L715.762 715.307ZM575.464 709.287H712.751V688.696H575.464V709.287Z" fill="#8C4D22"/>
<path d="M1016.83 715.307H873.521L870.511 712.297V685.686L873.521 682.676H1016.83L1019.84 685.686V712.297L1016.83 715.307ZM876.532 709.287H1013.82V688.696H876.532V709.287Z" fill="#8C4D22"/>
<path d="M1317.9 715.307H1174.41L1171.4 712.297V685.686L1174.41 682.676H1317.9L1320.91 685.686V712.297L1317.9 715.307ZM1177.66 709.287H1314.89V688.696H1177.42L1177.66 709.287Z" fill="#8C4D22"/>
<path d="M1618.55 715.307H1475.3L1472.29 712.297V685.686L1475.3 682.676H1618.55L1621.56 685.686V712.297L1618.55 715.307ZM1478.31 709.287H1615.54V688.696H1478.31V709.287Z" fill="#8C4D22"/>
<path d="M1919.44 715.307H1776.19L1773.18 712.297V685.686L1776.19 682.676H1919.44L1922.45 685.686V712.297L1919.44 715.307ZM1779.2 709.287H1916.42V688.696H1779.2V709.287Z" fill="#8C4D22"/>
</svg>
