<svg width="62" height="68" viewBox="0 0 62 68" fill="none" xmlns="http://www.w3.org/2000/svg">
<path d="M30.9006 66.9983C27.119 67.3008 17.1763 65.8008 12.6384 66.9983C13.6884 52.5991 26.5997 32.672 33.0845 24.2883C33.8993 24.4701 35.2316 23.7645 36.3001 24.0782C37.7825 24.5135 38.9202 25.9951 38.9202 26.3468C31.2058 35.1199 30.3333 58.4268 30.9006 66.9983Z" fill="white"/>
<path d="M11.6761 30.0261C15.4704 25.7788 29.5384 24.5282 36.0981 24.4338C42.6669 29.3775 45.7445 37.3418 46.4622 40.706C49.4019 35.9055 47.6871 28.4575 46.4622 25.3336C53.4742 25.3605 59.3625 32.0871 61.4302 35.447C61.1942 19.1306 46.5993 15.3278 46.5634 15.4561C47.723 11.114 53.7214 10.2757 56.5757 10.3993C49.4019 4.57399 43.4271 7.4653 41.3365 9.63913C33.578 -0.72431 25.5506 -0.106119 22.5067 1.49841C31.1712 2.4045 33.4789 8.52997 33.5497 11.4794C14.635 2.47515 3.96012 14.1459 0.987 21.1067C9.42499 14.2544 19.51 15.2785 23.4978 16.6471C13.4175 20.3281 11.4166 27.1002 11.6761 30.0261Z" fill="white"/>
</svg>
