<svg width="87" height="85" viewBox="0 0 87 85" fill="none" xmlns="http://www.w3.org/2000/svg">
<path d="M26.1809 6.2959H15.1122V24.6284L26.1809 13.5597V6.2959Z" fill="white" stroke="white"/>
<path d="M85.3295 42.9611L43.4758 1.10742L1.62219 42.9611L3.69756 45.0364L43.4758 5.25816L83.2541 45.0364L85.3295 42.9611Z" fill="white"/>
<path d="M77.6044 83.8922V44.114L43.4758 9.98544L9.34728 44.114V83.8922H20.6466V54.3756H37.8262V83.8922H77.6044Z" fill="white"/>
<path d="M85.3295 42.9611L43.4758 1.10742L1.62219 42.9611L3.69756 45.0364L43.4758 5.25816L83.2541 45.0364L85.3295 42.9611Z" stroke="white"/>
<path d="M77.6044 83.8922V44.114L43.4758 9.98544L9.34728 44.114V83.8922H20.6466V54.3756H37.8262V83.8922H77.6044Z" stroke="white"/>
<rect x="50.7455" y="54.0762" width="15.5598" height="12.3802" fill="#159DD2"/>
</svg>
