<svg width="56" height="85" viewBox="0 0 56 85" fill="none" xmlns="http://www.w3.org/2000/svg">
<g clip-path="url(#clip0_232_47)">
<path d="M0 12.6807H56V84.2075H0V12.6807Z" fill="white"/>
<path d="M6.06992 0H50.1259V11.2937H6.06992V0Z" fill="white"/>
<path d="M13.7063 24.7671H4.30768V32.0981H13.7063V24.7671Z" fill="#159DD2"/>
<path d="M13.7063 36.2588H4.30768V43.5898H13.7063V36.2588Z" fill="#159DD2"/>
<path d="M13.7063 47.9487H4.30768V55.0816H13.7063V47.9487Z" fill="#159DD2"/>
<path d="M13.7063 59.4404H4.30768V66.7714H13.7063V59.4404Z" fill="#159DD2"/>
<path d="M26.4336 24.7671H17.035V32.0981H26.4336V24.7671Z" fill="#159DD2"/>
<path d="M26.4336 36.2588H17.035V43.5898H26.4336V36.2588Z" fill="#159DD2"/>
<path d="M26.4336 47.9487H17.035V55.0816H26.4336V47.9487Z" fill="#159DD2"/>
<path d="M26.4336 59.4404H17.035V66.7714H26.4336V59.4404Z" fill="#159DD2"/>
<path d="M38.965 24.7671H29.7622V32.0981H38.965V24.7671Z" fill="#159DD2"/>
<path d="M38.965 36.2588H29.7622V43.5898H38.965V36.2588Z" fill="#159DD2"/>
<path d="M38.965 47.9487H29.7622V55.0816H38.965V47.9487Z" fill="#159DD2"/>
<path d="M38.965 59.4404H29.7622V66.7714H38.965V59.4404Z" fill="#159DD2"/>
<path d="M35.8321 71.1396H20.1677V84.4147H35.8321V71.1396Z" fill="#159DD2"/>
<path d="M51.6923 24.7671H42.4895V32.0981H51.6923V24.7671Z" fill="#159DD2"/>
<path d="M51.6923 36.2588H42.4895V43.5898H51.6923V36.2588Z" fill="#159DD2"/>
<path d="M51.6923 47.9487H42.4895V55.0816H51.6923V47.9487Z" fill="#159DD2"/>
<path d="M51.6923 59.4404H42.4895V66.7714H51.6923V59.4404Z" fill="#159DD2"/>
<path d="M21.7718 2.61663V7.72733H21.0881V5.40202H18.3637V7.72733H17.6799V2.61663H18.3637V4.89558H21.0881V2.61663H21.7718ZM27.7294 5.17377C27.7294 5.55656 27.6695 5.90845 27.5496 6.22943C27.4298 6.54803 27.2606 6.82265 27.0421 7.05328C26.8236 7.28391 26.5604 7.46342 26.2526 7.59181C25.9472 7.71782 25.6088 7.78083 25.2376 7.78083C24.8663 7.78083 24.528 7.71782 24.2225 7.59181C23.9171 7.46342 23.6551 7.28391 23.4366 7.05328C23.2181 6.82265 23.0489 6.54803 22.929 6.22943C22.8092 5.90845 22.7493 5.55656 22.7493 5.17377C22.7493 4.79097 22.8092 4.44027 22.929 4.12167C23.0489 3.80069 23.2181 3.52488 23.4366 3.29426C23.6551 3.06125 23.9171 2.88055 24.2225 2.75216C24.528 2.62377 24.8663 2.55957 25.2376 2.55957C25.6088 2.55957 25.9472 2.62377 26.2526 2.75216C26.5604 2.88055 26.8236 3.06125 27.0421 3.29426C27.2606 3.52488 27.4298 3.80069 27.5496 4.12167C27.6695 4.44027 27.7294 4.79097 27.7294 5.17377ZM27.028 5.17377C27.028 4.85992 26.9857 4.57817 26.9011 4.32852C26.8165 4.07887 26.6967 3.86845 26.5416 3.69726C26.3866 3.5237 26.1986 3.39055 25.9777 3.29782C25.7569 3.20509 25.5101 3.15873 25.2376 3.15873C24.9674 3.15873 24.7218 3.20509 24.501 3.29782C24.2801 3.39055 24.091 3.5237 23.9335 3.69726C23.7784 3.86845 23.6586 4.07887 23.574 4.32852C23.4894 4.57817 23.4471 4.85992 23.4471 5.17377C23.4471 5.48761 23.4894 5.76936 23.574 6.01901C23.6586 6.26628 23.7784 6.4767 23.9335 6.65027C24.091 6.82146 24.2801 6.95342 24.501 7.04614C24.7218 7.13649 24.9674 7.18167 25.2376 7.18167C25.5101 7.18167 25.7569 7.13649 25.9777 7.04614C26.1986 6.95342 26.3866 6.82146 26.5416 6.65027C26.6967 6.4767 26.8165 6.26628 26.9011 6.01901C26.9857 5.76936 27.028 5.48761 27.028 5.17377ZM31.8957 3.19796H30.2604V7.72733H29.5801V3.19796H27.9412V2.61663H31.8957V3.19796ZM35.7609 7.16384L35.7574 7.72733H32.6452V2.61663H35.7574V3.18013H33.329V4.87775H35.2957V5.41985H33.329V7.16384H35.7609ZM39.5789 7.146V7.72733H36.7135V2.61663H37.3937V7.146H39.5789Z" fill="#159DD2"/>
</g>
<defs>
<clipPath id="clip0_232_47">
<rect width="56" height="85" fill="white"/>
</clipPath>
</defs>
</svg>
