<svg width="306" height="1219" viewBox="0 0 306 1219" fill="none" xmlns="http://www.w3.org/2000/svg">
<path d="M92.0301 403.361C112.277 737.557 55.218 1037.65 0 1218.1L306 1219C245.26 944.715 231.609 561.557 225.474 404.264L92.0301 403.361Z" fill="#F0EEE2"/>
<rect x="59.8203" y="397.947" width="188.662" height="7.21805" fill="#B8B6AB"/>
<path d="M85.1307 401.557C50.1593 400.113 51.3856 351.632 55.2202 329.376H110.439L138.048 0.955078H156.454L193.266 329.376H257.686C262.287 401.557 239.28 398.85 227.777 401.557C216.275 404.263 120.102 403 85.1307 401.557Z" fill="#F0EEE2"/>
<path d="M124.243 194.94H177.16L156.453 0.955078H138.047L124.243 194.94Z" fill="#9D484B"/>
<path d="M119.64 233.736H181.76L186.362 271.631H115.039L119.64 233.736Z" fill="#D64F50"/>
<path d="M115.039 299.601L110.437 329.375H193.264L188.663 299.601H115.039Z" fill="#D64F50"/>
</svg>
