<svg width="2663" height="628" viewBox="0 0 2663 628" fill="none" xmlns="http://www.w3.org/2000/svg">
<path d="M5.52459 345.765C20.1053 408.948 85.1796 563.802 114.881 625.23H2567.28L2591.58 568.527C2688.79 374.117 2664.49 195.908 2646.26 155.406C2628.04 114.903 2553.11 31.8739 2419.45 7.57255C2285.79 -16.7288 1884.82 21.7484 1564.86 62.2504C1246.92 102.496 817.005 42.7653 740.043 32.0724L738.613 31.8739C665.71 21.7484 343.718 9.59766 315.367 7.57255C287.015 5.54745 171.583 27.8236 92.6041 62.2504C13.625 96.6771 -12.7014 266.786 5.52459 345.765Z" fill="#FE975E"/>
<path d="M1316.32 85.0527C396.921 85.0527 170.109 149.857 6.07568 263.262C6.07568 358.847 50.628 469.147 72.9041 512.349H2610.36C2644.38 426.485 2655.59 310.514 2656.94 263.262C2385.57 109.354 2235.72 85.0527 1316.32 85.0527Z" fill="#D6753F"/>
<path d="M68.854 510.326L115.431 627.782H2565.81L2612.39 510.326H68.854Z" fill="#65C0B0"/>
<rect x="1158.36" y="534.628" width="93.1548" height="68.8536" fill="#0E857E"/>
<rect x="1061.16" y="534.628" width="72.9038" height="68.8536" fill="#0E857E"/>
<rect x="943.7" y="534.628" width="93.1548" height="68.8536" fill="#0E857E"/>
<rect x="822.193" y="534.628" width="97.205" height="68.8536" fill="#0E857E"/>
<rect x="724.989" y="534.628" width="60.7531" height="68.8536" fill="#0E857E"/>
<rect x="611.584" y="534.628" width="93.1548" height="68.8536" fill="#0E857E"/>
<rect x="490.077" y="534.628" width="101.255" height="68.8536" fill="#0E857E"/>
<rect x="376.672" y="534.628" width="97.205" height="68.8536" fill="#0E857E"/>
<rect x="303.767" y="534.628" width="48.6025" height="68.8536" fill="#0E857E"/>
<rect x="210.613" y="534.628" width="72.9038" height="68.8536" fill="#0E857E"/>
<path d="M117.458 534.628H190.362V603.481L136.302 601.277C132.327 601.115 128.996 598.217 128.285 594.302L117.458 534.628Z" fill="#0E857E"/>
<path d="M81.0059 534.628H113.408L123.5 597.5L107.514 590.234C103.659 588.481 100.643 585.289 99.1124 581.34L81.0059 534.628Z" fill="#0E857E"/>
<rect x="1275.82" y="534.628" width="93.1548" height="68.8536" fill="#0E857E"/>
<rect x="1393.27" y="534.628" width="93.1548" height="68.8536" fill="#0E857E"/>
<rect x="1510.73" y="534.628" width="72.9038" height="68.8536" fill="#0E857E"/>
<rect x="1607.94" y="534.628" width="93.1548" height="68.8536" fill="#0E857E"/>
<rect x="1725.39" y="534.628" width="93.1548" height="68.8536" fill="#0E857E"/>
<rect x="1842.85" y="534.628" width="93.1548" height="68.8536" fill="#0E857E"/>
<rect x="1956.25" y="534.628" width="81.0042" height="68.8536" fill="#0E857E"/>
<rect x="2057.51" y="534.628" width="97.205" height="68.8536" fill="#0E857E"/>
<rect x="2174.96" y="534.628" width="141.757" height="68.8536" fill="#0E857E"/>
<rect x="2336.97" y="534.628" width="101.255" height="68.8536" fill="#0E857E"/>
<path d="M2458.48 534.628H2519.23C2519.23 534.628 2523.28 585.256 2505.06 599.431C2486.83 613.607 2458.48 603.481 2458.48 603.481V534.628Z" fill="#0E857E"/>
<path d="M2527.33 534.628H2588.09C2588.09 534.628 2591.27 577.155 2573.91 593.356C2556.55 609.557 2527.33 603.481 2527.33 603.481V534.628Z" fill="#0E857E"/>
<path d="M68.854 133.658C109.356 80.1948 189.685 49.2782 224.787 40.5028L141.758 133.658H68.854Z" fill="#F1EBC8"/>
<path d="M174.159 117.457L285.54 32.4023H380.72L305.791 117.457H174.159Z" fill="#F1EBC8"/>
<path d="M354.394 97.2057L415.147 32.4023L538.678 40.5028L518.427 91.1304L354.394 97.2057Z" fill="#F1EBC8"/>
<path d="M542.728 87.0802L569.055 40.5028L722.963 52.6534V87.0802H542.728Z" fill="#F1EBC8"/>
<path d="M749.289 76.9546V62.7789L931.549 76.9546H749.289Z" fill="#F1EBC8"/>
<path d="M1909.67 56.7036L1737.54 74.9295H1917.77L1909.67 56.7036Z" fill="#F1EBC8"/>
<path d="M1948.15 74.9295L1940.05 56.7036L2104.08 46.5781L2126.36 87.0802L1948.15 74.9295Z" fill="#F1EBC8"/>
<path d="M2154.71 87.0802L2126.36 38.4777H2253.94L2310.64 101.256L2154.71 87.0802Z" fill="#F1EBC8"/>
<path d="M2347.1 101.256L2294.44 38.4777L2387.6 46.5781L2488.85 119.482L2347.1 101.256Z" fill="#F1EBC8"/>
<path d="M2531.38 125.557L2450.38 46.5781C2528.14 53.0584 2578.63 110.031 2594.16 137.708L2531.38 125.557Z" fill="#F1EBC8"/>
</svg>
