<svg width="539" height="1072" viewBox="0 0 539 1072" fill="none" xmlns="http://www.w3.org/2000/svg">
<path d="M43.2989 736.961H78.4042V1071.24H460.039V736.961H495.144L511.664 703.926C520.318 702.648 528.971 701.272 537.526 699.797V666.762C525.038 668.925 512.451 670.99 499.864 672.858C490.031 670.105 476.165 665.976 460.53 660.077V501.688H495.636L512.156 468.752L538.018 464.524V431.49C525.529 433.653 512.942 435.717 500.355 437.585C490.522 434.832 476.657 430.703 461.022 424.903V278.115H496.127L512.156 245.376L538.018 241.148V208.113C525.529 210.276 512.942 212.341 500.355 214.209C461.022 203.296 362.688 170.36 285.102 94.2625H280.874V63.5876H275.761V59.3598H280.874V45.3989H275.761V40.778H280.874V31.9296H272.516V0.566406H266.32V31.9296H257.962V40.778H263.075V45.3989H257.962V59.3598H263.075V63.5876H257.962V94.2625H253.733C177.131 169.868 79.6822 202.903 39.2669 214.013C26.3851 212.046 13.6019 209.982 0.818496 207.72V240.755C9.40634 242.262 17.9613 243.639 26.4835 244.884L43.2005 278.312H78.3058V425.099C62.6707 430.802 48.8056 434.931 38.9722 437.585C26.0904 435.619 13.3066 433.554 0.523206 431.293V464.328L26.1889 468.555L42.9058 501.885H78.0105V659.782C62.3754 665.484 48.5103 669.613 38.6769 672.366C25.7951 670.4 13.0119 668.336 0.228516 666.074V699.01C8.78358 700.583 17.3385 701.96 25.8936 703.238L43.2989 736.961Z" fill="#FF1C1C"/>
<path d="M144.659 340.746H123.91V361.491H144.659V340.746Z" fill="white"/>
<path d="M212.509 340.746H191.761V361.491H212.509V340.746Z" fill="white"/>
<path d="M280.36 340.746H259.611V361.491H280.36V340.746Z" fill="white"/>
<path d="M348.31 340.746H327.562V361.491H348.31V340.746Z" fill="white"/>
<path d="M416.154 340.746H395.405V361.491H416.154V340.746Z" fill="white"/>
<path d="M144.659 575.33H123.91V596.075H144.659V575.33Z" fill="white"/>
<path d="M212.509 575.33H191.761V596.075H212.509V575.33Z" fill="white"/>
<path d="M280.36 575.33H259.611V596.075H280.36V575.33Z" fill="white"/>
<path d="M348.31 575.33H327.562V596.075H348.31V575.33Z" fill="white"/>
<path d="M416.154 575.33H395.405V596.075H416.154V575.33Z" fill="white"/>
<path d="M144.659 809.914H123.91V830.659H144.659V809.914Z" fill="#FF209A"/>
<path d="M144.659 809.914H123.91V830.659H144.659V809.914Z" fill="white"/>
<path d="M212.509 809.914H191.761V830.659H212.509V809.914Z" fill="white"/>
<path d="M280.36 809.914H259.611V830.659H280.36V809.914Z" fill="white"/>
<path d="M348.31 809.914H327.562V830.659H348.31V809.914Z" fill="white"/>
<path d="M416.154 809.914H395.405V830.659H416.154V809.914Z" fill="white"/>
<path d="M77.334 278.148H460.661V289.164H77.334V278.148Z" fill="#CF1414"/>
<path d="M77.334 502.857H460.661V513.873H77.334V502.857Z" fill="#CF1414"/>
<path d="M77.334 738.58H460.661V749.595H77.334V738.58Z" fill="#CF1414"/>
</svg>
