<svg width="2673" height="2260" viewBox="0 0 2673 2260" fill="none" xmlns="http://www.w3.org/2000/svg">
<rect x="2127.09" y="613.8" width="415.8" height="234.771" fill="#F0C48B"/>
<rect width="415.8" height="234.771" transform="matrix(-1 0 0 1 545.914 613.8)" fill="#F0C48B"/>
<rect x="2127.09" y="848.571" width="415.8" height="1400.14" fill="#F0C48B"/>
<rect width="415.8" height="1397.31" transform="matrix(-1 0 0 1 545.914 848.571)" fill="#F0C48B"/>
<path d="M2047.89 1377.91C2047.89 1355.82 2065.79 1337.91 2087.89 1337.91H2584.91C2607.01 1337.91 2624.91 1355.82 2624.91 1377.91V2246.71C2624.91 2247.82 2624.02 2248.71 2622.91 2248.71H2047.89V1377.91Z" fill="#F0C38B"/>
<path d="M625.114 1377.91C625.114 1355.82 607.206 1337.91 585.114 1337.91H88.0856C65.9943 1337.91 48.0857 1355.82 48.0857 1377.91V2243.89C48.0857 2244.99 48.9811 2245.89 50.0857 2245.89H625.114V1377.91Z" fill="#F0C38B"/>
<rect x="2186.49" y="562.886" width="294.171" height="50.9143" fill="#C7A070"/>
<rect width="294.171" height="50.9143" transform="matrix(-1 0 0 1 486.515 562.886)" fill="#C7A070"/>
<rect x="2206.29" y="511.972" width="254.571" height="50.9143" fill="#AB885D"/>
<rect width="254.571" height="50.9143" transform="matrix(-1 0 0 1 466.714 511.972)" fill="#AB885D"/>
<path d="M2281.24 292.758C2274.45 297.283 2243.53 439.843 2228.91 510.558H2433.99C2423.61 446.443 2399.48 313.123 2385.9 292.758C2368.93 267.3 2289.73 287.1 2281.24 292.758Z" fill="#927149"/>
<path d="M391.396 295.462C398.232 299.961 429.371 441.676 444.086 511.972H237.6C248.043 448.237 272.347 315.707 286.018 295.462C303.106 270.155 382.852 289.838 391.396 295.462Z" fill="#927149"/>
<path d="M2292.56 198C2248.43 217.234 2266.63 270.129 2281.24 294.172C2299.16 297.943 2344.32 301.809 2381.66 287.1C2418.99 272.392 2397.21 227.229 2381.66 206.486C2370.34 195.643 2336.68 178.766 2292.56 198Z" fill="#927149"/>
<path d="M379.9 201.03C423.479 220.105 405.507 272.564 391.074 296.409C373.381 300.149 328.778 303.983 291.903 289.396C255.029 274.808 276.539 230.017 291.903 209.445C303.077 198.692 336.32 181.954 379.9 201.03Z" fill="#927149"/>
<line x1="2326.26" x2="2326.26" y2="189.514" stroke="black" stroke-width="8"/>
<line y1="-4" x2="189.514" y2="-4" transform="matrix(0 1 1 0 350.743 2.82812)" stroke="black" stroke-width="8"/>
<line x1="2047.89" y1="844.571" x2="2593.8" y2="844.571" stroke="black" stroke-width="8"/>
<line y1="-4" x2="545.914" y2="-4" transform="matrix(-1 0 0 1 625.114 848.571)" stroke="black" stroke-width="8"/>
<path d="M2625 1353.26V2260H2475V1353.26C2555.77 1291.22 2608.65 1327.41 2625 1353.26Z" fill="#FFECD5"/>
<path d="M48 1352.75V2246H198V1352.75C117.231 1291.63 64.3461 1327.28 48 1352.75Z" fill="#FFECD5"/>
<path d="M2198 1374.97V2248H2037V1374.97C2112.7 1262.74 2175.87 1328.2 2198 1374.97Z" fill="#FFECD5"/>
<path d="M475 1374.83V2246H636V1374.83C560.302 1262.85 497.126 1328.17 475 1374.83Z" fill="#FFECD5"/>
<path d="M2036.57 1495.4V2245.89H1683V1375.27C1753.71 1370.56 1902.21 1363.96 1930.5 1375.27C1958.79 1386.58 2013 1460.07 2036.57 1495.4Z" fill="#F0C38B"/>
<path d="M636.429 1495.4V2245.89H987.172V1375.27C917.023 1370.56 769.711 1363.96 741.652 1375.27C713.592 1386.58 659.812 1460.07 636.429 1495.4Z" fill="#F0C38B"/>
<line x1="1683" y1="1505.29" x2="2673" y2="1505.29" stroke="black" stroke-width="16"/>
<line y1="-8" x2="987.171" y2="-8" transform="matrix(-1 8.74228e-08 8.74228e-08 1 987.172 1513.29)" stroke="black" stroke-width="16"/>
<rect x="1516.11" y="1261.54" width="166.886" height="984.343" fill="#FFECD4"/>
<rect width="166.886" height="984.343" transform="matrix(-1 0 0 1 1154.06 1261.54)" fill="#FFECD4"/>
<line x1="1588" y1="1128.6" x2="1588" y2="1261.54" stroke="black" stroke-width="8"/>
<line y1="-4" x2="132.943" y2="-4" transform="matrix(4.37114e-08 1 1 -4.37114e-08 1086.17 1128.6)" stroke="black" stroke-width="8"/>
<line x1="1326.61" y1="995.657" x2="1326.61" y2="1128.6" stroke="black" stroke-width="17"/>
<line y1="-8.5" x2="132.943" y2="-8.5" transform="matrix(4.37114e-08 1 1 -4.37114e-08 1352.06 995.657)" stroke="black" stroke-width="17"/>
<path d="M1524.6 1362.71V2245.89H1409.98V1996.35C1409.98 1960.47 1360.05 1934.67 1335.09 1926.26V1128.6H1420.2V1326.26C1465.59 1324.02 1508.71 1349.63 1524.6 1362.71Z" fill="#F0C38B"/>
<path d="M1154.06 1362.71V2245.89H1263.54V1996.35C1263.54 1960.47 1311.24 1934.67 1335.09 1926.26V1128.6H1253.79V1326.26C1210.43 1324.02 1169.23 1349.63 1154.06 1362.71Z" fill="#F0C38B"/>
<path d="M1923.91 1983.12V2245.89H1774V2114.5V1983.12C1803.43 1945 1841.43 1929.5 1851.43 1929.5C1861.43 1929.5 1894.93 1945 1923.91 1983.12Z" fill="white"/>
<path d="M886.914 1983.12V2245.89H737V2114.5V1983.12C766.429 1945 804.429 1929.5 814.429 1929.5C824.429 1929.5 857.929 1945 886.914 1983.12Z" fill="white"/>
<rect x="1815" y="1571" width="68" height="116" fill="#C7A070"/>
<rect x="2300" y="980" width="68" height="116" fill="#C7A070"/>
<rect x="305" y="980" width="68" height="116" fill="#C7A070"/>
<rect x="1301" y="1571" width="68" height="116" fill="#C7A070"/>
<rect x="812" y="1571" width="68" height="116" fill="#C7A070"/>
</svg>
