<svg width="1940" height="1505" viewBox="0 0 1940 1505" fill="none" xmlns="http://www.w3.org/2000/svg">
<g clip-path="url(#clip0_349_1880)">
<path d="M1939.68 1016.67H372.787V1499.31H1939.68V1016.67Z" fill="#B5C1C9"/>
<path d="M1939.68 1016.67H372.787V1262.62H1939.68V1016.67Z" fill="#D3DADD"/>
<path d="M1602.68 46.8718C1601.22 46.8718 1597.8 47.5279 1597.87 45.1223V1.96818C1597.87 -0.656059 1604.5 -0.656059 1604.5 1.96818C1603.34 3.13451 1606.98 48.2568 1602.68 46.8718Z" fill="white"/>
<path d="M1612.67 17.2759H1589.63C1587.37 17.2759 1587.44 9.98633 1589.63 9.98633H1612.67C1614.93 10.3508 1614.85 17.2759 1612.67 17.2759Z" fill="white"/>
<path d="M1608.58 75.8833C1594.01 77.5598 1573.08 74.5711 1574.18 55.2538C1574.18 36.5197 1594.22 34.187 1608.58 35.6449C1634.17 35.2804 1634.17 76.2477 1608.58 75.8833Z" fill="#196CB0"/>
<path d="M1608.58 75.8833C1594.01 77.5598 1573.08 74.5711 1574.18 55.2538C1574.18 36.5197 1594.22 34.187 1608.58 35.6449C1634.17 35.2804 1634.17 76.2477 1608.58 75.8833Z" fill="#22457F"/>
<path d="M1456.38 193.027C1457.25 3.4988 1745.12 3.4988 1745.92 193.027H1456.38Z" fill="#196CB0"/>
<g opacity="0.38">
<path d="M1601.15 48.1836C1594.22 48.2593 1587.3 48.8195 1580.45 49.8602C1614.86 54.8525 1646.32 72.0693 1669.08 98.3596C1691.83 124.65 1704.36 158.256 1704.37 193.027H1745.7C1745.7 154.663 1730.48 117.865 1703.38 90.7101C1676.28 63.5551 1639.51 48.2608 1601.15 48.1836Z" fill="#22457F"/>
</g>
<path d="M1507.84 118.893C1507.68 120.299 1507.01 121.598 1505.96 122.541C1504.9 123.484 1503.54 124.005 1502.12 124.005C1500.71 124.005 1499.34 123.484 1498.28 122.541C1497.23 121.598 1496.56 120.299 1496.4 118.893C1496.56 117.487 1497.23 116.188 1498.28 115.245C1499.34 114.302 1500.71 113.781 1502.12 113.781C1503.54 113.781 1504.9 114.302 1505.96 115.245C1507.01 116.188 1507.68 117.487 1507.84 118.893Z" fill="#1B7FBD"/>
<path d="M1709.55 118.893C1709.39 120.299 1708.71 121.598 1707.66 122.541C1706.6 123.484 1705.24 124.005 1703.82 124.005C1702.41 124.005 1701.04 123.484 1699.99 122.541C1698.93 121.598 1698.26 120.299 1698.1 118.893C1698.26 117.487 1698.93 116.188 1699.99 115.245C1701.04 114.302 1702.41 113.781 1703.82 113.781C1705.24 113.781 1706.6 114.302 1707.66 115.245C1708.71 116.188 1709.39 117.487 1709.55 118.893Z" fill="#1B7FBD"/>
<path d="M1606.91 128.952C1606.75 130.358 1606.08 131.657 1605.02 132.6C1603.97 133.542 1602.6 134.064 1601.18 134.064C1599.77 134.064 1598.4 133.542 1597.35 132.6C1596.29 131.657 1595.62 130.358 1595.46 128.952C1595.62 127.545 1596.29 126.247 1597.35 125.304C1598.4 124.361 1599.77 123.84 1601.18 123.84C1602.6 123.84 1603.97 124.361 1605.02 125.304C1606.08 126.247 1606.75 127.545 1606.91 128.952Z" fill="#1B7FBD"/>
<path d="M1546.48 186.686H1441.51V329.998H1546.48V186.686Z" fill="#BFCDD8"/>
<path d="M1651.37 186.686H1546.4V329.998H1651.37V186.686Z" fill="white"/>
<path d="M1756.34 186.686H1651.37V329.998H1756.34V186.686Z" fill="#BFCDD8"/>
<path d="M1750.07 176.115H1556.97V186.685H1750.07V176.115Z" fill="white"/>
<path d="M1557.05 176.115H1449.89V186.685H1557.05V176.115Z" fill="#B5C1C9"/>
<path d="M1751.68 176.115H1644.52V186.685H1751.68V176.115Z" fill="#B5C1C9"/>
<path d="M1495.96 210.085C1525.56 207.387 1509.59 274.816 1513.38 290.27H1479.41C1483.2 275.18 1467.6 208.627 1495.96 210.085Z" fill="#22457D"/>
<path d="M1598.45 210.085C1628.05 207.387 1612.08 274.816 1615.87 290.27H1581.91C1585.7 275.18 1570.1 208.627 1598.45 210.085Z" fill="#22457D"/>
<path d="M1706.7 210.085C1736.3 207.387 1720.33 274.816 1724.12 290.27H1690.15C1693.95 275.18 1678.35 208.627 1706.7 210.085Z" fill="#22457D"/>
<path d="M1807.73 329.998H1386.03C1379.71 329.998 1374.59 335.122 1374.59 341.443V466.458C1374.59 472.779 1379.71 477.903 1386.03 477.903H1807.73C1814.06 477.903 1819.18 472.779 1819.18 466.458V341.443C1819.18 335.122 1814.06 329.998 1807.73 329.998Z" fill="#DAE4EA"/>
<path d="M1853.44 673.627H1347.04V1016.67H1853.44V673.627Z" fill="#E8EDEF"/>
<path d="M1484.15 464.199C1484.88 311.119 1717.42 311.119 1718.44 464.199H1853.51V673.628H1347.11V464.272L1484.15 464.199Z" fill="white"/>
<path d="M1598.16 432.563C1601.93 432.395 1605.69 432.994 1609.23 434.321C1612.76 435.649 1615.98 437.679 1618.71 440.289C1621.43 442.898 1623.6 446.033 1625.08 449.503C1626.56 452.974 1627.32 456.709 1627.32 460.482V567.274H1570.02V460.482C1570.02 456.797 1570.75 453.148 1572.17 449.747C1573.59 446.345 1575.66 443.258 1578.28 440.662C1580.89 438.067 1584 436.015 1587.41 434.625C1590.82 433.235 1594.48 432.534 1598.16 432.563Z" fill="#22457D"/>
<path d="M1493.26 787.928H850.617V1016.67H1493.26V787.928Z" fill="#E7EEF2"/>
<path d="M1182.15 195.943C1180.54 195.214 1170.92 197.619 1171.14 194.193V108.031C1171.14 104.678 1180.54 106.865 1182.15 106.281C1182.61 106.281 1183.05 106.466 1183.38 106.794C1183.71 107.122 1183.9 107.567 1183.9 108.031V194.193C1183.9 194.657 1183.71 195.102 1183.38 195.43C1183.05 195.758 1182.61 195.943 1182.15 195.943Z" fill="white"/>
<path d="M1200.88 139.085H1154.01C1151.09 139.085 1153.13 128.442 1152.55 127.203C1152.55 126.816 1152.7 126.445 1152.98 126.172C1153.25 125.898 1153.62 125.745 1154.01 125.745H1200.88C1203.36 125.016 1203.21 139.814 1200.88 139.085Z" fill="white"/>
<path d="M1194.1 251.635C1162.68 253.967 1121.79 252.364 1125.65 209.72C1125.07 172.616 1167.35 172.543 1194.1 174.438C1241.05 173.709 1241.05 252.364 1194.1 251.635Z" fill="#22457F"/>
<path d="M899.385 476.663C901.061 112.842 1454.05 113.06 1455.65 476.663H899.385Z" fill="#196CB0"/>
<g opacity="0.4">
<path d="M1163.41 198.566C1154.23 198.566 1145.19 199.004 1136.22 199.806C1284.78 212.854 1401.2 331.819 1401.2 476.808H1456.01C1456.01 323.072 1324.8 198.566 1163.41 198.566Z" fill="#22457F"/>
</g>
<g opacity="0.4">
<path d="M1191.62 198.566C1200.81 198.566 1209.85 199.004 1218.81 199.806C1070.25 212.854 953.837 331.819 953.837 476.808H899.385C899.385 323.072 1030.23 198.566 1191.62 198.566Z" fill="#22457F"/>
</g>
<path d="M1080.75 464.562H879.119V739.816H1080.75V464.562Z" fill="#BFCDD8"/>
<path d="M1278.37 464.562H1076.74V739.816H1278.37V464.562Z" fill="white"/>
<path d="M1476.86 464.562H1275.23V739.816H1476.86V464.562Z" fill="#BFCDD8"/>
<path d="M1094.02 444.225H888.158V464.562H1094.02V444.225Z" fill="#B5C1C9"/>
<path d="M1464.91 444.225H1093.94V464.562H1464.91V444.225Z" fill="white"/>
<path d="M981.756 509.466C986.09 508.8 990.516 509.069 994.738 510.253C998.96 511.438 1002.88 513.511 1006.23 516.335C1009.59 519.158 1012.3 522.666 1014.19 526.624C1016.08 530.581 1017.1 534.896 1017.18 539.28V662.765H952.015V539.28C952.015 531.386 955.146 523.813 960.721 518.224C966.297 512.635 973.862 509.485 981.756 509.466Z" fill="#22457D"/>
<path d="M1174.71 509.466C1179.04 508.8 1183.47 509.069 1187.69 510.253C1191.91 511.438 1195.83 513.511 1199.19 516.335C1202.54 519.158 1205.26 522.666 1207.14 526.624C1209.03 530.581 1210.05 534.896 1210.14 539.28V662.765H1144.9V539.28C1144.9 531.373 1148.04 523.79 1153.63 518.198C1159.22 512.607 1166.8 509.466 1174.71 509.466Z" fill="#22457D"/>
<path d="M1379.55 509.466C1383.88 508.8 1388.31 509.069 1392.53 510.253C1396.75 511.438 1400.67 513.511 1404.03 516.335C1407.38 519.158 1410.09 522.666 1411.98 526.624C1413.87 530.581 1414.89 534.896 1414.97 539.28V662.765H1349.81V539.28C1349.81 531.386 1352.94 523.813 1358.51 518.224C1364.09 512.635 1371.65 509.485 1379.55 509.466Z" fill="#22457D"/>
<path d="M984.162 1016.67C985.328 762.122 1372.18 762.268 1373.35 1016.67H984.162Z" fill="white"/>
<path d="M999.47 334.225C999.16 336.907 997.874 339.382 995.858 341.179C993.842 342.975 991.236 343.968 988.536 343.968C985.836 343.968 983.23 342.975 981.213 341.179C979.197 339.382 977.912 336.907 977.602 334.225C977.912 331.543 979.197 329.068 981.213 327.271C983.23 325.475 985.836 324.482 988.536 324.482C991.236 324.482 993.842 325.475 995.858 327.271C997.874 329.068 999.16 331.543 999.47 334.225Z" fill="#1B7FBD"/>
<path d="M1386.98 334.225C1386.67 336.907 1385.39 339.382 1383.37 341.179C1381.35 342.975 1378.75 343.968 1376.05 343.968C1373.35 343.968 1370.74 342.975 1368.73 341.179C1366.71 339.382 1365.42 336.907 1365.11 334.225C1365.42 331.543 1366.71 329.068 1368.73 327.271C1370.74 325.475 1373.35 324.482 1376.05 324.482C1378.75 324.482 1381.35 325.475 1383.37 327.271C1385.39 329.068 1386.67 331.543 1386.98 334.225Z" fill="#1B7FBD"/>
<path d="M1188.49 353.543C1188.18 356.226 1186.89 358.7 1184.88 360.497C1182.86 362.293 1180.25 363.286 1177.55 363.286C1174.85 363.286 1172.25 362.293 1170.23 360.497C1168.21 358.7 1166.93 356.226 1166.62 353.543C1166.93 350.861 1168.21 348.386 1170.23 346.59C1172.25 344.793 1174.85 343.801 1177.55 343.801C1180.25 343.801 1182.86 344.793 1184.88 346.59C1186.89 348.386 1188.18 350.861 1188.49 353.543Z" fill="#1B7FBD"/>
<path d="M1467.97 444.225H1262.11V464.562H1467.97V444.225Z" fill="#B5C1C9"/>
<path d="M1493.26 789.02H850.617L872.048 739.889H1476.79L1493.26 789.02Z" fill="#B5C1C9"/>
<path d="M678.438 240.773C676.907 240.773 672.46 241.721 672.533 238.951V188.507C672.533 185.737 680.187 185.81 680.187 188.507V238.732C680.218 238.983 680.196 239.238 680.122 239.48C680.049 239.722 679.926 239.946 679.762 240.138C679.597 240.33 679.395 240.486 679.167 240.595C678.939 240.704 678.69 240.765 678.438 240.773Z" fill="white"/>
<path d="M689.956 206.44H662.838C660.506 206.44 660.579 198.495 662.838 198.422H689.956C692.215 198.495 692.142 206.44 689.956 206.44Z" fill="white"/>
<path d="M689.372 274.306C674.793 274.306 644.687 279.044 645.125 256.082C643.448 243.398 647.895 227.58 663.349 227.799C678.802 228.017 708.033 223.06 707.596 246.023C709.273 258.706 705.19 274.525 689.372 274.306Z" fill="#22457F"/>
<path d="M550.944 375.777C551.746 211.762 801.049 211.835 801.778 375.777H550.944Z" fill="#196CB0"/>
<path opacity="0.4" d="M550.944 375.777C551.746 211.762 801.049 211.835 801.778 375.777H550.944Z" fill="#22457F"/>
<path d="M593.296 375.777C593.952 211.543 755.926 211.689 756.582 375.777H593.296Z" fill="#F9ECD4"/>
<path d="M633.826 375.775C633.826 206.002 717.948 206.075 717.948 375.775H633.826Z" fill="#1B7FBD"/>
<path d="M632.514 392.25H539.646V612.905H632.514V392.25Z" fill="#DAE4EA"/>
<path d="M725.383 392.25H632.514V612.905H725.383V392.25Z" fill="white"/>
<path d="M818.252 392.25H725.383V612.905H818.252V392.25Z" fill="#DAE4EA"/>
<path d="M636.669 381.025H625.589V612.979H636.669V381.025Z" fill="#B5C1C9"/>
<path d="M727.06 381.025H715.979V612.979H727.06V381.025Z" fill="#B5C1C9"/>
<path d="M828.967 376.797H526.159V392.251H828.967V376.797Z" fill="#B5C1C9"/>
<path d="M709.419 376.797H643.886V392.251H709.419V376.797Z" fill="white"/>
<path d="M831.373 1016.67H521.859C544.602 529.513 410.766 620.705 806.151 612.978C812.86 612.978 819.294 615.643 824.037 620.387C828.781 625.131 831.446 631.564 831.446 638.273L831.373 1016.67Z" fill="#CBD4D8"/>
<path d="M803.454 1016.67H552.11V747.543C552.901 714.689 566.508 683.446 590.024 660.489C613.54 637.533 645.101 624.682 677.965 624.682C710.828 624.682 742.389 637.533 765.905 660.489C789.421 683.446 803.028 714.689 803.819 747.543L803.454 1016.67Z" fill="white"/>
<path d="M750.459 1016.67C743.972 1012.3 586.007 1027.24 594.026 1006.91V757.312C594.026 735.272 602.781 714.135 618.365 698.551C633.95 682.966 655.087 674.211 677.126 674.211C699.166 674.211 720.303 682.966 735.888 698.551C751.472 714.135 760.227 735.272 760.227 757.312C755.197 761.467 771.891 1028.26 750.459 1016.67Z" fill="#F9ECD4"/>
<path d="M603.356 748.346H514.569V760.957H603.356V748.346Z" fill="#22457D"/>
<path d="M594.317 788.584H551.746V801.195H594.317V788.584Z" fill="#22457D"/>
<path d="M835.747 748.346H746.96V760.957H835.747V748.346Z" fill="#22457D"/>
<path d="M803.454 788.584H751.771V801.195H803.454V788.584Z" fill="#22457D"/>
<path d="M759.936 767.516H594.244V775.097H759.936V767.516Z" fill="#22457D"/>
<path d="M710.22 845.515C709.163 843.692 707.561 842.247 705.638 841.383C703.715 840.52 701.57 840.283 699.505 840.704C698.63 822.918 706.211 784.356 677.636 784.866C649.061 785.377 656.788 822.991 655.768 840.704C647.457 839.246 642.719 846.755 639.73 853.315H713.938L710.22 845.515Z" fill="#22457D"/>
<path d="M580.394 441.602C583.799 441.602 587.17 442.273 590.314 443.578C593.458 444.883 596.314 446.796 598.718 449.207C601.122 451.617 603.027 454.479 604.323 457.627C605.619 460.775 606.282 464.148 606.272 467.552V577.843H554.443V467.552C554.443 460.67 557.177 454.069 562.044 449.202C566.911 444.336 573.512 441.602 580.394 441.602Z" fill="#22457D"/>
<path d="M677.563 441.602C684.446 441.602 691.047 444.336 695.913 449.202C700.78 454.069 703.514 460.67 703.514 467.552V577.843H651.686V467.552C651.676 464.148 652.338 460.775 653.634 457.627C654.931 454.479 656.835 451.617 659.239 449.207C661.643 446.796 664.499 444.883 667.644 443.578C670.788 442.273 674.159 441.602 677.563 441.602Z" fill="#22457D"/>
<path d="M765.476 441.602C768.88 441.602 772.251 442.273 775.396 443.578C778.54 444.883 781.396 446.796 783.8 449.207C786.204 451.617 788.109 454.479 789.405 457.627C790.701 460.775 791.363 464.148 791.354 467.552V577.843H739.598V467.552C739.588 464.148 740.251 460.775 741.547 457.627C742.843 454.479 744.747 451.617 747.151 449.207C749.555 446.796 752.411 444.883 755.556 443.578C758.7 442.273 762.071 441.602 765.476 441.602Z" fill="#22457D"/>
<path d="M677.563 789.02C671.95 789.02 671.877 772.546 677.563 772.91C683.249 773.275 683.322 789.385 677.563 789.02Z" fill="#22457D"/>
<path d="M446.266 1212.69H267.089V1069.45L356.677 997.648L446.266 1069.45V1212.69Z" fill="#DAE4EA"/>
<path d="M356.677 1068.21C315.127 1066.97 332.695 1135.49 329.196 1159.04H384.45C380.66 1135.35 398.228 1067.04 356.677 1068.21Z" fill="#22457D"/>
<path d="M592.494 1069.45H446.266V1212.69H592.494V1069.45Z" fill="white"/>
<path d="M592.422 1067.77H446.266L356.678 997.648H506.697L592.422 1067.77Z" fill="#196CB0"/>
<path d="M773.421 1502.59H998.814V1138.12L886.117 1046.78L773.421 1138.12V1502.59Z" fill="white"/>
<path d="M886.118 1135.35C895.282 1135.35 904.07 1138.99 910.55 1145.47C917.03 1151.95 920.67 1160.74 920.67 1169.9V1281.43H851.565V1169.9C851.565 1160.74 855.206 1151.95 861.686 1145.47C868.165 1138.99 876.954 1135.35 886.118 1135.35Z" fill="#22457D"/>
<path d="M886.117 1407.76C934.009 1406.66 918.264 1476.21 920.669 1505H851.565C854.043 1476.13 838.298 1406.74 886.117 1407.76Z" fill="#22457D"/>
<path d="M773.421 1137.17H589.433V1497.64H773.421V1137.17Z" fill="#DAE4EA"/>
<path d="M589.433 1135.06H773.421L886.117 1046.78H697.391L589.433 1135.06Z" fill="#196CB0"/>
<path d="M328.831 1214.22H0V1501.94H328.831V1214.22Z" fill="#BFCDD8"/>
<path d="M590.38 1214.22H328.831V1501.94H590.38V1214.22Z" fill="white"/>
<path d="M98.4088 1287.12C87.7076 1287.25 77.4831 1291.56 69.9224 1299.14C62.3618 1306.71 58.0651 1316.94 57.9517 1327.65V1501.94H138.866V1327.57C138.875 1322.26 137.836 1316.99 135.806 1312.08C133.776 1307.17 130.796 1302.7 127.038 1298.94C123.279 1295.18 118.815 1292.2 113.902 1290.18C108.989 1288.15 103.724 1287.11 98.4088 1287.12Z" fill="#22457D"/>
<path d="M232.318 1287.12C221.611 1287.23 211.376 1291.54 203.811 1299.12C196.246 1306.69 191.956 1316.94 191.861 1327.65V1501.94H272.775V1327.57C272.784 1322.26 271.745 1316.99 269.715 1312.08C267.685 1307.17 264.705 1302.7 260.947 1298.94C257.188 1295.18 252.724 1292.2 247.812 1290.18C242.899 1288.15 237.634 1287.11 232.318 1287.12Z" fill="#22457D"/>
<path d="M459.606 1287.11C405.518 1285.95 421.118 1361.18 419.149 1394.49H500.063C498.095 1361.32 513.695 1286.02 459.606 1287.11Z" fill="#22457D"/>
<path d="M1460.39 1269.91H1195.19V1501.94H1460.39V1269.91Z" fill="#BFCDD8"/>
<path d="M1195.19 1269.91H984.234V1501.94H1195.19V1269.91Z" fill="white"/>
<path d="M1381.08 1328.67C1385.36 1328.67 1389.61 1329.51 1393.56 1331.15C1397.52 1332.79 1401.12 1335.2 1404.14 1338.23C1407.17 1341.27 1409.57 1344.87 1411.2 1348.83C1412.84 1352.79 1413.67 1357.04 1413.66 1361.32V1501.94H1348.06V1361.32C1348.05 1357 1348.9 1352.72 1350.56 1348.73C1352.22 1344.74 1354.65 1341.12 1357.73 1338.08C1360.8 1335.04 1364.45 1332.64 1368.46 1331.03C1372.47 1329.41 1376.76 1328.61 1381.08 1328.67Z" fill="#22457D"/>
<path d="M1273.05 1328.67C1277.34 1328.66 1281.59 1329.49 1285.55 1331.13C1289.52 1332.77 1293.13 1335.17 1296.16 1338.21C1299.19 1341.24 1301.6 1344.85 1303.24 1348.81C1304.88 1352.78 1305.71 1357.03 1305.7 1361.32V1501.94H1240.1V1361.32C1240.1 1357.01 1240.95 1352.74 1242.61 1348.76C1244.27 1344.78 1246.7 1341.16 1249.77 1338.13C1252.83 1335.09 1256.46 1332.69 1260.46 1331.07C1264.46 1329.44 1268.73 1328.63 1273.05 1328.67Z" fill="#22457D"/>
<path d="M1089.79 1328.67C1133.52 1327.72 1120.77 1388.44 1122.37 1415.27H1056.77C1058.73 1388.37 1046.12 1327.79 1089.79 1328.67Z" fill="#22457D"/>
<path d="M1745.63 645.198C1744.1 644.688 1737.25 646.583 1737.39 643.449V576.312C1737.39 573.25 1744.1 575 1745.63 574.563C1746.1 574.562 1746.55 574.744 1746.89 575.07C1747.23 575.396 1747.43 575.841 1747.45 576.312V643.449C1747.43 643.919 1747.23 644.364 1746.89 644.69C1746.55 645.017 1746.1 645.199 1745.63 645.198Z" fill="#DAE4EA"/>
<path d="M1760.57 600.367H1724.12C1721.72 600.367 1721.86 589.652 1724.12 589.87H1760.57C1762.9 589.652 1762.83 600.659 1760.57 600.367Z" fill="#DAE4EA"/>
<path d="M1747.6 665.39C1737.46 666.556 1723.76 664.297 1723.98 651.394C1723.98 631.785 1761.81 631.785 1761.59 651.394C1761.59 655.106 1760.12 658.666 1757.49 661.291C1754.87 663.916 1751.31 665.39 1747.6 665.39Z" fill="#22457D"/>
<path d="M1843.31 747.034C1842.72 878.975 1642.12 878.902 1641.53 747.034C1642.12 615.093 1842.72 615.093 1843.31 747.034Z" fill="#196CB0"/>
<path d="M1927.57 770.141H1557.12V1499.31H1927.57V770.141Z" fill="#DDE3E8"/>
<path d="M1927.65 770.141H1742.42V1499.31H1927.65V770.141Z" fill="white"/>
<path d="M1927.57 756.291H1557.12V770.141H1927.57V756.291Z" fill="#22457D"/>
<path d="M1927.65 756.29H1557.12L1547.13 719.988H1937.63L1927.65 756.29Z" fill="#B5C1C9"/>
<path d="M1927.57 1064.49H1557.12V1081.04H1927.57V1064.49Z" fill="#B5C1C9"/>
<path d="M1652.03 858.345C1647.03 857.983 1642 858.659 1637.27 860.328C1632.55 861.997 1628.21 864.625 1624.54 868.046C1620.88 871.467 1617.95 875.608 1615.96 880.21C1613.97 884.813 1612.95 889.777 1612.96 894.792V1064.2H1688.48V894.792C1688.48 885.126 1684.64 875.855 1677.8 869.02C1670.97 862.185 1661.7 858.345 1652.03 858.345Z" fill="#22457D"/>
<path d="M1837.26 858.345C1832.26 857.983 1827.23 858.659 1822.5 860.328C1817.77 861.997 1813.44 864.625 1809.77 868.046C1806.1 871.467 1803.18 875.608 1801.19 880.21C1799.19 884.813 1798.17 889.777 1798.19 894.792V1064.2H1873.71V894.792C1873.71 885.126 1869.87 875.855 1863.03 869.02C1856.19 862.185 1846.92 858.345 1837.26 858.345Z" fill="#22457D"/>
<path d="M1927.57 1373.64H1557.12V1390.19H1927.57V1373.64Z" fill="#B5C1C9"/>
<path d="M1652.03 1167.71C1647.03 1167.35 1642 1168.03 1637.27 1169.7C1632.55 1171.36 1628.21 1173.99 1624.54 1177.41C1620.88 1180.83 1617.95 1184.98 1615.96 1189.58C1613.97 1194.18 1612.95 1199.14 1612.96 1204.16V1373.57H1688.48V1204.23C1688.49 1199.44 1687.55 1194.69 1685.72 1190.26C1683.9 1185.83 1681.21 1181.8 1677.83 1178.41C1674.44 1175.02 1670.42 1172.33 1665.99 1170.49C1661.57 1168.66 1656.82 1167.71 1652.03 1167.71Z" fill="#22457D"/>
<path d="M1837.26 1167.71C1832.26 1167.35 1827.23 1168.03 1822.5 1169.7C1817.77 1171.36 1813.44 1173.99 1809.77 1177.41C1806.1 1180.83 1803.18 1184.98 1801.19 1189.58C1799.19 1194.18 1798.17 1199.14 1798.19 1204.16V1373.57H1873.71V1204.23C1873.71 1199.44 1872.78 1194.69 1870.95 1190.26C1869.12 1185.83 1866.44 1181.8 1863.06 1178.41C1859.67 1175.02 1855.65 1172.33 1851.22 1170.49C1846.8 1168.66 1842.05 1167.71 1837.26 1167.71Z" fill="#22457D"/>
<path d="M1449.82 1056.11C1352.07 1054.87 1388.95 1203.94 1382.39 1261.97H1517.17C1510.61 1203.65 1547.57 1055.16 1449.82 1056.11Z" fill="#22457D"/>
</g>
<defs>
<clipPath id="clip0_349_1880">
<rect width="1939.68" height="1505" fill="white"/>
</clipPath>
</defs>
</svg>
